<svg xmlns="http://www.w3.org/2000/svg" viewBox="0 0 1000 618">
  <path d="M364.8 66.1h270.4v485.8H364.8z" fill="#fff" fill-opacity="0.75" stroke="none" />
  <path
    d="M382 309c0-98.7 46.4-186.3 117.6-242.9C447.2 24.9 381.1 0 309 0 138.2 0 0 138.2 0 309s138.2 309 309 309c72.1 0 138.2-24.9 190.6-66.1C428.3 496.1 382 407.7 382 309z"
    fill="#fff" fill-opacity="1" stroke="none" />
  <path
    d="M1000 309c0 170.8-138.2 309-309 309-72.1 0-138.2-24.9-190.6-66.1C572.5 495.3 618 407.7 618 309c0-98.7-46.4-186.3-117.6-242.9C552.8 24.9 618.9 0 691 0c170.8 0 309 139.1 309 309z"
    fill="#fff" fill-opacity="1" stroke="none" />
</svg>
