<svg xmlns="http://www.w3.org/2000/svg" viewBox="0 0 339.9 190">
  <g fill="#e3051e">
    <path
      d="M169.9 121.8c-32.2 0-58.5-26.2-58.5-58.5s26.3-58.5 58.5-58.5c32.3 0 58.5 26.2 58.5 58.5 0 32.2-26.2 58.5-58.5 58.5m0-121.8c-34.9 0-63.3 28.4-63.3 63.3s28.4 63.3 63.3 63.3 63.3-28.4 63.3-63.3S204.8 0 169.9 0" />
    <path
      d="M147.7 74h18c.6 0 1.2-.4 1.2-2.1v-.4c0-1.7-.7-2.1-1.3-2.1 0 0-.1 0 0 0h-18c-.6 0-1.2.4-1.2 2.1v.5c.1 1.7.8 2 1.3 2M149.2 103.2zM167 80.5h-19.3c-.5 0-1.2.4-1.2 2.1v.4c0 1.7.7 2.1 1.2 2.1h10.7v13.3s0 .2-.1.3c0 0-.1.1-.2.1h-9c-.6 0-1.3.4-1.3 2.2v.4c0 1.8.7 2.2 1.3 2.2h9.8s3.2 0 3.5-4.2V85h4.6c.3 0 .7-.2.9-.8.1-.3.2-.7.2-1.3v-.4c.1-1.7-.6-2-1.1-2M127.9 74h11.4s3.6-.3 4.1-5.3v-3.2c0-.3-.1-.5-.3-.8-.4-.4-1-.5-1.4-.5h-.3c-.4 0-1 .2-1.4.5-.2.2-.3.5-.3.8v2.8s0 .6-.3.9c-.2.2-.4.3-.7.3h-10.8c-.6 0-1.2.4-1.2 2.1V72.3c.1 1.4.7 1.7 1.2 1.7M145.1 75.5c0-.3-.1-.5-.3-.7-.4-.4-1-.5-1.4-.5h-.3c-.4 0-1 .2-1.4.5-.2.2-.3.5-.3.7v3.8s0 .6-.3.9c-.2.2-.4.2-.7.2H128c-.6 0-1.2.4-1.2 2.1V83.3c.1 1.4.7 1.7 1.2 1.7h6v17.4c0 .3.1.5.3.7.3.3.8.5 1.6.5h.3c.7 0 1.3-.1 1.6-.5.2-.2.3-.4.3-.7V85h3.1s3.5-.3 4.1-5.3v-4l-.2-.2zM210.2 55.9h-.2c-2.7-.1-11.7-1.5-14.5-12.5-.1-.4-.7-2.4-.7-6.3V37H211c.5 0 1.2-.3 1.2-2v-.4c0-1.6-.6-2-1.2-2h-16.2v-8.1c0-.3-.1-.5-.3-.7-.3-.3-.9-.5-1.7-.5h-.4c-.8 0-1.3.2-1.6.5-.2.2-.3.4-.3.7v8.1h-16.2c-.6 0-1.2.3-1.2 2v.4c0 1.6.6 2 1.2 2h16.2v.1c0 3.9-.5 5.9-.6 6.3-2.9 11.1-11.9 12.4-14.5 12.5h-.2c-1.1.1-2 1.1-2 2.2 0 1.2 1 2.2 2.2 2.2h.5c12.2-.7 16-10.6 16.8-13.8.9 3.2 4.6 13.1 16.8 13.8h.5c1.2 0 2.2-1 2.2-2.2 0-1.1-.9-2.1-2-2.2M202.5 80.5h-7.7v-2.9h7.7v2.9zm0 6.9h-7.7v-2.9h7.7v2.9zm-11.9-6.9h-7.7v-2.9h7.7v2.9zm0 6.9h-7.7v-2.9h7.7v2.9zm22-9.8c.3 0 .7-.1.9-.7.1-.3.2-.7.2-1.1v-.3c0-1.5-.6-1.8-1.1-1.8h-8v-2.9h6.5c.4 0 1.1-.2 1.1-1.9v-.3c0-1.5-.6-1.9-1.1-1.9h-6.5v-1.5c0-.2-.1-.4-.2-.6-.3-.3-.7-.4-1.3-.4h-.3c-.6 0-1.1.1-1.3.4-.1.2-.2.4-.2.6v1.5h-6.5c-.5 0-1.1.3-1.1 1.9v.3c0 1.6.7 1.9 1.1 1.9h6.5v2.9h-16.8v-2.9h6.5c.4 0 1.1-.2 1.1-1.9v-.3c0-1.5-.6-1.9-1.1-1.9h-6.5v-1.5c0-.2-.1-.4-.2-.6-.3-.3-.7-.4-1.3-.4h-.3c-.6 0-1.1.1-1.3.4-.1.2-.2.4-.2.6v1.5h-6.5c-.5 0-1.1.3-1.1 1.9v.3c0 1.6.7 1.9 1.1 1.9h6.5v2.9h-8c-.5 0-1.1.3-1.1 1.8v.3c0 .5 0 .8.2 1.1.2.6.6.7.9.7h6.4v2.9h-4.9c-.5 0-1.1.3-1.1 1.8v.3c0 1.5.6 1.9 1.1 1.9h4.9v2.9h-6.4c-.5 0-1.1.3-1.1 1.8v.3c0 1.5.6 1.8 1.1 1.8H191v2.4h-16.2c-.5 0-1.1.3-1.1 1.9v.4c0 1.6.7 1.9 1.1 1.9H191v4.4c0 .3.1.5.3.7.3.3.9.5 1.6.5h.4c.8 0 1.4-.2 1.7-.5.2-.2.3-.4.3-.7v-4.5H211c.4 0 1.1-.2 1.1-1.9v-.3c0-1.5-.6-1.9-1.1-1.9h-16.2v-2.4h17.8c.5 0 1.1-.3 1.1-1.8v-.3c0-1.5-.6-1.8-1.1-1.8h-6.5v-2.9h4.9c.5 0 1.1-.3 1.1-1.9v-.3c0-1.5-.6-1.8-1.1-1.8h-4.9v-2.9h6.5zM163.5 37.6h-12.9v-8.9h12.9v8.9zm1.1-12.3h-15.5s-2.5.3-2.7 3.3V56.3c.3 3.8 3.1 3.8 3.2 3.8h5.9c.5 0 1.2-.3 1.2-2v-.4c0-1.6-.6-2-1.2-2h-4.9v-14h13.9s2.1-.1 2.5-2.9V28.5c0-1-.5-3-2.4-3.2" />
    <path
      d="M167.2 56h-.2c-2.2 0-4-.6-5.4-1.7 1.4-2.5 3.1-5.3 4.5-7.7l.1-.1c.1-.1.4-.7.5-.8l.2-.4c.1-.2.2-.5.1-.8-.1-.5-.5-.9-.9-1.1-.1-.1-.2-.1-.3-.1-.3-.2-.7-.3-1-.3-.5 0-.8.2-1 .6-.1.1-.1.2-.2.3l-.2.3c-.1.1-.2.3-.2.3-1.3 2.2-2.5 4.4-3.8 6.6-.7-1.7-1-3.5-1.1-4.7v-2.6c0-.3-.1-.5-.3-.7-.3-.3-.9-.5-1.3-.5h-.3c-.4 0-1 .2-1.3.5-.2.2-.3.4-.3.7v.8c-.1 1.4-.1 8.5 3.8 12.6 1.9 2 4.5 3 7.7 3h.7c1.1 0 2.1-.9 2.1-2.1-.1-1.1-.9-1.9-1.9-2.1M144 49.3h-4.6c-.5 0-1.1.3-1.1 1.8v.3c0 1.5.6 1.8 1.1 1.8h4.5c.3 0 .7-.1.9-.7.1-.3.2-.7.2-1.1v-.3c.1-1.6-.6-1.8-1-1.8" />
    <path
      d="M144 35.9h-16.2c-.4 0-1.1.2-1.1 1.8v.3c0 1.6.7 1.8 1.1 1.8h6.3v3h-6.3c-.4 0-1.1.2-1.1 1.8v.4c0 1.6.7 1.8 1.1 1.8h6.3v8.9h-6.2c-.5 0-1.2.3-1.2 2v.3c0 1.6.7 2 1.2 2h16c.3 0 .8-.1 1-.8.1-.3.2-.7.2-1.2v-.4c0-1.6-.6-2-1.2-2h-6.3v-8.9h6.3c.4 0 1.1-.2 1.1-1.8v-.3c0-1.6-.7-1.8-1.1-1.8h-6.3v-3h6.3c.4 0 1.1-.2 1.1-1.8v-.3c.1-1.5-.6-1.8-1-1.8" />
    <path
      d="M132.3 53.2c.5 0 1.1-.3 1.1-1.8v-.3c0-1.5-.6-1.8-1.1-1.8h-4.6c-.5 0-1.1.3-1.1 1.8v.3c0 1.5.6 1.8 1.1 1.8h4.6zM143.1 30.5c-3.1 0-4.4-3.1-4.9-4.4-.1-.1-.1-.3-.1-.4-.6-1.4-1.1-1.8-1.1-1.8-.3-.3-.6-.5-1-.5s-.8.2-1 .5c0 0-.5.5-1.1 1.9 0 .1-.1.2-.2.4-.5 1.3-1.8 4.4-4.9 4.4-1.2 0-2.1 1-2.1 2.1 0 1.2.9 2.1 2.1 2.1 2.9 0 6.1-2.4 7.2-4.7 1.1 2.3 4.3 4.7 7.2 4.7 1.2 0 2.1-1 2.1-2.1-.1-1.2-1-2.2-2.2-2.2M160.7 31.2h-7.3c-.5 0-1.1.3-1.1 1.8v.3c0 1.5.6 1.8 1.1 1.8h7.3c.4 0 1.1-.2 1.1-1.8V33c0-1.5-.7-1.8-1.1-1.8" />
  </g>
  <path
    d="M18.9 189.4L8.6 175.1H4.9v14.3H0v-32.6h9.8c4.6 0 9.8 3 9.8 9.2 0 4.3-2.6 7.1-5.7 8.4L25 189.5h-6.1zM9 161.1H5v9.9h4c2.9 0 5.6-1.5 5.6-5 0-3.3-2.7-4.9-5.6-4.9M30.5 156.8h5v32.6h-5zM61.8 190c-8.8 0-17.9-5.9-17.9-16.9 0-11.3 9.5-17 17.6-17 4.5 0 8.1 1.1 10.5 2.6l-.9 4.4c-2.4-1.5-5.6-2.6-9.1-2.6-6.4 0-13.1 4.2-13.1 12.7 0 8.4 6.5 12.6 13.2 12.6 3 0 5.4-.6 6.9-1.7v-7.2h-7.5v-4h12.2v13.6c-3.1 2.5-7 3.5-11.9 3.5M104.7 156.8v14.1H87.9v-14.1h-5v32.6h5v-14.3h16.8v14.3h5v-32.6zM116.3 156.8v4.2h10.5v28.4h5V161h10.4v-4.2z"
    fill="#fff" />
  <g fill="#fff">
    <path
      d="M175.8 189.4h-10.6v-32.6h9.1c4.3 0 9.2 2.8 9.2 8.5 0 2.4-1.1 4.9-3 5.7 3 .9 6 4.2 6 8.4 0 6.8-5.6 10-10.7 10m-2.3-28.5H170v8.8h3.6c2.7 0 5.1-1.3 5.1-4.3-.1-3.2-2.4-4.5-5.2-4.5m1.3 12.8H170v11.7h4.9c3.5 0 6.8-1.8 6.8-5.8-.1-4.1-3.4-5.9-6.9-5.9M207.4 174.4v15h-4.9v-15L190 156.8h5.4l6.5 9.2c1 1.4 2.2 3.2 3.1 4.6h.1c.9-1.4 2.2-3.3 3.1-4.6l6.5-9.2h5.1l-12.4 17.6zM255.2 174.4v15h-4.9v-15l-12.5-17.6h5.4l6.5 9.2c1 1.4 2.2 3.2 3.1 4.6h.1c.9-1.4 2.2-3.3 3.1-4.6l6.5-9.2h5.1l-12.4 17.6zM287.6 190c-8.7 0-17.3-6.4-17.3-17 0-10.5 8.6-16.9 17.3-16.9 8.7 0 17.3 6.4 17.3 16.9-.1 10.6-8.6 17-17.3 17m0-29.5c-6 0-12.3 4.5-12.3 12.6s6.2 12.7 12.3 12.7c5.9 0 12.3-4.6 12.3-12.7-.1-8-6.4-12.6-12.3-12.6M326.6 190c-7.6 0-13.3-4.5-13.3-12.1v-21.1h5v20.6c0 4.9 2.7 8.2 8.4 8.2s8.4-3.4 8.4-8.2v-20.6h4.8v21.1c0 7.6-5.7 12.1-13.3 12.1" />
  </g>
</svg>
