<svg version="1.1" id="Layer_1" xmlns="http://www.w3.org/2000/svg" x="0" y="0" viewBox="0 0 475.7 87.9"
  xml:space="preserve">
  <path
    d="M65.1 85.4c0 2.2 2.7 2.4 4.4 2.4h1.4c4-.2 3.9-1.7 3.9-2.4V2.4C74.8.3 72 0 70.4 0h-.9c-1.7 0-4.4.3-4.4 2.4v83zM13.1 85.4c0 2.2 2.7 2.4 4.4 2.4h1.4c4-.2 3.9-1.7 3.9-2.4V2.4C22.8.2 20 0 18.4 0h-.9c-1.7 0-4.4.3-4.4 2.4v83zM30.4 85.4c0 2.2 2.7 2.4 4.4 2.4h1.4c4-.2 3.9-1.7 3.9-2.4V2.4C40.1.2 37.3 0 35.7 0h-.9c-1.7 0-4.4.3-4.4 2.4v83zM47.7 85.4c0 2.2 2.7 2.4 4.4 2.4h1.4c4-.2 3.9-1.7 3.9-2.4V2.4C57.4.2 54.6 0 53 0h-.9c-1.7 0-4.4.3-4.4 2.4v83z"
    fill="#ed1c2b" />
  <path
    d="M2.4 39.1C.2 39 0 41.8 0 43.5v1.4c.2 4 1.7 3.9 2.4 3.9h83c2.2 0 2.4-2.8 2.4-4.4v-.9c0-1.7-.3-4.4-2.4-4.4H3.8 2.4z"
    fill="#ed1c2b" />
  <path
    d="M208.9 6.4c-23.4 0-33.8 11.5-33.8 37.3 0 25.2 10.9 37.5 33.2 37.7h1.1c22.4-.1 33.3-12.4 33.3-37.7 0-25.8-10.4-37.3-33.8-37.3m.1 64h-.2c-13.4 0-18.6-7.5-18.6-26.8 0-19 5-26.1 18.5-26.1h.4c13.5 0 18.5 7.1 18.5 26.1 0 19.3-5.2 26.8-18.6 26.8M115.1 75.7c4.7 3.7 11.2 5.2 21.6 5.2h.6c10.5 0 16.9-1.6 21.6-5.2 6.8-5.2 8-11.3 8-23V10.6c0-.6 0-1.4-.7-2.1-1.1-1.1-3.5-1.6-7.1-1.6s-6 .6-7.1 1.6c-.7.7-.7 1.5-.7 2.1v44c0 7.3 0 8.8-3.3 11.5-3 2.4-7.5 2.8-11.1 2.8s-8.1-.3-11.1-2.8c-3.2-2.7-3.2-4.2-3.2-11.4V10.6c0-.6 0-1.4-.7-2.1-1.1-1.1-3.5-1.6-7.1-1.6s-6 .6-7.1 1.6c-.7.7-.7 1.5-.7 2.1v42.1c.1 11.7 1.3 17.8 8.1 23M301 11.3c-3.9-2.9-8.5-3.9-17.6-3.9h-30c-1.4 0-2.5 1.1-2.5 2.5V78c0 1.4 1.1 2.5 2.5 2.5h31.5c8.6 0 14.5-.3 19.5-4 5.6-4.3 6.7-11.4 6.7-16.6 0-6.8-2.3-12.2-6.5-15.2-1.8-1.3-3.9-2.2-6-2.9l-1.4-.5 1.3-.6c6.1-2.9 8.4-7 8.3-15 .1-3.8-.8-10.7-5.8-14.4m-34.8 6.3H283c8.7 0 9.4 4.4 9.4 10.2 0 6.9-3.2 9.8-10.5 9.8h-15.6l-.1-20zM282.6 70h-16.5V48h17.6c9.8 0 11.7 4.3 11.7 11.1.2 9.3-3.2 10.9-12.8 10.9"
    fill="#00377b" />
  <g>
    <path
      d="M454.2 29.2c.6.3 1.1.5 1.1.5s.5.3.2.9-1.7 2.7-3.2 4.4-2.6 2.5-2.8 2.8c-.3.3-.8.6-.8.6s-.5.3-.8-.1c-.3-.4-.9-.9-.9-.9s-.4-.6.2-1c.5-.4 2.3-1.7 3.8-3.6 1.6-1.9 2.4-3.3 2.4-3.3s.2-.6.8-.3m-110.8 8.6s.2-3.8.2-5.5v-2s.1-.8.9-.6c.8.1 1.1.3 1.1.3s.5.1.5.7v3.5c0 1.2-.1 2.7-.1 2.7l-.1.9h12.8s.8-.2.8.8v.9s.1.7-.8.7h-13.1l-.2 1.1 1.2-.3s.7-.1.9.6c.2.7.8 2.6 1.3 3.8.6 1.3 1.5 3.3 3.2 5.2s3.4 3 3.4 3 1.1.7 1.8 1.1c.8.4 1.6.5 1.2 1.4-.3.9-.5 1.1-.5 1.1s-.2.6-1.3 0c-1.1-.5-3.4-1.8-5.2-3.6-1.8-1.9-2.7-3.2-3.5-4.5s-1.4-2.8-1.4-2.8-.6-1.5-.8-2.1l-.5-1.5s-.5 2.1-1.2 3.7-1.9 4-3.1 5.3-2.2 2.6-4.6 4c-1.7 1-3 1.5-3 1.5s-.4.3-.7.1c-.4-.1-.4-.3-.4-.4l-.3-1.3s-.1-.5.5-.8 3-1.2 4.6-2.7 2.9-3 3.6-4.2c.6-1.1 1.2-2.3 1.7-3.8.5-1.6 1-3.7 1-3.7h-11.7s-.7-.1-.7-.6v-1.1s0-.6.9-.6h11.6v-.3zm33.9-3.2v11.1s0 .7-.9.7h-1.1s-.6-.1-.6-.7V36s-1.5.7-2.6 1.3-1.7.8-1.7.8-.5.2-.9-.4l-.5-.7s-.4-.7.4-1 3.6-1.4 6.3-3.2c2.7-1.8 4.3-3.2 4.3-3.2s.5-.6 1-.1c.3.2.8.8.8.8s.5.6 0 1.1c-.6.5-2 1.7-2.8 2.2-.8.5-1.7 1-1.7 1m6-5.5c.2 0 .9.2 1.3.3.2 0 .5.3.5.6v5.8c.1 0 2.1-.8 2.7-1 1.4-.6 2.9-1.2 4.2-1.9.5-.3 1.1-.6 1.6-.8.6-.3 1-.7 1.4-.7 0 0 .4 0 .5.3 0 0 .5.8.6 1.2v.4c-.2.3-.6.5-.8.7-1.6.9-2.9 1.6-4.6 2.3-1.8.8-3.7 1.6-5.5 2.3 0 0-.2 0-.2.1v4.5c0 .2.1.3.3.4.1 0 .4.1.5.1h7.7s.5.1.8-.6c0 0 .2-.3.2-.4.2-.4.3-.8.4-1.1.1-.5.1-1.3.8-1.3h.2s.8.3 1.2.4c.1 0 .3.2.4.4s0 .4 0 .4-.2.8-.2 1c-.1.4-.3.8-.4 1.1-.3.9-1.2 2.2-2.2 2.5-.2.1-.6.2-.8.2h-8.6c-.5-.1-1.1-.2-1.6-.4v4H397c.3 0 .6.3.6.8v.9c0 .3-.3.7-.6.7h-13.1v6.6c0 .3-.3.6-.6.6H382c-.2 0-.6-.2-.6-.8v-6.4h-12.5c-.3 0-.7-.4-.6-.6v-1.1c0-.3.4-.6.6-.6h12.5v-3.6c0-.3-.2-1.3.7-1.4h.2l.8.2c0-.1-.1-.4-.2-.5-.1-.2-.2-.7-.2-1.4v-3.5c-.3.1-.6.2-.8.2l-2.6.7c-.7 0-.7-.3-.9-.8-.1-.2-.2-.6-.3-.8 0 0-.1-.7.8-.8.4-.1 1.7-.5 2.1-.6.7-.2 1.1-.4 1.6-.5v-1.5-5.4c0-.1 0-.2.1-.2.1-.9.3-1 .6-1m24.1 17.1c0-.3.3-.6.6-.6h4.5v-3.7h-3c-.6 0-.6-.6-.6-.6v-.6l-.1.2c-.4.6-1 .4-1 .4s-.6-.3-1.1-.8c-.5-.4 0-1 0-1s1.2-1.4 2.6-3.6c1.4-2.2 2.9-5.8 3.2-6.5.3-.7.8-.5.8-.5s.7.2 1.3.4c.6.2.3 1 .3 1s-.1.2-1.3 2.9c-.1.3-.3.6-.5 1h5.6s.7 0 .7.8v.8s0 .7-.8.7h-6.1s-.3-.1-.4-.3c-1 1.6-1.9 3-2.1 3.3h8.3c.7 0 .8.6.8.6v1.1c0 .7-.7.7-.7.7h-3.2v3.7h4c.3 0 .6.3.6.6v1.1c0 .3-.3.6-.6.6h-4v6.4c.8-.7 3-2.7 3.2-2.9.3-.3.8 0 .8 0l.8.8c.6.6 0 1.1 0 1.1s-4.5 3.9-4.8 4.2-1 .8-1.8.4c-.7-.4-.7-1.2-.7-1.2v-8.8h-4.5c-.3 0-.6-.3-.6-.6v-1.1h-.2zm19.8-2.2s.3 2.5 1.8 5.1c0-.1.1-.4.4-.6.4-.3 3.5-2.2 4.3-2.8.9-.6 1.1-.8 1.1-.8s.7-.3 1 .3c.2.3.5 1 .5 1s.2.5-.1.8c-.3.3-5.6 3.7-5.6 3.7s-.2.2-.5.2c.3.3 1.7 2.1 4 3.5.6.4 2.4 1.2 2.4 1.2s.5.3.3.9c-.2.6-.6 1.1-.6 1.1s-.2.5-1 .1-4.7-1.8-7.4-5.9c-2.7-4-3.1-7.3-3.1-7.3s0-.6.5-.7c.5-.1 1.3-.3 1.3-.3s.5-.1.7.5zm-6.9-12.9s0-.7.7-.7h13.4s.7 0 .7.7v11.5s0 .7-.7.7h-11.5v11.8s2.2-1.6 3-2.2c.8-.6.9-.7.9-.7s.5-.5 1 0l.8 1s.4.5-.1.9c-.2.2-2.3 1.6-3.3 2.3-1.1.7-2.3 1.8-2.6 1.9-.2.2-.9.5-1.6 0-.5-.4-.5-1.3-.5-1.3l-.2-25.9zm2.6 9.7h9.8V38h-9.8v2.8zm0-5.2h9.8v-2.9h-9.8v2.9zm47 6.6v13c0 .8-.3 1.9-1.3 2.5-1 .5-2.5.6-3.5.6-1.1 0-1-.4-1-.4s-.2-.4-.3-1.2c-.1-.8.9-.7.9-.7s1.5 0 2.2-.2c.6-.2.5-.4.5-.4V42.2h-9.9c-.6 0-.7-.7-.7-.7v-1c0-.7.7-.8.7-.8H475c.6 0 .8.6.8.6v1.1c0 .7-.7.7-.7.7h-5.2v.1zm-10.8-11.4h14.8c.6 0 .8.6.8.6v1.1c0 .7-.7.7-.7.7h-14.8c-.6 0-.7-.7-.7-.7v-1c-.1-.7.6-.7.6-.7M453 42.7s.2 0 .4.2c.1.2.2.5.2.5v14.8c0 .6-.6.7-.6.7h-1.2c-.7 0-.7-.6-.7-.6V44.7s-.2.2-1 .9c-.8.6-1.8 1.4-2.3 1.8-.6.4-.9.1-.9.1s-.5-.4-.9-.9.1-.9.1-.9 1.1-.8 2.2-1.7 2.5-2.3 3.7-3.7 2.7-3.6 3.2-4.3c.4-.6 1-.2 1-.2s.4.2.9.6c.5.4.2.9.2.9s-.2.3-1.2 1.9c-1.3 1.5-3.1 3.5-3.1 3.5"
      fill="#00377b" />
  </g>
</svg>
