<?xml version="1.0" standalone="no"?>
<!DOCTYPE svg PUBLIC "-//W3C//DTD SVG 1.1//EN" "http://www.w3.org/Graphics/SVG/1.1/DTD/svg11.dtd" >
<svg xmlns="http://www.w3.org/2000/svg">
<metadata>
Created by FontPrep 20130207 at Tue Dec  2 10:56:56 2014
 By Thomas Brodin
Copyright 1993 Greg Thompson. Agenda is a Trademark of Greg Thompson. Produced by The Font Bureau, Inc.
</metadata>
<defs>
<font id="baf4deebcdc6fbc3a6ceb2ca1c5cc8bb" horiz-adv-x='1024' >
  <font-face 
    font-family="Agenda-Medium"
    font-weight="0"
    font-stretch="squinchy"
    units-per-em="1000"
    panose-1="0 0 0 0 0 0 0 0 0 0"
    ascent="800"
    descent="-200"
    x-height="453"
    cap-height="638"
    bbox="-82 -236 1021 930"
    underline-thickness="18"
    underline-position="-168"
    unicode-range="U+0020-FB02"
  />
<missing-glyph horiz-adv-x="364" 
d="M33 0v666h265v-666h-265zM66 33h199v600h-199v-600z" />
    <glyph glyph-name=".notdef" horiz-adv-x="364" 
d="M33 0v666h265v-666h-265zM66 33h199v600h-199v-600z" />
    <glyph glyph-name=".null" horiz-adv-x="0" 
 />
    <glyph glyph-name="nonmarkingreturn" horiz-adv-x="333" 
 />
    <glyph glyph-name="space" unicode=" " horiz-adv-x="230" 
 />
    <glyph glyph-name="exclam" unicode="!" horiz-adv-x="267" 
d="M187 682l-16 -519l-75 17l-16 502h107zM198 50q0 -15 -23 -38t-38 -23t-38 23t-23 38q0 14 23 37t38 23t38 -23t23 -37z" />
    <glyph glyph-name="quotedbl" unicode="&#x22;" horiz-adv-x="313" 
d="M274 712l-17 -229h-48l-16 229h81zM120 712l-18 -229h-48l-15 229h81z" />
    <glyph glyph-name="numbersign" unicode="#" horiz-adv-x="431" 
d="M403 379h-61l-28 -120h64v-58h-78l-46 -201h-65l46 201h-95l-46 -201h-65l46 201h-48v58h62l28 120h-65v58h79l46 201h65l-46 -201h95l46 201h65l-46 -201h47v-58zM277 379h-95l-28 -120h95z" />
    <glyph glyph-name="dollar" unicode="$" horiz-adv-x="468" 
d="M424 178q0 -72 -44 -124.5t-127 -62.5v-88h-57v85q-89 4 -157 49l20 83q70 -52 150 -52q57 0 91 29.5t34 72.5q0 37 -29.5 67.5t-85.5 50.5q-83 29 -130 77t-47 110q0 66 41 113t113 60v89h57v-86q76 -4 130 -35l-18 -78q-61 34 -127 34q-48 0 -77.5 -26t-29.5 -63
q0 -61 106 -102q187 -71 187 -203z" />
    <glyph glyph-name="percent" unicode="%" horiz-adv-x="696" 
d="M321 508q0 -64 -40.5 -104t-102.5 -40q-61 0 -101.5 40t-40.5 104q0 63 40.5 103t101.5 40q62 0 102.5 -40t40.5 -103zM632 626l-525 -650l-44 37l525 650zM660 132q0 -64 -40.5 -104t-101.5 -40q-62 0 -102.5 40t-40.5 104q0 62 40.5 102.5t102.5 40.5q61 0 101.5 -40.5
t40.5 -102.5zM247 508q0 33 -20 53t-49 20t-48.5 -20t-19.5 -53q0 -34 19.5 -54.5t48.5 -20.5t49 20.5t20 54.5zM586 132q0 33 -19.5 52.5t-48.5 19.5t-49 -19.5t-20 -52.5q0 -34 20 -55t49 -21q28 0 48 21t20 55z" />
    <glyph glyph-name="ampersand" unicode="&#x26;" horiz-adv-x="604" 
d="M618 0h-123l-57 57q-85 -69 -196 -69q-88 0 -145.5 50.5t-57.5 121.5q0 116 119 177q-79 76 -79 153q0 70 51 115.5t116 45.5q68 0 121.5 -45.5t53.5 -115.5q0 -52 -35.5 -97.5t-87.5 -72.5l139 -139q44 61 68 135l61 -62q-25 -75 -69 -133zM334 489q0 32 -26.5 58
t-61.5 26q-33 0 -56.5 -26.5t-23.5 -57.5q0 -24 17.5 -48.5t55.5 -61.5q45 23 70 52.5t25 57.5zM378 117l-161 161q-45 -22 -65.5 -48t-20.5 -65q0 -41 34 -69.5t82 -28.5q68 0 131 50z" />
    <glyph glyph-name="quotesingle" unicode="'" horiz-adv-x="159" 
d="M120 712l-18 -229h-48l-15 229h81z" />
    <glyph glyph-name="parenleft" unicode="(" horiz-adv-x="270" 
d="M246 691q-115 -209 -115 -449q0 -245 110 -469l-94 21q-52 102 -78.5 206t-26.5 241q0 259 113 470z" />
    <glyph glyph-name="parenright" unicode=")" horiz-adv-x="270" 
d="M228 241q0 -258 -114 -470l-90 21q115 209 115 448q0 241 -110 470l94 -22q52 -102 78.5 -206t26.5 -241z" />
    <glyph glyph-name="asterisk" unicode="*" horiz-adv-x="416" 
d="M402 517l-142 -37l83 -101l-56 -62l-80 123l-69 -109l-76 35l93 114l-125 32l9 82l135 -54l-8 129l83 19l-10 -148l119 50z" />
    <glyph glyph-name="plus" unicode="+" horiz-adv-x="454" 
d="M414 238h-144v-137h-85v137h-145v78h145v137h85v-137h144v-78z" />
    <glyph glyph-name="comma" unicode="," horiz-adv-x="197" 
d="M159 50q0 -30 -33.5 -89t-69.5 -92l-35 6q56 72 65 127q-14 2 -31.5 19t-17.5 29q0 16 23 38t38 22q14 0 37.5 -22t23.5 -38z" />
    <glyph glyph-name="hyphen" unicode="-" horiz-adv-x="330" 
d="M290 238h-250v78h250v-78z" />
    <glyph glyph-name="period" unicode="." horiz-adv-x="197" 
d="M159 50q0 -15 -23 -38t-38 -23t-38 23t-23 38q0 14 23 37t38 23t38 -23t23 -37z" />
    <glyph glyph-name="slash" unicode="/" horiz-adv-x="617" 
d="M599 627l-520 -645l-61 49l523 644z" />
    <glyph glyph-name="zero" unicode="0" horiz-adv-x="554" 
d="M514 320q0 -163 -69.5 -247.5t-167.5 -84.5q-99 0 -168 84t-69 248q0 163 69 247t168 84q98 0 167.5 -84.5t69.5 -246.5zM422 320q0 129 -42 189.5t-103 60.5q-62 0 -103.5 -60.5t-41.5 -189.5q0 -130 41.5 -190.5t103.5 -60.5q61 0 103 60.5t42 190.5z" />
    <glyph glyph-name="one" unicode="1" horiz-adv-x="331" 
d="M241 0h-91v569l-132 -13l17 76l206 19v-651z" />
    <glyph glyph-name="two" unicode="2" horiz-adv-x="481" 
d="M444 0h-415v18q289 305 289 435q0 58 -32.5 88t-83.5 30q-64 0 -134 -46l-19 80q71 46 153 46q93 0 150.5 -52.5t57.5 -148.5q0 -81 -72.5 -189t-148.5 -183h255v-78z" />
    <glyph glyph-name="three" unicode="3" horiz-adv-x="423" 
d="M383 189q0 -89 -61.5 -144.5t-170.5 -55.5q-51 0 -99 19l-21 92q55 -31 116 -31q58 0 101 33.5t43 97.5q0 50 -39.5 87t-93.5 37q-11 0 -18 -1l-18 75q51 10 84.5 38t33.5 63q0 33 -23.5 53t-58.5 20q-53 0 -103 -29l-16 77q56 31 122 31q74 0 122 -40.5t48 -103.5
q0 -46 -26 -82.5t-58 -45.5q54 -13 95 -62.5t41 -127.5z" />
    <glyph glyph-name="four" unicode="4" horiz-adv-x="496" 
d="M450 171h-75v-171h-91v171h-255l-16 72l301 395h61v-393h75v-74zM285 478l-2 1q-17 -27 -57 -80l-118 -154h176v155q0 50 1 78z" />
    <glyph glyph-name="five" unicode="5" horiz-adv-x="450" 
d="M410 195q0 -87 -59 -146.5t-165 -59.5q-72 0 -116 23l-21 92q60 -35 132 -35q58 0 97.5 34.5t39.5 92.5q0 59 -39 95t-95 36q-64 0 -110 -17l10 328h279l-17 -78h-175l-4 -155q16 2 26 2q92 0 154.5 -58t62.5 -154z" />
    <glyph glyph-name="six" unicode="6" horiz-adv-x="509" 
d="M469 197q0 -90 -60 -149t-152 -59t-154.5 61.5t-62.5 169.5q0 127 83.5 250.5t212.5 189.5l90 -42q-185 -89 -263 -249q34 34 101 34q90 0 147.5 -59t57.5 -147zM377 196q0 54 -33.5 90.5t-85.5 36.5q-97 0 -123 -85q-2 -9 -2 -37q0 -54 38 -93t88 -39t84 35.5t34 91.5z
" />
    <glyph glyph-name="seven" unicode="7" horiz-adv-x="462" 
d="M454 638l-274 -638h-98l242 560h-293v78h423z" />
    <glyph glyph-name="eight" unicode="8" horiz-adv-x="507" 
d="M467 177q0 -86 -62 -137.5t-152 -51.5t-151.5 51.5t-61.5 137.5q0 64 39.5 109.5t81.5 62.5q-37 15 -65 53t-28 87q0 71 52.5 116.5t132.5 45.5t133 -45.5t53 -116.5q0 -48 -28 -85t-65 -53q42 -15 81.5 -62.5t39.5 -111.5zM352 487q0 37 -28.5 62t-69.5 25
q-40 0 -68.5 -25t-28.5 -62q0 -33 28 -59.5t73 -38.5q44 13 69 39t25 59zM375 180q0 45 -39.5 78t-89.5 46q-48 -14 -84 -46.5t-36 -77.5q0 -48 36.5 -80t87.5 -32q52 0 88.5 32t36.5 80z" />
    <glyph glyph-name="nine" unicode="9" horiz-adv-x="509" 
d="M469 420q0 -127 -83.5 -250.5t-212.5 -189.5l-90 42q185 89 263 249q-34 -34 -101 -34q-90 0 -147.5 59t-57.5 147q0 90 60 149t152 59t154.5 -61.5t62.5 -169.5zM376 439q0 54 -38 93t-88 39t-84 -35.5t-34 -91.5q0 -54 33.5 -90.5t85.5 -36.5q97 0 123 85q2 9 2 37z
" />
    <glyph glyph-name="colon" unicode=":" horiz-adv-x="197" 
d="M159 403q0 -14 -23 -37t-38 -23t-38 23t-23 37q0 15 23 38t38 23t38 -23t23 -38zM159 50q0 -15 -23 -38t-38 -23t-38 23t-23 38q0 14 23 37t38 23t38 -23t23 -37z" />
    <glyph glyph-name="semicolon" unicode=";" horiz-adv-x="197" 
d="M159 403q0 -14 -23 -37t-38 -23t-38 23t-23 37q0 15 23 38t38 23t38 -23t23 -38zM159 50q0 -30 -33.5 -89t-69.5 -92l-35 6q56 72 65 127q-14 2 -31.5 19t-17.5 29q0 16 23 38t38 22q14 0 37.5 -22t23.5 -38z" />
    <glyph glyph-name="less" unicode="&#x3c;" horiz-adv-x="358" 
d="M278 155l-59 -58l-180 180l180 180l59 -58l-121 -122z" />
    <glyph glyph-name="equal" unicode="=" horiz-adv-x="454" 
d="M414 324h-374v78h374v-78zM414 152h-374v78h374v-78z" />
    <glyph glyph-name="greater" unicode="&#x3e;" horiz-adv-x="358" 
d="M319 277l-180 -180l-59 58l121 122l-121 122l59 58z" />
    <glyph glyph-name="question" unicode="?" horiz-adv-x="392" 
d="M352 513q0 -46 -22.5 -85t-70.5 -91q-51 -55 -51 -118q0 -43 3 -58l-75 17q-7 30 -7 53q0 97 63 163q34 36 49.5 64.5t15.5 65.5q0 33 -27 61t-72 28q-65 0 -118 -50l-18 83q49 47 135 47q87 0 141 -48t54 -132zM239 50q0 -15 -22.5 -38t-38.5 -23q-15 0 -38 23t-23 38
q0 14 23 37t38 23q16 0 38.5 -23t22.5 -37z" />
    <glyph glyph-name="at" unicode="@" horiz-adv-x="766" 
d="M726 383q0 -91 -53.5 -169.5t-142.5 -78.5q-28 0 -48 18t-22 51q-38 -69 -130 -69q-46 0 -80 35.5t-34 96.5q0 101 71 167t161 66q72 0 111 -39l-34 -213q-1 -4 -1 -11q0 -30 19 -30q36 0 73.5 53.5t37.5 124.5q0 88 -61.5 144t-160.5 56q-129 0 -223 -93t-94 -226
q0 -103 58.5 -155.5t145.5 -52.5q70 0 110 35l-20 -79q-33 -25 -104 -25q-114 0 -189.5 77t-75.5 200q0 160 117.5 273t281.5 113q130 0 208.5 -77.5t78.5 -191.5zM473 424q-14 6 -31 6q-58 0 -101.5 -46.5t-43.5 -114.5q0 -65 57 -65q34 0 64 37.5t41 100.5z" />
    <glyph glyph-name="A" unicode="A" horiz-adv-x="619" 
d="M599 0h-98l-69 165h-248l-69 -165h-95l272 647h35zM399 242l-63 156q-13 29 -27 78h-2q-10 -38 -27 -78l-63 -156h182z" />
    <glyph glyph-name="B" unicode="B" horiz-adv-x="521" 
d="M481 194q0 -92 -63.5 -143t-145.5 -51h-207v638h178q70 0 124.5 -44t54.5 -123q0 -37 -16 -68.5t-43 -43.5q47 -14 82.5 -60t35.5 -105zM324 471q0 43 -27.5 64t-69.5 21h-66v-168h66q42 0 69.5 20.5t27.5 62.5zM382 194q0 54 -38 83t-92 29h-91v-224h91q55 0 92.5 28.5
t37.5 83.5z" />
    <glyph glyph-name="C" unicode="C" horiz-adv-x="600" 
d="M572 609l-17 -84q-65 42 -160 42q-65 0 -122 -26t-96 -84.5t-39 -137.5q0 -117 76.5 -182t180.5 -65q109 0 176 40l-20 -93q-59 -31 -167 -31q-84 0 -160.5 36t-130 113.5t-53.5 181.5q0 79 31 144.5t81.5 105t110.5 61t121 21.5q114 0 188 -42z" />
    <glyph glyph-name="D" unicode="D" horiz-adv-x="646" 
d="M606 319q0 -99 -49.5 -173t-127 -110t-168.5 -36h-196v638h196q91 0 168.5 -36t127 -110t49.5 -173zM507 319q0 116 -74 176.5t-189 60.5h-83v-474h83q115 0 189 60.5t74 176.5z" />
    <glyph glyph-name="E" unicode="E" horiz-adv-x="465" 
d="M444 0h-379v638h344v-83h-247v-193h207v-83h-207v-196h282v-83z" />
    <glyph glyph-name="F" unicode="F" horiz-adv-x="432" 
d="M418 555h-256v-193h216v-83h-216v-279h-97v638h353v-83z" />
    <glyph glyph-name="G" unicode="G" horiz-adv-x="681" 
d="M623 57q-86 -69 -233 -69q-89 0 -167 36.5t-130.5 114t-52.5 180.5q0 79 31 144.5t81.5 105t110.5 61t121 21.5q126 0 206 -51l-18 -84q-80 51 -177 51q-65 0 -122 -26.5t-96 -84.5t-39 -138q0 -117 76 -181.5t182 -64.5q88 0 135 33v133h-147v78h239v-259z" />
    <glyph glyph-name="H" unicode="H" horiz-adv-x="653" 
d="M588 0h-97v279h-329v-279h-97v638h97v-276h329v276h97v-638z" />
    <glyph glyph-name="I" unicode="I" horiz-adv-x="257" 
d="M177 0h-97v638h97v-638z" />
    <glyph glyph-name="J" unicode="J" horiz-adv-x="272" 
d="M192 126q0 -110 -57.5 -176t-132.5 -80l-63 64q156 28 156 202v502h97v-512z" />
    <glyph glyph-name="K" unicode="K" horiz-adv-x="544" 
d="M532 0h-119l-251 299v-299h-97v638h97v-301l252 301h112l-265 -315z" />
    <glyph glyph-name="L" unicode="L" horiz-adv-x="448" 
d="M443 0h-378v638h97v-555h281v-83z" />
    <glyph glyph-name="M" unicode="M" horiz-adv-x="830" 
d="M785 0h-92l-26 288q-7 76 -10 145h-2q-25 -56 -72 -148l-148 -290h-36l-150 290q-25 48 -71 146h-2q-1 -34 -10 -143l-25 -288h-86l55 638h60l170 -328q55 -106 80 -164h2q22 55 78 164l168 328h60z" />
    <glyph glyph-name="N" unicode="N" horiz-adv-x="702" 
d="M637 -14h-29l-299 327q-58 63 -147 168l-2 -1q2 -58 2 -160v-320h-97v638h67l274 -300q97 -108 134 -153l2 1q-2 49 -2 150v302h97v-652z" />
    <glyph glyph-name="O" unicode="O" horiz-adv-x="756" 
d="M716 320q0 -99 -49.5 -176.5t-125.5 -116.5t-163 -39t-163 39t-125.5 116.5t-49.5 176.5q0 147 101.5 239t236.5 92t236.5 -92t101.5 -239zM618 320q0 112 -73 179.5t-167 67.5q-95 0 -167.5 -67.5t-72.5 -179.5q0 -113 72.5 -180.5t167.5 -67.5q94 0 167 68t73 180z" />
    <glyph glyph-name="P" unicode="P" horiz-adv-x="467" 
d="M449 459q0 -85 -58.5 -132t-133.5 -47h-96v-280h-96v638h192q75 0 133.5 -47t58.5 -132zM350 459q0 47 -32 72t-78 25h-79v-194h79q46 0 78 25t32 72z" />
    <glyph glyph-name="Q" unicode="Q" horiz-adv-x="756" 
d="M757 -42l-61 -85q-12 -3 -27 -3q-87 0 -168 44q-79 41 -156 76q-125 11 -215 101t-90 229q0 147 101.5 239t236.5 92t236.5 -92t101.5 -239q0 -113 -64.5 -197.5t-160.5 -112.5v-2q18 -4 79 -33t119 -29q38 0 68 12zM618 320q0 112 -73 179.5t-167 67.5
q-95 0 -167.5 -67.5t-72.5 -179.5q0 -113 72.5 -180.5t167.5 -67.5q94 0 167 68t73 180z" />
    <glyph glyph-name="R" unicode="R" horiz-adv-x="555" 
d="M565 0h-113l-201 280h-90v-280h-96v638h202q75 0 133.5 -47t58.5 -132q0 -60 -31 -102t-81 -62zM360 459q0 47 -32 72t-78 25h-89v-194h89q46 0 78 25t32 72z" />
    <glyph glyph-name="S" unicode="S" horiz-adv-x="477" 
d="M438 180q0 -88 -57 -140t-163 -52q-100 0 -165 43l-22 106q92 -65 192 -65q53 0 85.5 27.5t32.5 71.5q0 81 -111 117q-174 56 -174 189q0 72 52.5 123t149.5 51q89 0 139 -37l-19 -80q-51 37 -124 37q-47 0 -76 -25.5t-29 -61.5q0 -64 103 -99q90 -31 138 -79.5
t48 -125.5z" />
    <glyph glyph-name="T" unicode="T" horiz-adv-x="517" 
d="M512 555h-205v-555h-97v555h-205v83h507v-83z" />
    <glyph glyph-name="U" unicode="U" horiz-adv-x="650" 
d="M585 225q0 -109 -73 -173t-187 -64t-187 64t-73 173v413h97v-403q0 -74 41.5 -117.5t122.5 -43.5t123 43.5t42 117.5v403h94v-413z" />
    <glyph glyph-name="V" unicode="V" horiz-adv-x="558" 
d="M548 638l-253 -647h-31l-254 647h102l118 -304q28 -72 53 -152h2q29 92 53 152l118 304h92z" />
    <glyph glyph-name="W" unicode="W" horiz-adv-x="899" 
d="M884 638l-227 -647h-33l-119 341q-33 95 -55 171h-2q-25 -86 -55 -171l-119 -341h-33l-226 647h97l103 -294q35 -98 47 -146h2q17 62 46 146l102 294h83l103 -294q27 -79 45 -146h2q11 43 47 146l103 294h89z" />
    <glyph glyph-name="X" unicode="X" horiz-adv-x="574" 
d="M549 0h-110l-104 168q-24 39 -49 84h-2q-16 -29 -50 -84l-106 -168h-103l204 323l-195 315h110l99 -160q34 -55 46 -79h2q17 32 46 79l100 160h103l-194 -309z" />
    <glyph glyph-name="Y" unicode="Y" horiz-adv-x="604" 
d="M594 638l-245 -344v-294h-95v294l-244 344h106l128 -180q25 -35 60 -90h2q3 5 61 90l128 180h99z" />
    <glyph glyph-name="Z" unicode="Z" horiz-adv-x="508" 
d="M482 0h-452v23l202 355q82 142 105 178l-1 1h-290v81h425v-23l-204 -356q-72 -124 -104 -177l1 -1h318v-81z" />
    <glyph glyph-name="bracketleft" unicode="[" horiz-adv-x="298" 
d="M268 -218h-212v918h212v-76h-123v-766h123v-76z" />
    <glyph glyph-name="backslash" unicode="\" horiz-adv-x="617" 
d="M599 31l-61 -49l-520 645l58 48z" />
    <glyph glyph-name="bracketright" unicode="]" horiz-adv-x="298" 
d="M248 -218h-212v76h123v766h-123v76h212v-918z" />
    <glyph glyph-name="asciicircum" unicode="^" horiz-adv-x="371" 
d="M339 554l-56 -54q-59 28 -97 67q-40 -40 -97 -67l-57 54q86 38 154 133q68 -96 153 -133z" />
    <glyph glyph-name="underscore" unicode="_" horiz-adv-x="500" 
d="M502 -231h-503v78h503v-78z" />
    <glyph glyph-name="grave" unicode="`" 
d="M311 563l-50 -49q-102 28 -167 72l20 82q74 -70 197 -105z" />
    <glyph glyph-name="a" unicode="a" horiz-adv-x="456" 
d="M432 47l-58 -58q-49 11 -66 58q-44 -58 -127 -58q-65 0 -105.5 41t-40.5 98q0 63 43.5 101t105.5 44l106 10v29q0 33 -21.5 53.5t-66.5 20.5q-71 0 -125 -36l-18 75q59 39 148 39q78 0 126 -43t48 -121v-183q0 -30 14 -48t37 -22zM290 168v40l-90 -8q-38 -4 -58 -25
t-20 -48q0 -25 18 -43t45 -18q38 0 71.5 30.5t33.5 71.5z" />
    <glyph glyph-name="b" unicode="b" horiz-adv-x="512" 
d="M477 230q0 -111 -71.5 -176t-187.5 -65q-89 0 -158 42v681h91v-263q32 15 79 15q100 0 173.5 -65.5t73.5 -168.5zM385 230q0 68 -47 111t-108 43q-47 0 -79 -20v-283q32 -12 67 -12q78 0 122.5 43.5t44.5 117.5z" />
    <glyph glyph-name="c" unicode="c" horiz-adv-x="458" 
d="M426 430l-17 -80q-54 34 -122 34q-65 0 -112.5 -43.5t-47.5 -114.5q0 -70 48.5 -113.5t113.5 -43.5q62 0 130 32l-19 -89q-51 -23 -119 -23q-98 0 -172 65.5t-74 171.5q0 107 74 172.5t172 65.5q83 0 145 -34z" />
    <glyph glyph-name="d" unicode="d" horiz-adv-x="538" 
d="M478 0h-78l-3 36q-44 -47 -140 -47q-82 0 -152 64t-70 173q0 104 68.5 171t170.5 67q67 0 113 -30v278h91v-712zM387 115v227q-44 42 -113 42q-62 0 -104.5 -44t-42.5 -114q0 -69 42.5 -113t104.5 -44q72 0 113 46z" />
    <glyph glyph-name="e" unicode="e" horiz-adv-x="491" 
d="M456 292q0 -22 -3 -37l-51 -51h-273q3 -49 45.5 -92t115.5 -43q81 0 145 46l-23 -97q-55 -29 -134 -29q-100 0 -171.5 67t-71.5 170q0 108 69.5 173t155.5 65q89 0 142.5 -52t53.5 -120zM364 290q0 36 -28 66t-71 30q-44 0 -82.5 -31t-47.5 -77h228q1 4 1 12z" />
    <glyph glyph-name="f" unicode="f" horiz-adv-x="335" 
d="M367 701l-16 -77q-33 16 -78 16q-44 0 -69.5 -34.5t-25.5 -82.5v-70h131l-15 -73h-116v-380h-91v380h-77v73h77v42q0 110 52 165.5t151 55.5q41 0 77 -15z" />
    <glyph glyph-name="g" unicode="g" horiz-adv-x="460" 
d="M431 -81q0 -65 -56 -107.5t-146 -42.5q-92 0 -149 46t-57 117q0 49 27.5 85.5t66.5 50.5l-46 46q0 23 15 43t36 31q-67 48 -67 123q0 67 47.5 110t122.5 43q30 0 56 -7q23 -6 58 -6t67 16l17 -75q-14 -10 -45 -12q16 -27 16 -69q0 -63 -46 -108t-123 -45q-58 0 -58 -25
q0 -11 13 -16l124 -43q63 -22 95 -58.5t32 -96.5zM311 311q0 32 -24.5 55t-61.5 23t-62 -23.5t-25 -54.5q0 -33 25 -55.5t62 -22.5q35 0 60.5 23t25.5 55zM347 -80q0 56 -70 77l-79 23q-42 0 -68 -25t-26 -63q0 -37 32.5 -63.5t90.5 -26.5q56 0 88 24t32 54z" />
    <glyph glyph-name="h" unicode="h" horiz-adv-x="511" 
d="M456 0h-91v291q0 40 -26 67.5t-79 27.5q-52 0 -80.5 -28.5t-28.5 -66.5v-291h-91v712h91v-1v-1v-1v-1v-1v-1v-1v-1v-1v-1v-1v-1v-1v-1v-1v-1v-1v-1v-1v-1v-1v-1v-1v-1v-1v-1v-1v-1v-1v-1v-1v-1v-1v-1v-1v-1v-1v-1v-1v-1v-1v-1v-1v-1v-1v-1v-1v-1v-2v-1v-1v-1v-1v-1v-1v-1
v-1v-1v-1v-1v-1v-2v-1v-1v-1v-1v-1v-1v-2v-1v-1v-1v-1v-2v-1v-1v-1v-1v-2v-1v-1v-1v-2v-1v-1v-2v-1v-1v-1v-2v-1v-1v-2v-1v-1v-2v-1v-1v-2v-1v-2v-1v-1v-2v-1v-1v-2v-1v-2v-1v-2v-1v-1v-2v-1v-2v-1v-2v-1v-2v-1v-2v-1v-2v-1v-2v-1v-2v-1v-2v-1v-2v-1v-2v-1v-2v-2v-1v-2v-1
v-2v-1v-2v-2v-1v-2v-1v-2v-2v-1v-2v-2v-1v-2v-2v-1v-2v-1v-2v-2v-2v-1v-2v-2v-1v-2v-2v-1v-2v-2v-2v-1v-2v-2v-2v-1v-2v-2v-2v-1v-2v-2v-2v-1v-2v-2v-2v-2v-2v-1v-2v-2v-2v-2v-2v-1v-2v-2v-2v-2v-2v-2v-1v-2v-2v-2v-2v-9q49 48 133 48q76 0 124 -44.5t48 -119.5v-300z" />
    <glyph glyph-name="i" unicode="i" horiz-adv-x="242" 
d="M177 595q0 -14 -21 -34.5t-35 -20.5q-13 0 -34 21t-21 34q0 14 20.5 35t34.5 21t35 -21t21 -35zM167 0h-92v453h92v-453z" />
    <glyph glyph-name="j" unicode="j" horiz-adv-x="242" 
d="M176 595q0 -13 -21 -34t-34 -21q-14 0 -35 20.5t-21 34.5t21 35t35 21t34.5 -21t20.5 -35zM167 -49q0 -68 -40 -119t-92 -63l-58 57q98 22 98 132v495h92v-502z" />
    <glyph glyph-name="k" unicode="k" horiz-adv-x="459" 
d="M458 0h-118l-189 213v-213h-91v712h91v-475l193 216h108l-198 -224z" />
    <glyph glyph-name="l" unicode="l" horiz-adv-x="263" 
d="M227 44l-62 -62q-33 9 -61.5 38.5t-28.5 86.5v605h91v-593q0 -29 19 -50t42 -25z" />
    <glyph glyph-name="m" unicode="m" horiz-adv-x="782" 
d="M727 0h-91v310q0 35 -25.5 55t-73.5 20q-46 0 -73 -21.5t-27 -53.5v-310h-91v310q0 35 -26 55t-74 20q-46 0 -73 -21.5t-27 -53.5v-310h-91v453h80l4 -45q28 30 57.5 43t80.5 13q40 0 74.5 -18.5t52.5 -45.5q57 64 163 64q69 0 114.5 -41.5t45.5 -104.5v-318z" />
    <glyph glyph-name="n" unicode="n" horiz-adv-x="506" 
d="M451 0h-91v291q0 40 -26 67.5t-79 27.5q-52 0 -80.5 -28.5t-28.5 -66.5v-291h-91v453h80l4 -45q28 30 58.5 43t81.5 13q76 0 124 -44.5t48 -119.5v-300z" />
    <glyph glyph-name="o" unicode="o" horiz-adv-x="551" 
d="M516 226q0 -104 -69 -170.5t-171 -66.5q-103 0 -172 66.5t-69 170.5t69 171t172 67t171.5 -66.5t68.5 -171.5zM424 226q0 69 -43.5 113.5t-104.5 44.5q-62 0 -105.5 -44t-43.5 -114q0 -69 43.5 -113t105.5 -44q61 0 104.5 44t43.5 113z" />
    <glyph glyph-name="p" unicode="p" horiz-adv-x="538" 
d="M503 227q0 -104 -68.5 -171t-170.5 -67q-67 0 -113 30v-250h-91v684h78l3 -36q44 47 140 47q82 0 152 -64t70 -173zM411 227q0 69 -42.5 113t-104.5 44q-72 0 -113 -46v-227q44 -42 113 -42q62 0 104.5 44t42.5 114z" />
    <glyph glyph-name="q" unicode="q" horiz-adv-x="512" 
d="M452 -231h-91v235q-36 -15 -79 -15q-101 0 -174 66.5t-73 174.5q0 107 70.5 170.5t170.5 63.5q60 0 114 -25l40 23h22v-693zM361 89v274q-34 21 -85 21q-62 0 -105.5 -42.5t-43.5 -111.5q0 -73 46.5 -117t108.5 -44q44 0 79 20z" />
    <glyph glyph-name="r" unicode="r" horiz-adv-x="341" 
d="M326 382h-9q-65 0 -113 -40t-48 -128v-214h-91v453h86l4 -71q33 77 154 77z" />
    <glyph glyph-name="s" unicode="s" horiz-adv-x="375" 
d="M340 124q0 -58 -43 -96.5t-122 -38.5q-77 0 -127 33l-21 100q65 -56 150 -56q32 0 52 15.5t20 38.5q0 43 -65 66q-71 26 -105.5 60.5t-34.5 87.5q0 57 42.5 93.5t109.5 36.5q35 0 68.5 -9.5t49.5 -19.5l-17 -76q-41 29 -102 29q-28 0 -45.5 -14t-17.5 -37q0 -21 15.5 -34
t50.5 -26q72 -26 107 -61t35 -92z" />
    <glyph glyph-name="t" unicode="t" horiz-adv-x="360" 
d="M348 453l-16 -73h-144v-252q0 -27 19 -42t48 -15q30 0 50 7l-18 -81q-13 -4 -41 -4q-64 0 -106 36.5t-42 101.5v249h-89v73h89v92l90 47v-139h160z" />
    <glyph glyph-name="u" unicode="u" horiz-adv-x="506" 
d="M451 0h-80l-4 45q-28 -30 -58.5 -43t-81.5 -13q-76 0 -124 44.5t-48 119.5v300h91v-291q0 -40 26 -67.5t79 -27.5q52 0 80.5 28.5t28.5 66.5v291h91v-453z" />
    <glyph glyph-name="v" unicode="v" horiz-adv-x="466" 
d="M441 453l-190 -461h-37l-189 461h92l82 -200q23 -55 37 -99h2q14 44 37 99l81 200h85z" />
    <glyph glyph-name="w" unicode="w" horiz-adv-x="709" 
d="M679 453l-171 -461h-33l-82 218q-20 53 -38 112h-2q-17 -59 -37 -110l-82 -220h-33l-171 461h86l71 -192q19 -53 31 -95h2q29 88 32 95l71 192h66l72 -192q14 -38 31 -95h2q9 31 32 95l71 192h82z" />
    <glyph glyph-name="x" unicode="x" horiz-adv-x="445" 
d="M415 0h-102l-62 104q-15 25 -29 53h-2q-2 -4 -30 -53l-62 -104h-98l140 229l-134 224h101l58 -99q18 -32 27 -49h2q18 32 28 49l58 99h98l-133 -220z" />
    <glyph glyph-name="y" unicode="y" horiz-adv-x="479" 
d="M454 453l-167 -409q-49 -119 -104.5 -183.5t-126.5 -96.5l-55 56q64 24 109 74.5t84 145.5l-169 413h94l84 -206q21 -51 39 -102h2q10 28 38 99l85 209h87z" />
    <glyph glyph-name="z" unicode="z" horiz-adv-x="420" 
d="M390 0h-362v18l136 239q43 75 71 119l-1 1h-192v76h330v-18l-137 -239q-13 -24 -71 -119l1 -1h225v-76z" />
    <glyph glyph-name="braceleft" unicode="{" horiz-adv-x="348" 
d="M318 -149l-16 -70q-97 0 -144 68t-47 179q0 156 -91 212q91 58 91 213q0 110 47 178t144 68l16 -70q-118 0 -118 -180q0 -133 -77 -209q77 -73 77 -209q0 -180 118 -180z" />
    <glyph glyph-name="bar" unicode="|" horiz-adv-x="238" 
d="M158 -231h-78v943h78v-943z" />
    <glyph glyph-name="braceright" unicode="}" horiz-adv-x="348" 
d="M328 240q-91 -56 -91 -212q0 -111 -47 -179t-144 -68l-16 70q118 0 118 180q0 136 77 209q-77 76 -77 209q0 180 -118 180l16 70q97 0 144 -68t47 -178q0 -155 91 -213z" />
    <glyph glyph-name="asciitilde" unicode="~" 
d="M342 325l-18 -70q-65 -44 -136 -49l-15 61q-55 -8 -113 -42l18 72q79 44 136 48l15 -63q54 9 113 43z" />
    <glyph glyph-name="nbspace" unicode="&#xa0;" horiz-adv-x="115" 
 />
    <glyph glyph-name="exclamdown" unicode="&#xa1;" horiz-adv-x="267" 
d="M191 590q0 -14 -23 -37t-38 -23t-38 23t-23 37q0 15 23 38t38 23t38 -23t23 -38zM187 -42h-107l16 519l75 -17z" />
    <glyph glyph-name="cent" unicode="&#xa2;" horiz-adv-x="458" 
d="M426 608l-17 -80q-54 34 -122 34q-65 0 -112.5 -43.5t-47.5 -114.5q0 -70 48.5 -113.5t113.5 -43.5q62 0 130 32l-19 -89q-43 -19 -94 -22v-86h-57v87q-89 11 -151.5 74.5t-62.5 160.5q0 98 62.5 161.5t151.5 74.5v97h57v-96q67 -4 120 -33z" />
    <glyph glyph-name="sterling" unicode="&#xa3;" horiz-adv-x="418" 
d="M395 68l-11 -79q-63 24 -143 24t-138 -20l-68 36q57 81 57 223v39h-77v57h77v78q0 110 52 165.5t151 55.5q41 0 77 -15l-16 -77q-33 16 -78 16q-44 0 -70 -34.5t-26 -82.5v-106h144l-6 -57h-138v-47q0 -111 -27 -161q42 6 89 6q84 0 151 -21z" />
    <glyph glyph-name="currency" unicode="&#xa4;" horiz-adv-x="484" 
d="M444 111l-41 -40l-65 65q-45 -29 -96 -29q-53 0 -99 31l-65 -65l-40 41l65 65q-31 43 -31 98q0 51 29 95l-16 16l-32 32l-16 17l40 41l64 -64q44 33 101 33q55 0 98 -31l64 64l40 -40l-63 -64q31 -43 31 -99q0 -57 -33 -101zM360 277q0 48 -34.5 82t-83.5 34t-82.5 -34
t-33.5 -82q0 -49 33.5 -83t82.5 -34t83.5 34t34.5 83z" />
    <glyph glyph-name="yen" unicode="&#xa5;" horiz-adv-x="604" 
d="M594 638l-176 -247h66v-57h-107l-28 -39v-18h135v-57h-135v-220h-95v220h-136v57h136v16l-27 41h-109v57h67l-175 247h108l128 -180q25 -35 60 -90h2q3 5 61 90l128 180h97z" />
    <glyph glyph-name="brokenbar" unicode="&#xa6;" horiz-adv-x="238" 
d="M158 300h-78v412h78v-412zM158 -231h-78v412h78v-412z" />
    <glyph glyph-name="section" unicode="&#xa7;" horiz-adv-x="465" 
d="M413 -53q0 -69 -51.5 -118.5t-138.5 -49.5q-86 0 -144 35l16 82q62 -36 126 -36q48 0 75.5 24.5t27.5 62.5q0 31 -21 53l-244 254l30 131q-30 37 -30 96q0 68 52 118t139 50q84 0 145 -34l-18 -83q-56 36 -125 36q-48 0 -75.5 -24.5t-27.5 -62.5q0 -30 21 -53l243 -254
l-30 -131q30 -37 30 -96zM353 135l-220 226l-14 -66l219 -227z" />
    <glyph glyph-name="dieresis" unicode="&#xa8;" 
d="M328 566q0 -12 -19.5 -32t-32.5 -20t-32.5 20t-19.5 32q0 14 19.5 33.5t32.5 19.5t32.5 -19.5t19.5 -33.5zM175 566q0 -12 -19.5 -32t-32.5 -20q-12 0 -32 20t-20 32q0 13 20 33t32 20q13 0 32.5 -19.5t19.5 -33.5z" />
    <glyph glyph-name="copyright" unicode="&#xa9;" horiz-adv-x="600" 
d="M565 250q0 -114 -76 -188.5t-189 -74.5q-112 0 -188.5 74.5t-76.5 188.5q0 115 76.5 189t188.5 74q113 0 189 -74t76 -189zM509 250q0 91 -59 151.5t-150 60.5q-92 0 -150.5 -60.5t-58.5 -151.5t58.5 -151.5t150.5 -60.5q91 0 150 60.5t59 151.5zM411 361l-11 -60
q-32 21 -78 21q-32 0 -54.5 -19.5t-22.5 -54.5t22.5 -56.5t54.5 -21.5q42 0 83 29l-15 -75q-34 -19 -71 -19q-59 0 -103.5 39.5t-44.5 103.5q0 62 45 101.5t103 39.5q55 0 92 -28z" />
    <glyph glyph-name="ordfeminine" unicode="&#xaa;" horiz-adv-x="374" 
d="M366 324l-54 -53q-39 7 -56 42q-38 -42 -100 -42q-54 0 -87.5 34t-33.5 82q0 45 35.5 77.5t81.5 36.5l87 8v20q0 53 -66 53q-57 0 -102 -30l-17 67q49 32 123 32q64 0 103.5 -34.5t39.5 -97.5v-143q0 -45 46 -52zM241 151q0 -12 -19.5 -32t-32.5 -20q-12 0 -32 20t-20 32
q0 13 20 33t32 20q13 0 32.5 -19.5t19.5 -33.5zM239 416v30l-74 -8q-24 -3 -38 -19.5t-14 -37.5q0 -19 13 -33.5t33 -14.5q29 0 54.5 24t25.5 59z" />
    <glyph glyph-name="guillemotleft" unicode="&#xab;" horiz-adv-x="440" 
d="M419 158l-52 -52q-63 104 -159 171q99 72 159 171l52 -52q-35 -65 -90 -119q57 -55 90 -119zM209 158l-52 -52q-64 105 -158 171q97 71 158 171l52 -52q-30 -59 -90 -119q61 -61 90 -119z" />
    <glyph glyph-name="logicalnot" unicode="&#xac;" horiz-adv-x="500" 
d="M440 135h-80v103h-320v78h400v-181z" />
    <glyph glyph-name="registered" unicode="&#xae;" horiz-adv-x="480" 
d="M445 448q0 -88 -59 -145.5t-146 -57.5q-88 0 -146.5 57t-58.5 146t58.5 146t146.5 57q87 0 146 -57.5t59 -145.5zM399 448q0 71 -45.5 116.5t-113.5 45.5q-70 0 -115.5 -45.5t-45.5 -116.5t45.5 -116.5t115.5 -45.5q68 0 113.5 45.5t45.5 116.5zM346 349l-40 -27l-65 99
h-30v-98h-48v250h78q33 0 57.5 -21t24.5 -55q0 -42 -36 -63zM275 497q0 34 -41 34h-23v-68h23q41 0 41 34z" />
    <glyph glyph-name="macron" unicode="&#xaf;" 
d="M292 525h-184v77h184v-77z" />
    <glyph glyph-name="degree" unicode="&#xb0;" horiz-adv-x="249" 
d="M228 552q0 -42 -30.5 -72t-72.5 -30t-72.5 30t-30.5 72t30.5 72t72.5 30t72.5 -30t30.5 -72zM177 552q0 23 -14.5 37.5t-37.5 14.5t-37.5 -14.5t-14.5 -37.5t14.5 -37.5t37.5 -14.5t37.5 14.5t14.5 37.5z" />
    <glyph glyph-name="plusminus" unicode="&#xb1;" horiz-adv-x="885" 
d="M849 47l-62 -62q-33 9 -61.5 38.5t-28.5 86.5v518q-25 12 -76 12q-55 0 -91.5 -40t-36.5 -108v-39h101l-16 -73h-85v-380h-91v380h-224v-380h-91v380h-77v73h77v34q0 100 52 156.5t144 56.5q62 0 107 -26l-18 -76q-41 26 -99 26q-44 0 -69.5 -34.5t-25.5 -82.5v-54h224
v19q0 115 65 179.5t168 64.5q94 0 153 -45v-549q0 -30 18.5 -50.5t42.5 -24.5z" />
    <glyph glyph-name="twosuperior" unicode="&#xb2;" horiz-adv-x="371" 
d="M316 249h-283v16q198 165 198 253q0 37 -23.5 58t-64.5 21q-48 0 -95 -27l-12 54q44 27 107 27q74 0 113 -36.5t39 -98.5q0 -46 -35 -102t-96 -111h152v-54z" />
    <glyph glyph-name="threesuperior" unicode="&#xb3;" horiz-adv-x="312" 
d="M271 377q0 -56 -39.5 -95t-109.5 -39q-46 0 -74 18l-14 62q38 -26 88 -26q34 0 59.5 22.5t25.5 57.5q0 29 -21.5 48t-54.5 19q-10 0 -20 -3l-12 54q30 5 52.5 23.5t22.5 37.5q0 18 -14 29.5t-35 11.5q-35 0 -72 -20l-12 54q38 20 84 20q51 0 82 -25.5t31 -69.5
q0 -24 -13 -43.5t-34 -28.5q31 -9 55.5 -37.5t24.5 -69.5z" />
    <glyph glyph-name="acute" unicode="&#xb4;" 
d="M305 586q-65 -44 -167 -72l-50 49q123 35 198 105z" />
    <glyph glyph-name="mu" unicode="&#xb5;" horiz-adv-x="550" 
d="M511 0h-472v453h472v-453zM482 29v355h-384l241 -170q-42 -17 -66.5 -45.5t-24.5 -56.5q0 -54 52 -83h182zM257 29q-39 16 -60 61l-129 271v-332h189z" />
    <glyph glyph-name="paragraph" unicode="&#xb6;" horiz-adv-x="440" 
d="M412 569h-70v-618q0 -68 -40 -119t-92 -63l-58 57q98 22 98 132v321h-9q-84 0 -143 47.5t-59 133.5t59 134.5t144 48.5h170v-74z" />
    <glyph glyph-name="periodcentered" unicode="&#xb7;" horiz-adv-x="197" 
d="M159 271q0 -15 -23 -38t-38 -23t-38 23t-23 38q0 14 23 37t38 23t38 -23t23 -37z" />
    <glyph glyph-name="cedilla" unicode="&#xb8;" 
d="M298 -128q0 -48 -33.5 -75.5t-76.5 -27.5q-40 0 -78 25l11 51q31 -22 68 -22q19 0 32.5 13t13.5 33q0 21 -16 34.5t-37 13.5q-24 0 -32 -3l16 86h38l-4 -27q37 -1 67.5 -29.5t30.5 -71.5z" />
    <glyph glyph-name="onesuperior" unicode="&#xb9;" horiz-adv-x="269" 
d="M183 249h-64v337l-82 -8l14 60l132 13v-402z" />
    <glyph glyph-name="ordmasculine" unicode="&#xba;" horiz-adv-x="455" 
d="M422 461q0 -83 -55.5 -136.5t-138.5 -53.5t-139 53.5t-56 136.5q0 84 55.5 137t139.5 53q83 0 138.5 -53t55.5 -137zM279 151q0 -12 -19.5 -32t-32.5 -20q-12 0 -32 20t-20 32q0 13 20 33t32 20q13 0 32.5 -19.5t19.5 -33.5zM342 461q0 54 -33.5 88.5t-80.5 34.5
q-48 0 -81.5 -34.5t-33.5 -88.5t33.5 -88.5t81.5 -34.5q47 0 80.5 34.5t33.5 88.5z" />
    <glyph glyph-name="guillemotright" unicode="&#xbb;" horiz-adv-x="440" 
d="M441 277q-95 -67 -158 -171l-52 52q30 60 89 119q-58 58 -89 119l52 52q60 -98 158 -171zM232 277q-96 -67 -159 -171l-52 52q31 61 90 119q-58 57 -90 119l52 52q60 -99 159 -171z" />
    <glyph glyph-name="onequarter" unicode="&#xbc;" horiz-adv-x="743" 
d="M687 117h-53v-117h-64v117h-168l-14 55l189 225h57v-226h53v-54zM622 625l-519 -641l-36 29l520 641zM183 249h-64v337l-82 -8l14 60l132 13v-402zM573 312l-2 1q-13 -23 -35 -49l-77 -93h111v94q0 23 3 47z" />
    <glyph glyph-name="onehalf" unicode="&#xbd;" horiz-adv-x="798" 
d="M751 0h-283v16q198 165 198 253q0 37 -23.5 58t-64.5 21q-48 0 -95 -27l-12 54q44 27 107 27q74 0 113 -36.5t39 -98.5q0 -46 -35 -102t-96 -111h152v-54zM622 625l-519 -641l-36 29l520 641zM183 249h-64v337l-82 -8l14 60l132 13v-402z" />
    <glyph glyph-name="threequarters" unicode="&#xbe;" horiz-adv-x="770" 
d="M727 117h-53v-117h-64v117h-168l-14 55l189 225h57v-226h53v-54zM662 625l-519 -641l-36 29l520 641zM271 377q0 -56 -39.5 -95t-109.5 -39q-46 0 -74 18l-14 62q38 -26 88 -26q34 0 59.5 22.5t25.5 57.5q0 29 -21.5 48t-54.5 19q-10 0 -20 -3l-12 54q30 5 52.5 23.5
t22.5 37.5q0 18 -14 29.5t-35 11.5q-35 0 -72 -20l-12 54q38 20 84 20q51 0 82 -25.5t31 -69.5q0 -24 -13 -43.5t-34 -28.5q31 -9 55.5 -37.5t24.5 -69.5zM613 312l-2 1q-13 -23 -35 -49l-77 -93h111v94q0 23 3 47z" />
    <glyph glyph-name="questiondown" unicode="&#xbf;" horiz-adv-x="392" 
d="M275 590q0 -14 -23 -37t-38 -23q-16 0 -38.5 23t-22.5 37q0 15 22.5 38t38.5 23q15 0 38 -23t23 -38zM370 -6q-49 -47 -135 -47q-87 0 -141 48t-54 132q0 46 22.5 85t70.5 91q51 55 51 118q0 43 -3 58l75 -17q7 -30 7 -53q0 -97 -63 -163q-34 -36 -49.5 -64.5
t-15.5 -65.5q0 -33 27 -61t72 -28q65 0 118 50z" />
    <glyph glyph-name="Agrave" unicode="&#xc0;" horiz-adv-x="619" 
d="M599 0h-98l-69 165h-248l-69 -165h-95l272 647h35zM399 242l-63 156q-13 29 -27 78h-2q-10 -38 -27 -78l-63 -156h182zM383 763l-50 -49q-102 28 -167 72l20 82q74 -70 197 -105z" />
    <glyph glyph-name="Aacute" unicode="&#xc1;" horiz-adv-x="619" 
d="M599 0h-98l-69 165h-248l-69 -165h-95l272 647h35zM399 242l-63 156q-13 29 -27 78h-2q-10 -38 -27 -78l-63 -156h182zM449 786q-65 -44 -167 -72l-50 49q123 35 198 105z" />
    <glyph glyph-name="Acircumflex" unicode="&#xc2;" horiz-adv-x="619" 
d="M599 0h-98l-69 165h-248l-69 -165h-95l272 647h35zM399 242l-63 156q-13 29 -27 78h-2q-10 -38 -27 -78l-63 -156h182zM442 761l-48 -47q-52 24 -83 58q-33 -34 -84 -58l-48 47q74 31 132 113q56 -82 131 -113z" />
    <glyph glyph-name="Atilde" unicode="&#xc3;" horiz-adv-x="619" 
d="M599 0h-98l-69 165h-248l-69 -165h-95l272 647h35zM399 242l-63 156q-13 29 -27 78h-2q-10 -38 -27 -78l-63 -156h182zM450 833l-18 -70q-65 -44 -136 -49l-15 61q-55 -8 -113 -42l18 72q79 44 136 48l15 -63q54 9 113 43z" />
    <glyph glyph-name="Adieresis" unicode="&#xc4;" horiz-adv-x="619" 
d="M599 0h-98l-69 165h-248l-69 -165h-95l272 647h35zM399 242l-63 156q-13 29 -27 78h-2q-10 -38 -27 -78l-63 -156h182zM440 766q0 -12 -19.5 -32t-32.5 -20t-32.5 20t-19.5 32q0 14 19.5 33.5t32.5 19.5t32.5 -19.5t19.5 -33.5zM287 766q0 -12 -19.5 -32t-32.5 -20
q-12 0 -32 20t-20 32q0 13 20 33t32 20q13 0 32.5 -19.5t19.5 -33.5z" />
    <glyph glyph-name="Aring" unicode="&#xc5;" horiz-adv-x="619" 
d="M599 0h-98l-69 165h-248l-69 -165h-95l272 647h35zM399 242l-63 156q-13 29 -27 78h-2q-10 -38 -27 -78l-63 -156h182zM424 817q0 -46 -33.5 -79.5t-80.5 -33.5t-80.5 33.5t-33.5 79.5t33.5 79.5t80.5 33.5t80.5 -33.5t33.5 -79.5zM368 817q0 25 -16 41.5t-42 16.5
t-42 -16.5t-16 -41.5t16 -41.5t42 -16.5t42 16.5t16 41.5z" />
    <glyph glyph-name="AE" unicode="&#xc6;" horiz-adv-x="814" 
d="M793 0h-378v165h-212l-96 -165h-97l370 638h378v-83h-247v-193h207v-83h-207v-196h282v-83zM416 556l-2 1q-24 -58 -53 -108l-118 -207h172v209q0 23 0.5 54t0.5 51z" />
    <glyph glyph-name="Ccedilla" unicode="&#xc7;" horiz-adv-x="600" 
d="M572 609l-17 -84q-65 42 -160 42q-65 0 -122 -26t-96 -84.5t-39 -137.5q0 -117 76.5 -182t180.5 -65q109 0 176 40l-20 -93q-59 -31 -169 -31l-2 -15q37 -1 67.5 -29.5t30.5 -71.5q0 -48 -33.5 -75.5t-76.5 -27.5q-40 0 -78 25l11 51q31 -22 68 -22q19 0 32.5 13t13.5 33
q0 21 -16 34.5t-37 13.5q-24 0 -32 -3l14 76q-123 15 -213.5 101.5t-90.5 227.5q0 79 31 144.5t81.5 105t110.5 61t121 21.5q114 0 188 -42z" />
    <glyph glyph-name="Egrave" unicode="&#xc8;" horiz-adv-x="465" 
d="M444 0h-379v638h344v-83h-247v-193h207v-83h-207v-196h282v-83zM320 763l-50 -49q-102 28 -167 72l20 82q74 -70 197 -105z" />
    <glyph glyph-name="Eacute" unicode="&#xc9;" horiz-adv-x="465" 
d="M444 0h-379v638h344v-83h-247v-193h207v-83h-207v-196h282v-83zM388 786q-65 -44 -167 -72l-50 49q123 35 198 105z" />
    <glyph glyph-name="Ecircumflex" unicode="&#xca;" horiz-adv-x="465" 
d="M444 0h-379v638h344v-83h-247v-193h207v-83h-207v-196h282v-83zM383 761l-48 -47q-52 24 -83 58q-33 -34 -84 -58l-48 47q74 31 132 113q56 -82 131 -113z" />
    <glyph glyph-name="Edieresis" unicode="&#xcb;" horiz-adv-x="465" 
d="M444 0h-379v638h344v-83h-247v-193h207v-83h-207v-196h282v-83zM376 766q0 -12 -19.5 -32t-32.5 -20t-32.5 20t-19.5 32q0 14 19.5 33.5t32.5 19.5t32.5 -19.5t19.5 -33.5zM223 766q0 -12 -19.5 -32t-32.5 -20q-12 0 -32 20t-20 32q0 13 20 33t32 20q13 0 32.5 -19.5
t19.5 -33.5z" />
    <glyph glyph-name="Igrave" unicode="&#xcc;" horiz-adv-x="257" 
d="M177 0h-97v638h97v-638zM217 763l-50 -49q-102 28 -167 72l20 82q74 -70 197 -105z" />
    <glyph glyph-name="Iacute" unicode="&#xcd;" horiz-adv-x="257" 
d="M177 0h-97v638h97v-638zM257 786q-65 -44 -167 -72l-50 49q123 35 198 105z" />
    <glyph glyph-name="Icircumflex" unicode="&#xce;" horiz-adv-x="257" 
d="M177 0h-97v638h97v-638zM260 761l-48 -47q-52 24 -83 58q-33 -34 -84 -58l-48 47q74 31 132 113q56 -82 131 -113z" />
    <glyph glyph-name="Idieresis" unicode="&#xcf;" horiz-adv-x="257" 
d="M177 0h-97v638h97v-638zM258 766q0 -12 -19.5 -32t-32.5 -20t-32.5 20t-19.5 32q0 14 19.5 33.5t32.5 19.5t32.5 -19.5t19.5 -33.5zM105 766q0 -12 -19.5 -32t-32.5 -20q-12 0 -32 20t-20 32q0 13 20 33t32 20q13 0 32.5 -19.5t19.5 -33.5z" />
    <glyph glyph-name="Eth" unicode="&#xd0;" horiz-adv-x="656" 
d="M616 319q0 -99 -49.5 -173t-127 -110t-168.5 -36h-196v289h-78v73h78v276h196q91 0 168.5 -36t127 -110t49.5 -173zM517 319q0 116 -74 176.5t-189 60.5h-83v-194h126l-15 -73h-111v-207h83q115 0 189 60.5t74 176.5z" />
    <glyph glyph-name="Ntilde" unicode="&#xd1;" horiz-adv-x="702" 
d="M637 -14h-29l-299 327q-58 63 -147 168l-2 -1q2 -58 2 -160v-320h-97v638h67l274 -300q97 -108 134 -153l2 1q-2 49 -2 150v302h97v-652zM491 833l-18 -70q-65 -44 -136 -49l-15 61q-55 -8 -113 -42l18 72q79 44 136 48l15 -63q54 9 113 43z" />
    <glyph glyph-name="Ograve" unicode="&#xd2;" horiz-adv-x="756" 
d="M716 320q0 -99 -49.5 -176.5t-125.5 -116.5t-163 -39t-163 39t-125.5 116.5t-49.5 176.5q0 147 101.5 239t236.5 92t236.5 -92t101.5 -239zM618 320q0 112 -73 179.5t-167 67.5q-95 0 -167.5 -67.5t-72.5 -179.5q0 -113 72.5 -180.5t167.5 -67.5q94 0 167 68t73 180z
M444 763l-50 -49q-102 28 -167 72l20 82q74 -70 197 -105z" />
    <glyph glyph-name="Oacute" unicode="&#xd3;" horiz-adv-x="756" 
d="M716 320q0 -99 -49.5 -176.5t-125.5 -116.5t-163 -39t-163 39t-125.5 116.5t-49.5 176.5q0 147 101.5 239t236.5 92t236.5 -92t101.5 -239zM618 320q0 112 -73 179.5t-167 67.5q-95 0 -167.5 -67.5t-72.5 -179.5q0 -113 72.5 -180.5t167.5 -67.5q94 0 167 68t73 180z
M514 786q-65 -44 -167 -72l-50 49q123 35 198 105z" />
    <glyph glyph-name="Ocircumflex" unicode="&#xd4;" horiz-adv-x="756" 
d="M716 320q0 -99 -49.5 -176.5t-125.5 -116.5t-163 -39t-163 39t-125.5 116.5t-49.5 176.5q0 147 101.5 239t236.5 92t236.5 -92t101.5 -239zM618 320q0 112 -73 179.5t-167 67.5q-95 0 -167.5 -67.5t-72.5 -179.5q0 -113 72.5 -180.5t167.5 -67.5q94 0 167 68t73 180z
M511 761l-48 -47q-52 24 -83 58q-33 -34 -84 -58l-48 47q74 31 132 113q56 -82 131 -113z" />
    <glyph glyph-name="Otilde" unicode="&#xd5;" horiz-adv-x="756" 
d="M716 320q0 -99 -49.5 -176.5t-125.5 -116.5t-163 -39t-163 39t-125.5 116.5t-49.5 176.5q0 147 101.5 239t236.5 92t236.5 -92t101.5 -239zM618 320q0 112 -73 179.5t-167 67.5q-95 0 -167.5 -67.5t-72.5 -179.5q0 -113 72.5 -180.5t167.5 -67.5q94 0 167 68t73 180z
M514 833l-18 -70q-65 -44 -136 -49l-15 61q-55 -8 -113 -42l18 72q79 44 136 48l15 -63q54 9 113 43z" />
    <glyph glyph-name="Odieresis" unicode="&#xd6;" horiz-adv-x="756" 
d="M716 320q0 -99 -49.5 -176.5t-125.5 -116.5t-163 -39t-163 39t-125.5 116.5t-49.5 176.5q0 147 101.5 239t236.5 92t236.5 -92t101.5 -239zM618 320q0 112 -73 179.5t-167 67.5q-95 0 -167.5 -67.5t-72.5 -179.5q0 -113 72.5 -180.5t167.5 -67.5q94 0 167 68t73 180z
M508 766q0 -12 -19.5 -32t-32.5 -20t-32.5 20t-19.5 32q0 14 19.5 33.5t32.5 19.5t32.5 -19.5t19.5 -33.5zM355 766q0 -12 -19.5 -32t-32.5 -20q-12 0 -32 20t-20 32q0 13 20 33t32 20q13 0 32.5 -19.5t19.5 -33.5z" />
    <glyph glyph-name="multiply" unicode="&#xd7;" horiz-adv-x="468" 
d="M397 153l-42 -42l-119 118l-119 -119l-43 43l119 119l-118 118l43 43l118 -119l118 118l42 -42l-118 -118z" />
    <glyph glyph-name="Oslash" unicode="&#xd8;" horiz-adv-x="756" 
d="M716 320q0 -99 -49.5 -176.5t-125.5 -116.5t-163 -39q-101 0 -187 54l-59 -74l-44 37l57 71q-105 95 -105 244q0 147 101.5 239t236.5 92q102 0 188 -55l59 74l44 -37l-58 -71q105 -97 105 -242zM618 320q0 102 -64 171l-307 -380q62 -39 131 -39q94 0 167 68t73 180z
M510 527q-62 40 -132 40q-95 0 -167.5 -67.5t-72.5 -179.5q0 -104 65 -172z" />
    <glyph glyph-name="Ugrave" unicode="&#xd9;" horiz-adv-x="650" 
d="M585 225q0 -109 -73 -173t-187 -64t-187 64t-73 173v413h97v-403q0 -74 41.5 -117.5t122.5 -43.5t123 43.5t42 117.5v403h94v-413zM391 763l-50 -49q-102 28 -167 72l20 82q74 -70 197 -105z" />
    <glyph glyph-name="Uacute" unicode="&#xda;" horiz-adv-x="650" 
d="M585 225q0 -109 -73 -173t-187 -64t-187 64t-73 173v413h97v-403q0 -74 41.5 -117.5t122.5 -43.5t123 43.5t42 117.5v403h94v-413zM475 786q-65 -44 -167 -72l-50 49q123 35 198 105z" />
    <glyph glyph-name="Ucircumflex" unicode="&#xdb;" horiz-adv-x="650" 
d="M585 225q0 -109 -73 -173t-187 -64t-187 64t-73 173v413h97v-403q0 -74 41.5 -117.5t122.5 -43.5t123 43.5t42 117.5v403h94v-413zM456 761l-48 -47q-52 24 -83 58q-33 -34 -84 -58l-48 47q74 31 132 113q56 -82 131 -113z" />
    <glyph glyph-name="Udieresis" unicode="&#xdc;" horiz-adv-x="650" 
d="M585 225q0 -109 -73 -173t-187 -64t-187 64t-73 173v413h97v-403q0 -74 41.5 -117.5t122.5 -43.5t123 43.5t42 117.5v403h94v-413zM456 766q0 -12 -19.5 -32t-32.5 -20t-32.5 20t-19.5 32q0 14 19.5 33.5t32.5 19.5t32.5 -19.5t19.5 -33.5zM303 766q0 -12 -19.5 -32
t-32.5 -20q-12 0 -32 20t-20 32q0 13 20 33t32 20q13 0 32.5 -19.5t19.5 -33.5z" />
    <glyph glyph-name="Yacute" unicode="&#xdd;" horiz-adv-x="604" 
d="M594 638l-245 -344v-294h-95v294l-244 344h106l128 -180q25 -35 60 -90h2q3 5 61 90l128 180h99zM438 786q-65 -44 -167 -72l-50 49q123 35 198 105z" />
    <glyph glyph-name="Thorn" unicode="&#xde;" horiz-adv-x="467" 
d="M449 385q0 -85 -58.5 -132t-133.5 -47h-96v-206h-96v638h96v-74h96q75 0 133.5 -47t58.5 -132zM350 385q0 47 -32 72t-78 25h-79v-194h79q46 0 78 25t32 72z" />
    <glyph glyph-name="germandbls" unicode="&#xdf;" horiz-adv-x="535" 
d="M500 124q0 -58 -43 -96.5t-122 -38.5q-80 0 -131 34v87q60 -44 133 -44q32 0 52 15.5t20 38.5q0 43 -65 66q-71 26 -105.5 60.5t-34.5 87.5q0 56 41.5 93t102.5 37q8 34 8 57q0 47 -27.5 83t-73.5 36q-47 0 -73 -38.5t-26 -96.5v-505h-91v481q0 119 52.5 177t137.5 58
q82 0 136 -53.5t54 -155.5q0 -52 -17 -109q-136 0 -136 -61q0 -21 15.5 -34t50.5 -26q72 -26 107 -61t35 -92z" />
    <glyph glyph-name="agrave" unicode="&#xe0;" horiz-adv-x="456" 
d="M432 47l-58 -58q-49 11 -66 58q-44 -58 -127 -58q-65 0 -105.5 41t-40.5 98q0 63 43.5 101t105.5 44l106 10v29q0 33 -21.5 53.5t-66.5 20.5q-71 0 -125 -36l-18 75q59 39 148 39q78 0 126 -43t48 -121v-183q0 -30 14 -48t37 -22zM290 168v40l-90 -8q-38 -4 -58 -25
t-20 -48q0 -25 18 -43t45 -18q38 0 71.5 30.5t33.5 71.5zM266 570l-42 -41q-84 22 -142 61l17 70q60 -58 167 -90z" />
    <glyph glyph-name="aacute" unicode="&#xe1;" horiz-adv-x="456" 
d="M432 47l-58 -58q-49 11 -66 58q-44 -58 -127 -58q-65 0 -105.5 41t-40.5 98q0 63 43.5 101t105.5 44l106 10v29q0 33 -21.5 53.5t-66.5 20.5q-71 0 -125 -36l-18 75q59 39 148 39q78 0 126 -43t48 -121v-183q0 -30 14 -48t37 -22zM290 168v40l-90 -8q-38 -4 -58 -25
t-20 -48q0 -25 18 -43t45 -18q38 0 71.5 30.5t33.5 71.5zM315 590q-56 -39 -142 -61l-42 41q106 32 168 90z" />
    <glyph glyph-name="acircumflex" unicode="&#xe2;" horiz-adv-x="456" 
d="M432 47l-58 -58q-49 11 -66 58q-44 -58 -127 -58q-65 0 -105.5 41t-40.5 98q0 63 43.5 101t105.5 44l106 10v29q0 33 -21.5 53.5t-66.5 20.5q-71 0 -125 -36l-18 75q59 39 148 39q78 0 126 -43t48 -121v-183q0 -30 14 -48t37 -22zM290 168v40l-90 -8q-38 -4 -58 -25
t-20 -48q0 -25 18 -43t45 -18q38 0 71.5 30.5t33.5 71.5zM319 569l-40 -40q-45 21 -71 49q-26 -28 -71 -49l-41 40q63 27 112 96q47 -69 111 -96z" />
    <glyph glyph-name="atilde" unicode="&#xe3;" horiz-adv-x="456" 
d="M432 47l-58 -58q-49 11 -66 58q-44 -58 -127 -58q-65 0 -105.5 41t-40.5 98q0 63 43.5 101t105.5 44l106 10v29q0 33 -21.5 53.5t-66.5 20.5q-71 0 -125 -36l-18 75q59 39 148 39q78 0 126 -43t48 -121v-183q0 -30 14 -48t37 -22zM290 168v40l-90 -8q-38 -4 -58 -25
t-20 -48q0 -25 18 -43t45 -18q38 0 71.5 30.5t33.5 71.5zM339 630l-16 -59q-55 -38 -115 -42l-13 52q-51 -8 -96 -36l15 61q69 38 116 41l13 -54q48 9 96 37z" />
    <glyph glyph-name="adieresis" unicode="&#xe4;" horiz-adv-x="456" 
d="M432 47l-58 -58q-49 11 -66 58q-44 -58 -127 -58q-65 0 -105.5 41t-40.5 98q0 63 43.5 101t105.5 44l106 10v29q0 33 -21.5 53.5t-66.5 20.5q-71 0 -125 -36l-18 75q59 39 148 39q78 0 126 -43t48 -121v-183q0 -30 14 -48t37 -22zM290 168v40l-90 -8q-38 -4 -58 -25
t-20 -48q0 -25 18 -43t45 -18q38 0 71.5 30.5t33.5 71.5zM321 573q0 -11 -16.5 -27.5t-27.5 -16.5q-12 0 -28.5 16.5t-16.5 27.5t16.5 28t28.5 17q11 0 27.5 -17t16.5 -28zM191 573q0 -11 -16.5 -27.5t-27.5 -16.5t-28 17t-17 27q0 11 17 28t28 17t27.5 -17t16.5 -28z" />
    <glyph glyph-name="aring" unicode="&#xe5;" horiz-adv-x="456" 
d="M432 47l-58 -58q-49 11 -66 58q-44 -58 -127 -58q-65 0 -105.5 41t-40.5 98q0 63 43.5 101t105.5 44l106 10v29q0 33 -21.5 53.5t-66.5 20.5q-71 0 -125 -36l-18 75q59 39 148 39q78 0 126 -43t48 -121v-183q0 -30 14 -48t37 -22zM290 168v40l-90 -8q-38 -4 -58 -25
t-20 -48q0 -25 18 -43t45 -18q38 0 71.5 30.5t33.5 71.5zM306 616q0 -39 -28.5 -67.5t-68.5 -28.5t-68.5 28.5t-28.5 67.5q0 40 28.5 68t68.5 28t68.5 -28t28.5 -68zM258 616q0 22 -13.5 36t-35.5 14t-35.5 -14t-13.5 -36q0 -21 13.5 -35t35.5 -14t35.5 14t13.5 35z" />
    <glyph glyph-name="ae" unicode="&#xe6;" horiz-adv-x="746" 
d="M711 292q0 -22 -3 -37l-51 -51h-272q3 -49 45 -92t115 -43q81 0 145 46l-23 -97q-55 -29 -134 -29q-115 0 -188 84q-58 -84 -161 -84q-69 0 -109 39t-40 96q0 66 41.5 101t110.5 41l103 10v36q0 33 -21.5 53.5t-66.5 20.5q-71 0 -125 -36l-18 75q59 39 148 39
q103 0 148 -69q67 69 160 69q89 0 142.5 -52t53.5 -120zM619 290q0 36 -28 66t-71 30q-44 0 -82.5 -31t-46.5 -77h227q1 4 1 12zM290 168v33l-87 -8q-81 -7 -81 -71q0 -23 18 -39.5t45 -16.5q38 0 71.5 30.5t33.5 71.5z" />
    <glyph glyph-name="ccedilla" unicode="&#xe7;" horiz-adv-x="458" 
d="M426 430l-17 -80q-54 34 -122 34q-65 0 -112.5 -43.5t-47.5 -114.5q0 -70 48.5 -113.5t113.5 -43.5q62 0 130 32l-19 -89q-52 -25 -125 -23l-2 -12q31 -1 57 -25.5t26 -60.5q0 -41 -28 -64t-65 -23q-35 0 -67 21l10 43q25 -18 58 -18q16 0 27.5 11t11.5 28t-13.5 28.5
t-31.5 11.5q-21 0 -28 -2l13 65q-88 14 -148 76.5t-60 157.5q0 107 74 172.5t172 65.5q83 0 145 -34z" />
    <glyph glyph-name="egrave" unicode="&#xe8;" horiz-adv-x="491" 
d="M456 292q0 -22 -3 -37l-51 -51h-273q3 -49 45.5 -92t115.5 -43q81 0 145 46l-23 -97q-55 -29 -134 -29q-100 0 -171.5 67t-71.5 170q0 108 69.5 173t155.5 65q89 0 142.5 -52t53.5 -120zM364 290q0 36 -28 66t-71 30q-44 0 -82.5 -31t-47.5 -77h228q1 4 1 12zM332 570
l-42 -41q-84 22 -142 61l17 70q60 -58 167 -90z" />
    <glyph glyph-name="eacute" unicode="&#xe9;" horiz-adv-x="491" 
d="M456 292q0 -22 -3 -37l-51 -51h-273q3 -49 45.5 -92t115.5 -43q81 0 145 46l-23 -97q-55 -29 -134 -29q-100 0 -171.5 67t-71.5 170q0 108 69.5 173t155.5 65q89 0 142.5 -52t53.5 -120zM364 290q0 36 -28 66t-71 30q-44 0 -82.5 -31t-47.5 -77h228q1 4 1 12zM377 590
q-56 -39 -142 -61l-42 41q106 32 168 90z" />
    <glyph glyph-name="ecircumflex" unicode="&#xea;" horiz-adv-x="491" 
d="M456 292q0 -22 -3 -37l-51 -51h-273q3 -49 45.5 -92t115.5 -43q81 0 145 46l-23 -97q-55 -29 -134 -29q-100 0 -171.5 67t-71.5 170q0 108 69.5 173t155.5 65q89 0 142.5 -52t53.5 -120zM364 290q0 36 -28 66t-71 30q-44 0 -82.5 -31t-47.5 -77h228q1 4 1 12zM375 569
l-40 -40q-45 21 -71 49q-26 -28 -71 -49l-41 40q63 27 112 96q47 -69 111 -96z" />
    <glyph glyph-name="edieresis" unicode="&#xeb;" horiz-adv-x="491" 
d="M456 292q0 -22 -3 -37l-51 -51h-273q3 -49 45.5 -92t115.5 -43q81 0 145 46l-23 -97q-55 -29 -134 -29q-100 0 -171.5 67t-71.5 170q0 108 69.5 173t155.5 65q89 0 142.5 -52t53.5 -120zM364 290q0 36 -28 66t-71 30q-44 0 -82.5 -31t-47.5 -77h228q1 4 1 12zM371 573
q0 -11 -16.5 -27.5t-27.5 -16.5q-12 0 -28.5 16.5t-16.5 27.5t16.5 28t28.5 17q11 0 27.5 -17t16.5 -28zM241 573q0 -11 -16.5 -27.5t-27.5 -16.5t-28 17t-17 27q0 11 17 28t28 17t27.5 -17t16.5 -28z" />
    <glyph glyph-name="igrave" unicode="&#xec;" horiz-adv-x="242" 
d="M167 0h-92v453h92v-453zM184 570l-42 -41q-84 22 -142 61l17 70q60 -58 167 -90z" />
    <glyph glyph-name="iacute" unicode="&#xed;" horiz-adv-x="242" 
d="M167 0h-92v453h92v-453zM242 590q-56 -39 -142 -61l-42 41q106 32 168 90z" />
    <glyph glyph-name="icircumflex" unicode="&#xee;" horiz-adv-x="242" 
d="M167 0h-92v453h92v-453zM233 569l-40 -40q-45 21 -71 49q-26 -28 -71 -49l-41 40q63 27 112 96q47 -69 111 -96z" />
    <glyph glyph-name="idieresis" unicode="&#xef;" horiz-adv-x="242" 
d="M167 0h-92v453h92v-453zM230 573q0 -11 -16.5 -27.5t-27.5 -16.5q-12 0 -28.5 16.5t-16.5 27.5t16.5 28t28.5 17q11 0 27.5 -17t16.5 -28zM100 573q0 -11 -16.5 -27.5t-27.5 -16.5t-28 17t-17 27q0 11 17 28t28 17t27.5 -17t16.5 -28z" />
    <glyph glyph-name="eth" unicode="&#xf0;" horiz-adv-x="499" 
d="M459 209q0 -102 -60.5 -161t-150.5 -59q-91 0 -152 59t-61 148q0 72 43.5 128t111.5 78q51 16 101 24l-48 115l-85 -34l-27 68l83 34l-43 103h95l29 -71l77 31l27 -68l-75 -31l119 -283q16 -38 16 -81zM368 208q0 39 -48 143q-47 -6 -88 -19q-106 -34 -106 -136
q0 -55 34.5 -91t85.5 -36q52 0 87 38.5t35 100.5z" />
    <glyph glyph-name="ntilde" unicode="&#xf1;" horiz-adv-x="506" 
d="M451 0h-91v291q0 40 -26 67.5t-79 27.5q-52 0 -80.5 -28.5t-28.5 -66.5v-291h-91v453h80l4 -45q28 30 58.5 43t81.5 13q76 0 124 -44.5t48 -119.5v-300zM370 630l-16 -59q-55 -38 -115 -42l-13 52q-51 -8 -96 -36l15 61q69 38 116 41l13 -54q48 9 96 37z" />
    <glyph glyph-name="ograve" unicode="&#xf2;" horiz-adv-x="551" 
d="M516 226q0 -104 -69 -170.5t-171 -66.5q-103 0 -172 66.5t-69 170.5t69 171t172 67t171.5 -66.5t68.5 -171.5zM424 226q0 69 -43.5 113.5t-104.5 44.5q-62 0 -105.5 -44t-43.5 -114q0 -69 43.5 -113t105.5 -44q61 0 104.5 44t43.5 113zM337 570l-42 -41q-84 22 -142 61
l17 70q60 -58 167 -90z" />
    <glyph glyph-name="oacute" unicode="&#xf3;" horiz-adv-x="551" 
d="M516 226q0 -104 -69 -170.5t-171 -66.5q-103 0 -172 66.5t-69 170.5t69 171t172 67t171.5 -66.5t68.5 -171.5zM424 226q0 69 -43.5 113.5t-104.5 44.5q-62 0 -105.5 -44t-43.5 -114q0 -69 43.5 -113t105.5 -44q61 0 104.5 44t43.5 113zM407 590q-56 -39 -142 -61l-42 41
q106 32 168 90z" />
    <glyph glyph-name="ocircumflex" unicode="&#xf4;" horiz-adv-x="551" 
d="M516 226q0 -104 -69 -170.5t-171 -66.5q-103 0 -172 66.5t-69 170.5t69 171t172 67t171.5 -66.5t68.5 -171.5zM424 226q0 69 -43.5 113.5t-104.5 44.5q-62 0 -105.5 -44t-43.5 -114q0 -69 43.5 -113t105.5 -44q61 0 104.5 44t43.5 113zM385 569l-40 -40q-45 21 -71 49
q-26 -28 -71 -49l-41 40q63 27 112 96q47 -69 111 -96z" />
    <glyph glyph-name="otilde" unicode="&#xf5;" horiz-adv-x="551" 
d="M516 226q0 -104 -69 -170.5t-171 -66.5q-103 0 -172 66.5t-69 170.5t69 171t172 67t171.5 -66.5t68.5 -171.5zM424 226q0 69 -43.5 113.5t-104.5 44.5q-62 0 -105.5 -44t-43.5 -114q0 -69 43.5 -113t105.5 -44q61 0 104.5 44t43.5 113zM396 630l-16 -59q-55 -38 -115 -42
l-13 52q-51 -8 -96 -36l15 61q69 38 116 41l13 -54q48 9 96 37z" />
    <glyph glyph-name="odieresis" unicode="&#xf6;" horiz-adv-x="551" 
d="M516 226q0 -104 -69 -170.5t-171 -66.5q-103 0 -172 66.5t-69 170.5t69 171t172 67t171.5 -66.5t68.5 -171.5zM424 226q0 69 -43.5 113.5t-104.5 44.5q-62 0 -105.5 -44t-43.5 -114q0 -69 43.5 -113t105.5 -44q61 0 104.5 44t43.5 113zM387 573q0 -11 -16.5 -27.5
t-27.5 -16.5q-12 0 -28.5 16.5t-16.5 27.5t16.5 28t28.5 17q11 0 27.5 -17t16.5 -28zM257 573q0 -11 -16.5 -27.5t-27.5 -16.5t-28 17t-17 27q0 11 17 28t28 17t27.5 -17t16.5 -28z" />
    <glyph glyph-name="divide" unicode="&#xf7;" horiz-adv-x="454" 
d="M280 403q0 -13 -20 -33t-33 -20t-33 20t-20 33t20 32.5t33 19.5t33 -19.5t20 -32.5zM414 238h-374v78h374v-78zM280 152q0 -14 -20 -33.5t-33 -19.5t-33 19.5t-20 33.5q0 13 20 32.5t33 19.5t33 -19.5t20 -32.5z" />
    <glyph glyph-name="oslash" unicode="&#xf8;" horiz-adv-x="545" 
d="M516 226q0 -104 -69 -170.5t-171 -66.5q-73 0 -129 35l-45 -56l-42 35l43 53q-68 68 -68 170q0 104 69 171t172 67q69 0 126 -33l44 54l42 -35l-42 -52q70 -67 70 -172zM424 226q0 58 -33 103l-192 -239q37 -21 77 -21q61 0 104.5 44t43.5 113zM349 364q-35 20 -73 20
q-62 0 -105.5 -44t-43.5 -114q0 -57 32 -100z" />
    <glyph glyph-name="ugrave" unicode="&#xf9;" horiz-adv-x="506" 
d="M451 0h-80l-4 45q-28 -30 -58.5 -43t-81.5 -13q-76 0 -124 44.5t-48 119.5v300h91v-291q0 -40 26 -67.5t79 -27.5q52 0 80.5 28.5t28.5 66.5v291h91v-453zM308 570l-42 -41q-84 22 -142 61l17 70q60 -58 167 -90z" />
    <glyph glyph-name="uacute" unicode="&#xfa;" horiz-adv-x="506" 
d="M451 0h-80l-4 45q-28 -30 -58.5 -43t-81.5 -13q-76 0 -124 44.5t-48 119.5v300h91v-291q0 -40 26 -67.5t79 -27.5q52 0 80.5 28.5t28.5 66.5v291h91v-453zM391 590q-56 -39 -142 -61l-42 41q106 32 168 90z" />
    <glyph glyph-name="ucircumflex" unicode="&#xfb;" horiz-adv-x="506" 
d="M451 0h-80l-4 45q-28 -30 -58.5 -43t-81.5 -13q-76 0 -124 44.5t-48 119.5v300h91v-291q0 -40 26 -67.5t79 -27.5q52 0 80.5 28.5t28.5 66.5v291h91v-453zM367 569l-40 -40q-45 21 -71 49q-26 -28 -71 -49l-41 40q63 27 112 96q47 -69 111 -96z" />
    <glyph glyph-name="udieresis" unicode="&#xfc;" horiz-adv-x="506" 
d="M451 0h-80l-4 45q-28 -30 -58.5 -43t-81.5 -13q-76 0 -124 44.5t-48 119.5v300h91v-291q0 -40 26 -67.5t79 -27.5q52 0 80.5 28.5t28.5 66.5v291h91v-453zM365 573q0 -11 -16.5 -27.5t-27.5 -16.5q-12 0 -28.5 16.5t-16.5 27.5t16.5 28t28.5 17q11 0 27.5 -17t16.5 -28z
M235 573q0 -11 -16.5 -27.5t-27.5 -16.5t-28 17t-17 27q0 11 17 28t28 17t27.5 -17t16.5 -28z" />
    <glyph glyph-name="yacute" unicode="&#xfd;" horiz-adv-x="479" 
d="M454 453l-167 -409q-49 -119 -104.5 -183.5t-126.5 -96.5l-55 56q64 24 109 74.5t84 145.5l-169 413h94l84 -206q21 -51 39 -102h2q10 28 38 99l85 209h87zM371 590q-56 -39 -142 -61l-42 41q106 32 168 90z" />
    <glyph glyph-name="thorn" unicode="&#xfe;" horiz-adv-x="538" 
d="M503 227q0 -104 -68.5 -171t-170.5 -67q-67 0 -113 30v-250h-91v943h91v-286q46 38 130 38q82 0 152 -64t70 -173zM411 227q0 69 -42.5 113t-104.5 44q-72 0 -113 -46v-227q44 -42 113 -42q62 0 104.5 44t42.5 114z" />
    <glyph glyph-name="ydieresis" unicode="&#xff;" horiz-adv-x="479" 
d="M454 453l-167 -409q-49 -119 -104.5 -183.5t-126.5 -96.5l-55 56q64 24 109 74.5t84 145.5l-169 413h94l84 -206q21 -51 39 -102h2q10 28 38 99l85 209h87zM351 570q0 -11 -16 -27.5t-28 -16.5q-11 0 -27.5 16.5t-16.5 27.5t16.5 28t27.5 17q12 0 28 -17t16 -28zM221 570
q0 -11 -16 -27.5t-28 -16.5q-10 0 -27 17t-17 27q0 11 17 28t27 17q12 0 28 -17t16 -28z" />
    <glyph glyph-name="dotlessi" unicode="&#x131;" horiz-adv-x="242" 
d="M167 0h-92v453h92v-453z" />
    <glyph glyph-name="Lslash" unicode="&#x141;" horiz-adv-x="458" 
d="M453 0h-378v260l-45 -26l-36 64l81 47v293h97v-238l102 59v-85l-102 -59v-232h281v-83z" />
    <glyph glyph-name="lslash" unicode="&#x142;" horiz-adv-x="263" 
d="M244 361l-78 -45v-197q0 -29 19 -50t42 -25l-62 -62q-33 9 -61.5 38.5t-28.5 86.5v156l-51 -29l-35 64l86 50v364h91v-311l78 45v-85z" />
    <glyph glyph-name="OE" unicode="&#x152;" horiz-adv-x="953" 
d="M932 0h-378v35q-83 -47 -176 -47q-87 0 -163 39t-125.5 116.5t-49.5 176.5q0 147 101.5 239t236.5 92q93 0 176 -47v34h343v-83h-247v-193h207v-83h-207v-196h282v-83zM554 141v357q-76 69 -176 69q-95 0 -167.5 -67.5t-72.5 -179.5q0 -113 72.5 -180.5t167.5 -67.5
q100 0 176 69z" />
    <glyph glyph-name="oe" unicode="&#x153;" horiz-adv-x="879" 
d="M844 292q0 -22 -3 -37l-51 -51h-272q3 -49 45 -92t115 -43q81 0 145 46l-23 -97q-55 -29 -134 -29q-123 0 -195 94q-69 -94 -195 -94q-103 0 -172 66.5t-69 170.5t69 171t172 67q124 0 193 -91q33 43 81.5 67t97.5 24q89 0 142.5 -52t53.5 -120zM752 290q0 36 -28 66
t-71 30q-44 0 -82.5 -31t-46.5 -77h227q1 4 1 12zM424 226q0 69 -43.5 113.5t-104.5 44.5q-62 0 -105.5 -44t-43.5 -114q0 -69 43.5 -113t105.5 -44q61 0 104.5 44t43.5 113z" />
    <glyph glyph-name="Scaron" unicode="&#x160;" horiz-adv-x="477" 
d="M438 180q0 -88 -57 -140t-163 -52q-100 0 -165 43l-22 106q92 -65 192 -65q53 0 85.5 27.5t32.5 71.5q0 81 -111 117q-174 56 -174 189q0 72 52.5 123t149.5 51q89 0 139 -37l-19 -80q-51 37 -124 37q-47 0 -76 -25.5t-29 -61.5q0 -64 103 -99q90 -31 138 -79.5
t48 -125.5zM373 820q-73 -30 -131 -113q-60 83 -132 113l48 47q52 -26 84 -58q31 32 83 58z" />
    <glyph glyph-name="scaron" unicode="&#x161;" horiz-adv-x="375" 
d="M340 124q0 -58 -43 -96.5t-122 -38.5q-77 0 -127 33l-21 100q65 -56 150 -56q32 0 52 15.5t20 38.5q0 43 -65 66q-71 26 -105.5 60.5t-34.5 87.5q0 57 42.5 93.5t109.5 36.5q35 0 68.5 -9.5t49.5 -19.5l-17 -76q-41 29 -102 29q-28 0 -45.5 -14t-17.5 -37q0 -21 15.5 -34
t50.5 -26q72 -26 107 -61t35 -92zM300 619q-62 -26 -111 -96q-51 70 -112 96l41 40q46 -24 71 -49q25 26 71 49z" />
    <glyph glyph-name="Ydieresis" unicode="&#x178;" horiz-adv-x="604" 
d="M594 638l-245 -344v-294h-95v294l-244 344h106l128 -180q25 -35 60 -90h2q3 5 61 90l128 180h99zM430 766q0 -12 -19.5 -32t-32.5 -20t-32.5 20t-19.5 32q0 14 19.5 33.5t32.5 19.5t32.5 -19.5t19.5 -33.5zM277 766q0 -12 -19.5 -32t-32.5 -20q-12 0 -32 20t-20 32
q0 13 20 33t32 20q13 0 32.5 -19.5t19.5 -33.5z" />
    <glyph glyph-name="Zcaron" unicode="&#x17d;" horiz-adv-x="508" 
d="M482 0h-452v23l202 355q82 142 105 178l-1 1h-290v81h425v-23l-204 -356q-72 -124 -104 -177l1 -1h318v-81zM384 820q-73 -30 -131 -113q-60 83 -132 113l48 47q52 -26 84 -58q31 32 83 58z" />
    <glyph glyph-name="zcaron" unicode="&#x17e;" horiz-adv-x="420" 
d="M390 0h-362v18l136 239q43 75 71 119l-1 1h-192v76h330v-18l-137 -239q-13 -24 -71 -119l1 -1h225v-76zM320 619q-62 -26 -111 -96q-51 70 -112 96l41 40q46 -24 71 -49q25 26 71 49z" />
    <glyph glyph-name="florin" unicode="&#x192;" horiz-adv-x="420" 
d="M410 645l-17 -75q-18 5 -53 5q-41 0 -72.5 -28t-40.5 -77l-3 -17h123l-13 -57h-120l-79 -445q-12 -70 -60 -120t-103 -62l-54 54q46 11 82.5 47t45.5 88l77 438h-77l10 57h77l1 6q32 192 211 192q37 0 65 -6z" />
    <glyph glyph-name="circumflex" unicode="&#x2c6;" 
d="M331 561l-48 -47q-52 24 -83 58q-33 -34 -84 -58l-48 47q74 31 132 113q56 -82 131 -113z" />
    <glyph glyph-name="caron" unicode="&#x2c7;" 
d="M331 620q-73 -30 -131 -113q-60 83 -132 113l48 47q52 -26 84 -58q31 32 83 58z" />
    <glyph glyph-name="breve" unicode="&#x2d8;" 
d="M323 561q-6 -5 -17 -13t-43 -21t-63 -13t-62 12t-46 24l-16 11l51 53q35 -22 73 -22q17 0 35 5.5t27 10.5l10 6z" />
    <glyph glyph-name="dotaccent" unicode="&#x2d9;" 
d="M252 566q0 -12 -19.5 -32t-32.5 -20q-12 0 -32 20t-20 32q0 13 20 33t32 20q13 0 32.5 -19.5t19.5 -33.5z" />
    <glyph glyph-name="ring" unicode="&#x2da;" 
d="M314 617q0 -46 -33.5 -79.5t-80.5 -33.5t-80.5 33.5t-33.5 79.5t33.5 79.5t80.5 33.5t80.5 -33.5t33.5 -79.5zM258 617q0 25 -16 41.5t-42 16.5t-42 -16.5t-16 -41.5t16 -41.5t42 -16.5t42 16.5t16 41.5z" />
    <glyph glyph-name="ogonek" unicode="&#x2db;" 
d="M293 -161l-12 -56q-23 -14 -63 -14q-46 0 -76.5 25t-30.5 68q0 42 29 79t74 59h78q-118 -59 -118 -131q0 -22 15.5 -34t42.5 -12q36 0 61 16z" />
    <glyph glyph-name="tilde" unicode="&#x2dc;" 
d="M342 633l-18 -70q-65 -44 -136 -49l-15 61q-55 -8 -113 -42l18 72q79 44 136 48l15 -63q54 9 113 43z" />
    <glyph glyph-name="hungarumlaut" unicode="&#x2dd;" 
d="M366 638q-40 -66 -112 -124l-70 15q81 62 134 158zM216 638q-40 -65 -111 -124l-71 15q81 62 134 158z" />
    <glyph glyph-name="pi" unicode="&#x3c0;" horiz-adv-x="550" 
d="M511 0h-472v453h472v-453zM482 29v355h-384l241 -170q-42 -17 -66.5 -45.5t-24.5 -56.5q0 -54 52 -83h182zM257 29q-39 16 -60 61l-129 271v-332h189z" />
    <glyph glyph-name="endash" unicode="&#x2013;" horiz-adv-x="580" 
d="M540 238h-500v78h500v-78z" />
    <glyph glyph-name="emdash" unicode="&#x2014;" horiz-adv-x="830" 
d="M790 238h-750v78h750v-78z" />
    <glyph glyph-name="quoteleft" unicode="&#x2018;" horiz-adv-x="197" 
d="M175 706q-57 -74 -64 -127q13 -2 31 -19t18 -29q0 -16 -23.5 -38t-37.5 -22t-37.5 22t-23.5 38q0 30 33 89t69 92z" />
    <glyph glyph-name="quoteright" unicode="&#x2019;" horiz-adv-x="197" 
d="M159 657q0 -30 -33.5 -89t-69.5 -92l-35 6q56 72 65 127q-14 2 -31.5 19t-17.5 29q0 16 23 38t38 22q14 0 37.5 -22t23.5 -38z" />
    <glyph glyph-name="quotesinglbase" unicode="&#x201a;" horiz-adv-x="197" 
d="M159 50q0 -30 -33.5 -89t-69.5 -92l-35 6q56 72 65 127q-14 2 -31.5 19t-17.5 29q0 16 23 38t38 22q14 0 37.5 -22t23.5 -38z" />
    <glyph glyph-name="quotedblleft" unicode="&#x201c;" horiz-adv-x="368" 
d="M348 706q-58 -72 -65 -126q13 -2 31 -19.5t18 -28.5q0 -17 -23.5 -39t-37.5 -22t-37.5 22t-23.5 39q0 30 33 88.5t69 92.5zM175 706q-57 -73 -64 -127q13 -2 31 -19t18 -29q0 -16 -23.5 -38t-37.5 -22t-37.5 22t-23.5 38q0 30 33 89t69 92z" />
    <glyph glyph-name="quotedblright" unicode="&#x201d;" horiz-adv-x="369" 
d="M331 657q0 -30 -33.5 -89t-69.5 -92l-35 7q56 71 65 126q-14 2 -31.5 19.5t-17.5 28.5q0 16 23 38t38 22q13 0 37 -22t24 -38zM159 657q0 -30 -33.5 -89t-69.5 -92l-35 6q56 72 65 127q-14 2 -31.5 19t-17.5 29q0 16 23 38t38 22q13 0 37 -22t24 -38z" />
    <glyph glyph-name="quotedblbase" unicode="&#x201e;" horiz-adv-x="354" 
d="M325 50q0 -30 -33.5 -89t-69.5 -92l-35 7q56 71 65 126q-14 2 -31.5 19.5t-17.5 28.5q0 16 23 38t38 22q13 0 37 -22t24 -38zM153 50q0 -30 -33.5 -89t-69.5 -92l-35 6q56 72 65 127q-14 2 -31.5 19t-17.5 29q0 16 23 38t38 22q13 0 37 -22t24 -38z" />
    <glyph glyph-name="dagger" unicode="&#x2020;" horiz-adv-x="332" 
d="M323 371l-115 18l-15 -620h-55l-14 620l-116 -18v91l114 -18l-2 113h92l-2 -113l113 18v-91z" />
    <glyph glyph-name="daggerdbl" unicode="&#x2021;" horiz-adv-x="332" 
d="M323 -141l-128 18l-2 -108h-55l-3 108l-127 -18v91l126 -18l-10 457l-116 -18v91l114 -18l-2 113h92l-2 -113l113 18v-91l-115 18l-11 -457l126 18v-91z" />
    <glyph glyph-name="bullet" unicode="&#x2022;" horiz-adv-x="395" 
d="M345 277q0 -64 -42 -104.5t-105 -40.5t-105.5 40.5t-42.5 104.5t42.5 105t105.5 41t105 -41t42 -105z" />
    <glyph glyph-name="ellipsis" unicode="&#x2026;" horiz-adv-x="549" 
d="M512 50q0 -15 -23 -38t-39 -23q-15 0 -38 23t-23 38q0 14 23 37t38 23q16 0 39 -23t23 -37zM335 50q0 -15 -23 -38t-38 -23q-16 0 -38.5 23t-22.5 38q0 14 22.5 37t38.5 23q15 0 38 -23t23 -37zM159 50q0 -15 -23 -38t-38 -23t-38 23t-23 38q0 14 23 37t38 23t38 -23
t23 -37z" />
    <glyph glyph-name="perthousand" unicode="&#x2030;" horiz-adv-x="1057" 
d="M1021 132q0 -64 -40.5 -104t-102.5 -40q-61 0 -101.5 40t-40.5 104q0 62 40.5 102.5t101.5 40.5q62 0 102.5 -40.5t40.5 -102.5zM321 508q0 -64 -40.5 -104t-102.5 -40q-61 0 -101.5 40t-40.5 104q0 63 40.5 103t101.5 40q62 0 102.5 -40t40.5 -103zM632 626l-525 -650
l-44 37l525 650zM660 132q0 -64 -40.5 -104t-101.5 -40q-62 0 -102.5 40t-40.5 104q0 62 40.5 102.5t102.5 40.5q61 0 101.5 -40.5t40.5 -102.5zM947 132q0 33 -20 52.5t-49 19.5t-48.5 -19.5t-19.5 -52.5q0 -34 19.5 -55t48.5 -21t49 21t20 55zM247 508q0 33 -20 53t-49 20
t-48.5 -20t-19.5 -53q0 -34 19.5 -54.5t48.5 -20.5t49 20.5t20 54.5zM586 132q0 33 -19.5 52.5t-48.5 19.5t-49 -19.5t-20 -52.5q0 -34 20 -55t49 -21q28 0 48 21t20 55z" />
    <glyph glyph-name="guilsinglleft" unicode="&#x2039;" horiz-adv-x="231" 
d="M210 158l-52 -52q-63 104 -159 171q99 72 159 171l52 -52q-34 -63 -91 -119q59 -57 91 -119z" />
    <glyph glyph-name="guilsinglright" unicode="&#x203a;" horiz-adv-x="231" 
d="M232 277q-96 -67 -159 -171l-52 52q31 61 90 119q-58 57 -90 119l52 52q60 -99 159 -171z" />
    <glyph glyph-name="fraction" unicode="&#x2044;" horiz-adv-x="605" 
d="M587 626l-525 -650l-44 37l525 650z" />
    <glyph glyph-name="trademark" unicode="&#x2122;" horiz-adv-x="416" 
d="M382 453h-35l-9 106l-56 -106h-13l-54 104l-8 -104h-34l15 185h24l66 -128l64 128h25zM161 606h-53v-153h-35v153h-53v32h141v-32z" />
    <glyph glyph-name="Omega" unicode="&#x2126;" horiz-adv-x="550" 
d="M511 0h-472v453h472v-453zM482 29v355h-384l241 -170q-42 -17 -66.5 -45.5t-24.5 -56.5q0 -54 52 -83h182zM257 29q-39 16 -60 61l-129 271v-332h189z" />
    <glyph glyph-name="partialdiff" unicode="&#x2202;" horiz-adv-x="550" 
d="M511 0h-472v453h472v-453zM482 29v355h-384l241 -170q-42 -17 -66.5 -45.5t-24.5 -56.5q0 -54 52 -83h182zM257 29q-39 16 -60 61l-129 271v-332h189z" />
    <glyph glyph-name="Delta" unicode="&#x2206;" horiz-adv-x="550" 
d="M511 0h-472v453h472v-453zM482 29v355h-384l241 -170q-42 -17 -66.5 -45.5t-24.5 -56.5q0 -54 52 -83h182zM257 29q-39 16 -60 61l-129 271v-332h189z" />
    <glyph glyph-name="product" unicode="&#x220f;" horiz-adv-x="480" 
d="M445 448q0 -88 -59 -145.5t-146 -57.5q-88 0 -146.5 57t-58.5 146t58.5 146t146.5 57q87 0 146 -57.5t59 -145.5zM399 448q0 71 -45.5 116.5t-113.5 45.5q-70 0 -115.5 -45.5t-45.5 -116.5t45.5 -116.5t115.5 -45.5q68 0 113.5 45.5t45.5 116.5zM337 497q0 -34 -24.5 -55
t-57.5 -21h-29v-98h-48v250h77q33 0 57.5 -21t24.5 -55zM290 497q0 16 -11 25t-30 9h-23v-68h23q19 0 30 9t11 25z" />
    <glyph glyph-name="summation" unicode="&#x2211;" horiz-adv-x="550" 
d="M511 0h-472v453h472v-453zM482 29v355h-384l241 -170q-42 -17 -66.5 -45.5t-24.5 -56.5q0 -54 52 -83h182zM257 29q-39 16 -60 61l-129 271v-332h189z" />
    <glyph glyph-name="minus" unicode="&#x2212;" horiz-adv-x="401" 
d="M344 240h-287v66h287v-66z" />
    <glyph glyph-name="radical" unicode="&#x221a;" horiz-adv-x="559" 
d="M547 633h-80l-266 -641h-37l-92 224h-56l12 87h100l40 -98q16 -43 18 -49h2q45 119 73 185l153 371h133v-79z" />
    <glyph glyph-name="infinity" unicode="&#x221e;" horiz-adv-x="837" 
d="M762 0h-91v380h-178v-380h-91v380h-224v-380h-91v380h-77v73h77v34q0 100 52 156.5t144 56.5q62 0 107 -26l-18 -76q-41 26 -99 26q-44 0 -69.5 -34.5t-25.5 -82.5v-54h224v50q0 100 52 156.5t144 56.5q62 0 107 -26l-18 -76q-41 26 -99 26q-44 0 -69.5 -34.5
t-25.5 -82.5v-70h269v-453z" />
    <glyph glyph-name="integral" unicode="&#x222b;" horiz-adv-x="550" 
d="M511 0h-472v453h472v-453zM482 29v355h-384l241 -170q-42 -17 -66.5 -45.5t-24.5 -56.5q0 -54 52 -83h182zM257 29q-39 16 -60 61l-129 271v-332h189z" />
    <glyph glyph-name="approxequal" unicode="&#x2248;" horiz-adv-x="455" 
d="M415 351q-42 -48 -119 -48q-33 0 -73 19q-55 22 -71 22q-52 0 -95 -45l-17 74q44 49 120 49q32 0 72 -19q51 -22 71 -22q54 0 96 45zM415 179q-42 -48 -119 -48q-33 0 -73 19q-55 22 -71 22q-52 0 -95 -45l-17 74q44 49 120 49q32 0 72 -19q51 -22 71 -22q54 0 96 45z
" />
    <glyph glyph-name="notequal" unicode="&#x2260;" horiz-adv-x="650" 
d="M682 701l-16 -77q-33 16 -78 16q-44 0 -69.5 -34.5t-25.5 -82.5v-70h131l-15 -73h-116v-380h-91v380h-224v-380h-91v380h-77v73h77v34q0 100 52 156.5t144 56.5q62 0 107 -26l-18 -76q-41 26 -99 26q-44 0 -69.5 -34.5t-25.5 -82.5v-54h224v42q0 110 52 165.5t151 55.5
q41 0 77 -15z" />
    <glyph glyph-name="lessequal" unicode="&#x2264;" horiz-adv-x="358" 
d="M279 241l-59 -58l-180 180l180 180l59 -58l-121 -122zM294 0h-250v78h250v-78z" />
    <glyph glyph-name="greaterequal" unicode="&#x2265;" horiz-adv-x="358" 
d="M319 363l-180 -180l-59 58l121 122l-121 122l59 58zM315 0h-250v78h250v-78z" />
    <glyph glyph-name="lozenge" unicode="&#x25ca;" horiz-adv-x="585" 
d="M510 277l-223 -222l-222 222l222 222zM426 277l-139 138l-138 -138l138 -139z" />
    <glyph glyph-name="fi" unicode="&#xfb01;" horiz-adv-x="522" 
d="M447 0h-91v380h-178v-380h-91v380h-77v73h77v50q0 100 52 156.5t144 56.5q62 0 107 -26l-18 -76q-41 26 -99 26q-44 0 -69.5 -34.5t-25.5 -82.5v-70h269v-453z" />
    <glyph glyph-name="fl" unicode="&#xfb02;" horiz-adv-x="570" 
d="M534 47l-62 -62q-33 9 -61.5 38.5t-28.5 86.5v518q-25 12 -76 12q-55 0 -91.5 -40t-36.5 -108v-39h101l-16 -73h-85v-380h-91v380h-77v73h77v19q0 115 65 179.5t168 64.5q94 0 153 -45v-549q0 -30 18.5 -50.5t42.5 -24.5z" />
  </font>
</defs>
</svg>
