<?xml version="1.0" standalone="no"?>
<!DOCTYPE svg PUBLIC "-//W3C//DTD SVG 1.1//EN" "http://www.w3.org/Graphics/SVG/1.1/DTD/svg11.dtd" >
<svg xmlns="http://www.w3.org/2000/svg">
<metadata>
Created by FontPrep 20130207 at Fri Jun 19 11:26:52 2015
 By Thomas Brodin
Copyright (c) The Font Bureau, Inc., 2003. All rights reserved.
</metadata>
<defs>
<font id="0c8f0ab89752c403028557f16236c1d3" horiz-adv-x='1024' >
  <font-face 
    font-family="Agenda-Semibold"
    font-weight="600"
    font-stretch="normal"
    units-per-em="2048"
    panose-1="2 0 6 3 4 0 0 2 0 4"
    ascent="1464"
    descent="-584"
    x-height="928"
    cap-height="1307"
    bbox="-168 -483 2111 1909"
    underline-thickness="40"
    underline-position="-123"
    unicode-range="U+0020-FB02"
  />
<missing-glyph horiz-adv-x="2048" 
 />
    <glyph glyph-name="fi" unicode="fi" horiz-adv-x="1095" 
d="M995 0h-243v731h-344v-731h-240v731h-150v197h150v119q0 199 110 305t293 106q127 0 201 -31l-45 -196q-68 29 -129 29q-190 0 -190 -230v-102h587v-928z" />
    <glyph glyph-name="fl" unicode="fl" horiz-adv-x="1148" 
d="M408 1032v-104h170v-197h-170v-731h-240v731h-150v197h150v119q0 199 110 305t293 106q246 0 418 -160v-1011q0 -57 36 -95t89 -45l-117 -184q-106 10 -178 82t-71 211v954q-61 51 -154 52q-186 0 -186 -230z" />
    <glyph glyph-name="f_f_l" unicode="ffl" horiz-adv-x="1728" 
d="M408 1032v-104h340v119q0 88 20 151q-78 63 -174 64q-186 0 -186 -230zM1325 256v954q-61 51 -154 52q-186 0 -186 -230v-104h172v-197h-172v-731h-237v731h-340v-731h-240v731h-150v197h150v119q0 199 110 305t286 106t315 -88q104 88 270 88q246 0 418 -160v-1011
q0 -57 36 -95t89 -45l-115 -184q-106 10 -179 82t-73 211z" />
    <glyph glyph-name="f_f_i" unicode="ffi" horiz-adv-x="1675" 
d="M408 1032v-104h340v119q0 88 20 151q-78 63 -174 64q-186 0 -186 -230zM1573 0h-244v731h-344v-731h-237v731h-340v-731h-240v731h-150v197h150v119q0 199 110 305t286 106t315 -88q103 88 251 88t222 -31l-47 -196q-68 29 -127 29q-193 0 -193 -230v-102h588v-928z" />
    <glyph glyph-name="f_f" unicode="ff" horiz-adv-x="1286" 
d="M408 1032v-104h340v119q0 88 20 151q-78 63 -174 64q-186 0 -186 -230zM1178 1260q-193 0 -193 -230v-102h258l-43 -197h-215v-731h-237v731h-340v-731h-240v731h-150v197h150v119q0 199 110 305t286 106t315 -88q103 88 251 88t222 -31l-47 -196q-68 29 -127 29z" />
    <glyph glyph-name=".notdef" horiz-adv-x="2048" 
 />
    <glyph glyph-name=".null" horiz-adv-x="0" 
 />
    <glyph glyph-name="nonmarkingreturn" horiz-adv-x="681" 
 />
    <glyph glyph-name="space" unicode=" " horiz-adv-x="466" 
 />
    <glyph glyph-name="space" unicode="&#xa0;" horiz-adv-x="466" 
 />
    <glyph glyph-name="exclam" unicode="!" horiz-adv-x="567" 
d="M438 121q0 -35 -55 -91t-91 -56t-92 54q-56 56 -56 92t54 91q56 55 92 55t92 -55t56 -90zM426 1307l-37 -924l-207 45l-35 879h279z" />
    <glyph glyph-name="quotedbl" unicode="&#x22;" horiz-adv-x="694" 
d="M276 1307l-40 -523h-123l-35 523h198zM616 1307l-38 -523h-121l-39 523h198z" />
    <glyph glyph-name="numbersign" unicode="#" horiz-adv-x="811" 
d="M516 764h-170l-51 -219h170zM799 764h-129l-52 -219h123v-139h-155l-92 -406h-156l94 406h-170l-92 -406h-156l95 406h-97v139h129l52 219h-123v139h155l92 404h156l-94 -404h170l92 404h156l-95 -404h97v-139z" />
    <glyph glyph-name="dollar" unicode="$" horiz-adv-x="978" 
d="M905 373q0 -169 -99 -271t-265 -125v-176h-135v172q-190 10 -332 101l49 205q145 -102 309 -103q104 0 168 51q63 51 64 129q0 137 -213 205q-177 57 -275 159t-98 244t91 240t237 123v182h135v-174q154 -6 274 -69l-45 -199q-126 66 -236 66q-110 1 -165 -45t-56 -113
q0 -109 197 -178q395 -135 395 -424z" />
    <glyph glyph-name="percent" unicode="%" horiz-adv-x="1439" 
d="M489 1037q0 60 -35 98q-36 37 -89 37t-90 -37q-35 -37 -35 -97t36 -100q36 -39 88 -39t89 39q36 39 36 99zM666 1036q0 -131 -86 -215t-215 -84t-215 84t-86 215t86 215t214 84t215 -84t87 -215zM1300 1264l-1056 -1307l-107 88l1055 1307zM1198 273q0 59 -36 97t-89 38
t-89 -37t-36 -97t36 -100q36 -39 88 -39t89 39t37 99zM1374 272q0 -131 -86 -215t-215 -84t-215 84t-86 215t86 215t214 84t215 -84t87 -215z" />
    <glyph glyph-name="ampersand" unicode="&#x26;" horiz-adv-x="1320" 
d="M531 176q101 0 212 72l-290 291q-139 -74 -140 -193q1 -74 59 -122t159 -48zM678 989q0 61 -42 105t-108 45q-66 0 -106 -43q-41 -44 -41 -94t31 -95t98 -110q168 94 168 192zM522 -27q-208 -1 -328 103t-120 260q0 117 55 201t172 153q-145 156 -145 306t106 244
q106 95 260 95t269 -95t114 -249q0 -207 -237 -348l239 -240q92 115 148 269l159 -162q-55 -145 -149 -266l244 -244h-318l-90 90q-172 -117 -379 -117z" />
    <glyph glyph-name="quotesingle" unicode="'" horiz-adv-x="352" 
d="M276 1307l-40 -523h-123l-35 523h198z" />
    <glyph glyph-name="parenleft" unicode="(" horiz-adv-x="552" 
d="M74 502q0 530 221 966l246 -49q-225 -430 -225 -935t216 -959l-249 53q-104 219 -157 433q-52 214 -52 491z" />
    <glyph glyph-name="parenright" unicode=")" horiz-adv-x="552" 
d="M479 485q0 -530 -223 -966l-244 53q226 430 226 929t-218 963l248 -55q104 -221 158 -435t53 -489z" />
    <glyph glyph-name="asterisk" unicode="*" horiz-adv-x="878" 
d="M858 1057l-291 -78l166 -203l-131 -145l-164 254l-139 -221l-176 81l192 234l-254 65l23 191l274 -111l-16 260l195 43l-19 -301l238 101z" />
    <glyph glyph-name="plus" unicode="+" horiz-adv-x="927" 
d="M854 469h-283v-272h-213v272h-284v195h284v272h213v-272h283v-195z" />
    <glyph glyph-name="comma" unicode="," horiz-adv-x="430" 
d="M362 123q0 -88 -66 -211t-149 -199l-79 15q49 57 83 132t37 138q-36 6 -78 51t-42 79t55 86t90 52t92 -52t57 -91z" />
    <glyph glyph-name="hyphen" unicode="-" horiz-adv-x="673" 
d="M600 469h-526v195h526v-195z" />
    <glyph glyph-name="hyphen" unicode="&#xad;" horiz-adv-x="673" 
d="M600 469h-526v195h526v-195z" />
    <glyph glyph-name="period" unicode="." horiz-adv-x="430" 
d="M362 121q0 -35 -55 -91t-91 -56t-92 54q-56 56 -56 92t55 91t91 55t92 -55t56 -90z" />
    <glyph glyph-name="slash" unicode="/" horiz-adv-x="1005" 
d="M940 1311l-846 -1655l-168 88l846 1655z" />
    <glyph glyph-name="zero" unicode="0" horiz-adv-x="1062" 
d="M748 654q0 232 -62 352t-154 118q-92 0 -153 -118t-61 -352q0 -232 60 -350q62 -118 154 -118t154 118t62 350zM989 654q0 -331 -130 -506t-328 -175q-197 0 -327 174t-130 507t130 507t326 174t328 -175q131 -175 131 -506z" />
    <glyph glyph-name="one" unicode="1" horiz-adv-x="593" 
d="M475 0h-242v1102l-221 -23l47 209l416 39v-1327z" />
    <glyph glyph-name="two" unicode="2" horiz-adv-x="954" 
d="M881 0h-813v59q498 580 497 840q0 107 -54 165t-142 58q-131 0 -240 -71l-49 204q127 80 312 80q185 -1 302 -111t117 -313q0 -155 -99 -327t-270 -379h439v-205z" />
    <glyph glyph-name="three" unicode="3" horiz-adv-x="905" 
d="M831 397q0 -193 -131 -307t-356 -113q-133 0 -231 43l-25 224q112 -62 222 -62t187 58t77 158t-70 163t-168 64q-20 0 -37 -2l-43 186q96 19 160 69t63 111q0 61 -42 96q-41 35 -125 35t-181 -55l-45 203q126 66 280 66t258 -85q104 -84 103 -219q0 -98 -55 -166
t-131 -90q117 -29 203 -126t87 -251z" />
    <glyph glyph-name="four" unicode="4" horiz-adv-x="1019" 
d="M563 526v277q0 39 4 137l-4 4q-43 -72 -98 -143l-209 -275h307zM946 328h-145v-328h-238v328h-510l-41 186l598 793h191v-779h145v-200z" />
    <glyph glyph-name="five" unicode="5" horiz-adv-x="948" 
d="M451 842q175 0 299 -118t124 -312q0 -195 -126 -317t-353 -122q-156 0 -254 52l-24 227q117 -70 239 -70t195 62q72 62 72 164t-72 166q-73 64 -189 65q-116 0 -208 -35l20 703h612l-45 -205h-333l-9 -264q29 4 52 4z" />
    <glyph glyph-name="six" unicode="6" horiz-adv-x="1048" 
d="M750 399q0 97 -60 161t-153 65q-178 0 -222 -156q-2 -18 -2 -55q0 -100 68 -169t157 -69q88 0 150 62t62 161zM985 408q0 -190 -129 -312q-129 -123 -324 -123q-194 0 -326 129t-132 372t163 492t416 388l244 -90q-358 -184 -502 -480q74 53 176 54q172 0 293 -120
t121 -310z" />
    <glyph glyph-name="seven" unicode="7" horiz-adv-x="933" 
d="M12 1102v205h891l-549 -1307h-256l471 1102h-557z" />
    <glyph glyph-name="eight" unicode="8" horiz-adv-x="1058" 
d="M743 373q0 82 -70 142q-71 60 -159 83q-82 -23 -148 -83t-65 -142q0 -81 66 -139q67 -58 157 -58t155 57q64 58 64 140zM709 986q1 64 -51 110q-52 45 -127 45t-125 -45q-50 -44 -52 -108q0 -64 52 -114t133 -73q80 23 125 72t45 113zM985 371q0 -182 -129 -290
t-328 -108q-198 0 -326 108t-128 290q0 123 76 213t163 125q-78 33 -133 109t-55 173q0 152 113 248q112 96 288 96t290 -96t114 -250q0 -92 -56 -170t-131 -106q88 -31 165 -124t77 -218z" />
    <glyph glyph-name="nine" unicode="9" horiz-adv-x="1048" 
d="M301 900q0 -98 60 -162t153 -64q176 0 219 157l2 54q0 100 -67 170q-68 69 -156 69t-150 -63t-61 -161zM975 834q0 -242 -163 -491t-417 -388l-243 92q369 188 505 479q-76 -53 -180 -53q-172 0 -293 119q-121 118 -121 308q-1 190 129 312t326 123q196 0 326 -129
q131 -130 131 -372z" />
    <glyph glyph-name="colon" unicode=":" horiz-adv-x="430" 
d="M362 121q0 -35 -55 -91t-91 -56t-92 54q-56 56 -56 92t55 91t91 55t92 -55t56 -90zM362 807q0 -35 -55 -90t-91 -55t-92 55t-56 90t55 91t91 56t92 -56t56 -91z" />
    <glyph glyph-name="semicolon" unicode=";" horiz-adv-x="430" 
d="M362 123q0 -88 -66 -211t-149 -199l-79 15q49 57 83 132t37 138q-36 6 -78 51t-42 79t55 86t90 52t92 -52t57 -91zM362 807q0 -35 -55 -90t-91 -55t-92 55t-56 90t55 91t91 56t92 -56t56 -91z" />
    <glyph glyph-name="less" unicode="&#x3c;" horiz-adv-x="927" 
d="M854 176l-780 256v270l780 263v-203l-608 -195l608 -188v-203z" />
    <glyph glyph-name="equal" unicode="=" horiz-adv-x="927" 
d="M854 285h-780v194h780v-194zM854 653h-780v195h780v-195z" />
    <glyph glyph-name="greater" unicode="&#x3e;" horiz-adv-x="927" 
d="M854 432l-780 -256v203l608 188l-608 195v203l780 -263v-270z" />
    <glyph glyph-name="question" unicode="?" horiz-adv-x="794" 
d="M532 121q0 -35 -55 -91t-91 -56t-92 54q-56 56 -56 92t55 91t92 55t92 -55t55 -90zM729 999q0 -87 -40 -157t-127 -166t-87 -187q0 -55 10 -106l-213 43q-14 55 -14 104q0 166 119 289q51 53 74 93t23 88t-38 84t-120 36t-197 -69l-49 211q114 74 280 74t272 -92
q106 -91 107 -245z" />
    <glyph glyph-name="at" unicode="@" horiz-adv-x="1550" 
d="M883 553v53l-101 -10q-100 -10 -100 -90q0 -30 23 -52t65 -22t78 34q35 34 35 87zM1479 688q1 -170 -95 -292t-256 -122q-61 0 -113 32t-65 95q-53 -125 -219 -125q-102 0 -172 66t-70 163t70 159t174 71l150 15v26q1 84 -111 84t-211 -59l-39 153q113 70 254 70t225 -70
t84 -194v-268q0 -68 54 -68q72 0 122 70t50 194q0 215 -159 353q-159 139 -375 139t-376 -142q-159 -142 -159 -380q0 -236 154 -379t362 -144q125 0 188 21l-18 -152q-45 -18 -174 -18q-279 0 -481 185t-201 488q0 203 102 360t263 237t343 79q283 0 491 -181t208 -466z
" />
    <glyph glyph-name="A" unicode="A" horiz-adv-x="1277" 
d="M791 518l-109 281q-29 76 -47 141h-4q-10 -41 -47 -141l-109 -281h316zM1247 0h-258l-125 315h-461l-124 -315h-248l536 1321h146z" />
    <glyph glyph-name="B" unicode="B" horiz-adv-x="1083" 
d="M758 399q0 99 -68 151t-164 52h-170v-405h170q96 0 164 52t68 150zM475 797q76 1 125 39t49 115t-49 116t-125 39h-119v-309h119zM1010 401q0 -185 -128 -293t-309 -108h-454v1307h397q152 1 264 -93t111 -251q0 -68 -31 -133t-84 -91q94 -29 164 -123t70 -215z" />
    <glyph glyph-name="C" unicode="C" horiz-adv-x="1218" 
d="M788 1096q-182 0 -318 -121t-136 -326t137 -325t329 -121q192 0 310 65l-23 -227q-115 -55 -302 -55t-343 72t-262 230q-106 156 -106 366t107 367q208 302 619 302q200 0 345 -82l-47 -223q-128 78 -310 78z" />
    <glyph glyph-name="D" unicode="D" horiz-adv-x="1318" 
d="M983 651q0 213 -134 327t-341 114h-133v-881h133q207 -1 341 113t134 327zM1245 653q0 -299 -207 -476t-497 -177h-422v1307h422q291 1 497 -177t207 -477z" />
    <glyph glyph-name="E" unicode="E" horiz-adv-x="925" 
d="M913 0h-794v1307h729v-215h-473v-328h393v-217h-393v-332h538v-215z" />
    <glyph glyph-name="F" unicode="F" horiz-adv-x="872" 
d="M860 1092h-485v-328h405v-217h-405v-547h-256v1307h741v-215z" />
    <glyph glyph-name="G" unicode="G" horiz-adv-x="1376" 
d="M74 654q0 161 63 294t167 216q213 171 477 171q265 0 427 -104l-47 -219q-151 98 -349 98t-339 -125t-141 -337t138 -335t337 -123q145 0 227 54v248h-262v202h504v-583q-170 -137 -466 -137t-509 172q-102 83 -165 215q-62 132 -62 293z" />
    <glyph glyph-name="H" unicode="H" horiz-adv-x="1343" 
d="M1225 0h-258v545h-590v-545h-258v1307h258v-541h590v541h258v-1307z" />
    <glyph glyph-name="I" unicode="I" horiz-adv-x="538" 
d="M397 0h-258v1307h258v-1307z" />
    <glyph glyph-name="J" unicode="J" horiz-adv-x="544" 
d="M403 266q1 -236 -123 -383t-284 -180l-164 166q315 66 315 418v1020h256v-1041z" />
    <glyph glyph-name="K" unicode="K" horiz-adv-x="1157" 
d="M377 573v-573h-258v1307h258v-586h2l455 586h284l-497 -641l518 -666h-320l-440 573h-2z" />
    <glyph glyph-name="L" unicode="L" horiz-adv-x="923" 
d="M911 0h-792v1307h258v-1092h534v-215z" />
    <glyph glyph-name="M" unicode="M" horiz-adv-x="1685" 
d="M1608 0h-250l-47 537q-14 190 -17 268h-4q-39 -100 -129 -275l-274 -538h-101l-278 538q-59 115 -127 273h-4q-2 -94 -17 -266l-47 -537h-235l112 1307h193l317 -611q98 -188 148 -307h4q49 123 143 307l312 611h184z" />
    <glyph glyph-name="N" unicode="N" horiz-adv-x="1437" 
d="M1319 -20h-111l-563 614q-82 90 -274 315l-4 -2q4 -106 4 -301v-606h-252v1307h198l504 -551q160 -174 246 -283l4 2q-4 90 -4 277v555h252v-1327z" />
    <glyph glyph-name="O" unicode="O" horiz-adv-x="1544" 
d="M1208 651q0 203 -132 329t-305 126t-304 -125t-131 -329t131 -330t304 -127q173 1 305 127t132 329zM1470 655q0 -303 -208 -492t-490 -189t-490 188q-208 190 -208 493q0 203 101 361t259 238t338 81q180 0 338 -81q158 -80 259 -238t101 -361z" />
    <glyph glyph-name="P" unicode="P" horiz-adv-x="1046" 
d="M729 919q0 83 -56 128t-138 45h-164v-344h164q80 0 137 44t57 127zM983 926q0 -176 -122 -278t-286 -103h-204v-545h-252v1307h456q164 -1 286 -103t122 -278z" />
    <glyph glyph-name="Q" unicode="Q" horiz-adv-x="1544" 
d="M1208 651q0 203 -132 329t-305 126t-304 -125t-131 -329t131 -330t304 -127q173 1 305 127t132 329zM1358 -285q-180 -1 -334 87t-332 175q-254 29 -436 212t-182 466q0 203 101 361t259 238t338 81q180 0 338 -81q158 -80 259 -238t101 -378t-140 -392
q-140 -170 -337 -207v-4q70 -11 191 -69t216 -58t154 22l-145 -211q-14 -4 -51 -4z" />
    <glyph glyph-name="R" unicode="R" horiz-adv-x="1114" 
d="M514 748q80 0 138 44t57 127t-57 128t-138 45h-143v-344h143zM371 545v-545h-252v1307h436q164 -1 286 -103t122 -278q-1 -117 -61 -204t-154 -128l432 -594h-312l-381 545h-116z" />
    <glyph glyph-name="S" unicode="S" horiz-adv-x="999" 
d="M926 375q0 -174 -120 -282q-120 -107 -339 -107t-352 88l-27 252q168 -123 369 -123q96 0 153 44t58 118q0 73 -45 117t-150 75q-362 106 -362 395q0 158 112 265q113 106 309 106t310 -74l-49 -211q-115 72 -225 72t-160 -41t-50 -100t44 -97t137 -67q191 -59 289 -157
t98 -273z" />
    <glyph glyph-name="T" unicode="T" horiz-adv-x="1077" 
d="M1065 1092h-397v-1092h-258v1092h-398v215h1053v-215z" />
    <glyph glyph-name="U" unicode="U" horiz-adv-x="1337" 
d="M1219 465q0 -227 -156 -359q-157 -132 -395 -133q-238 0 -394 133t-155 359v842h258v-820q0 -133 78 -211t217 -78t217 78q78 76 78 209v822h252v-842z" />
    <glyph glyph-name="V" unicode="V" horiz-adv-x="1218" 
d="M1188 1307l-498 -1321h-162l-497 1321h266l223 -600q49 -133 98 -299h5q41 150 96 299l223 600h246z" />
    <glyph glyph-name="W" unicode="W" horiz-adv-x="1867" 
d="M1837 1307l-451 -1321h-135l-217 639q-57 166 -100 321h-4q-41 -150 -99 -321l-217 -639h-135l-448 1321h254l190 -566q59 -172 84 -280h4q33 137 82 280l191 566h221l190 -566q47 -135 82 -280h4q29 125 82 280l193 566h229z" />
    <glyph glyph-name="X" unicode="X" horiz-adv-x="1282" 
d="M1208 0h-286l-195 313q-23 37 -90 158h-4q-47 -86 -92 -158l-197 -313h-270l418 662l-398 645h285l184 -295q49 -82 82 -148h4q25 51 84 148l187 295h268l-397 -633z" />
    <glyph glyph-name="Y" unicode="Y" horiz-adv-x="1300" 
d="M776 0h-252v590l-493 717h278l240 -342q47 -68 108 -170h5q57 96 110 170l238 342h260l-494 -713v-594z" />
    <glyph glyph-name="Z" unicode="Z" horiz-adv-x="1103" 
d="M1030 0h-956v61l391 695q76 133 201 334l-2 2h-558v215h902v-62l-396 -696q-68 -119 -198 -332l2 -2h614v-215z" />
    <glyph glyph-name="bracketleft" unicode="[" horiz-adv-x="616" 
d="M604 -453h-485v1893h485v-203h-246v-1487h246v-203z" />
    <glyph glyph-name="backslash" unicode="\" horiz-adv-x="1003" 
d="M1077 -256l-168 -88l-846 1655l168 88z" />
    <glyph glyph-name="bracketright" unicode="]" horiz-adv-x="616" 
d="M498 -453h-486v203h246v1487h-246v203h486v-1893z" />
    <glyph glyph-name="asciicircum" unicode="^" 
d="M513 1434q36 0 67 -43q118 -166 290 -293l-139 -60q-145 86 -229 160q-119 -100 -219 -160l-129 58q174 131 290 295q33 43 69 43z" />
    <glyph glyph-name="underscore" unicode="_" horiz-adv-x="1075" 
d="M1079 -473h-1081v194h1081v-194z" />
    <glyph glyph-name="grave" unicode="`" 
d="M176 1326q0 24 42 66t74 42t62 -43q119 -166 291 -293l-139 -60q-178 106 -295 228q-35 36 -35 60z" />
    <glyph glyph-name="a" unicode="a" horiz-adv-x="935" 
d="M575 334v82l-145 -13q-70 -6 -104 -44t-35 -86q0 -47 32 -79q31 -32 93 -32t110 48t49 124zM367 -27q-131 0 -219 85q-87 85 -87 211q-1 126 89 207t223 93l202 19v45q0 55 -40 89q-41 34 -123 34q-141 0 -258 -74l-45 192q125 80 308 80t289 -87t105 -249v-339
q0 -135 111 -166l-164 -144q-47 10 -89 45t-57 88q-59 -129 -245 -129z" />
    <glyph glyph-name="b" unicode="b" horiz-adv-x="1124" 
d="M815 458q0 122 -73 200q-72 78 -196 79q-124 0 -196 -82v-430q68 -45 188 -45t198 78q79 78 79 200zM1061 469q0 -217 -140 -355t-389 -139q-126 0 -240 38t-181 89v1356h239v-573q29 27 101 47t143 20q199 0 333 -133t134 -350z" />
    <glyph glyph-name="c" unicode="c" horiz-adv-x="921" 
d="M597 729q-120 0 -202 -76q-82 -77 -82 -195t83 -194t199 -76t224 54l-24 -213q-92 -45 -234 -45q-201 0 -349 133t-148 347t148 347t336 133t310 -70l-45 -208q-96 63 -216 63z" />
    <glyph glyph-name="d" unicode="d" horiz-adv-x="1126" 
d="M582 737q-124 0 -200 -79q-76 -80 -75 -200q0 -120 75 -199q74 -79 200 -79t196 107v362q-72 88 -196 88zM1016 0h-219v109h-2q-81 -133 -271 -133t-325 130t-135 352t134 358q136 136 337 136q71 0 143 -22t100 -47v575h238v-1458z" />
    <glyph glyph-name="e" unicode="e" horiz-adv-x="1005" 
d="M538 762q-74 0 -141 -53q-66 -53 -80 -134h390l2 23q-1 60 -49 112t-122 52zM942 592q0 -43 -6 -74l-119 -119h-506q6 -83 89 -151q84 -68 226 -68t251 74l-25 -221q-119 -59 -285 -60q-211 -1 -358 137t-147 357t140 353t328 134t300 -108t112 -254z" />
    <glyph glyph-name="f" unicode="f" horiz-adv-x="708" 
d="M598 1260q-190 0 -190 -230v-102h282l-47 -197h-235v-731h-240v731h-150v197h150v119q0 199 110 305t293 106q127 0 201 -31l-45 -196q-68 29 -129 29z" />
    <glyph glyph-name="g" unicode="g" horiz-adv-x="966" 
d="M694 -152q0 94 -116 129l-136 39q-70 -2 -112 -43t-43 -103q0 -62 54 -106q55 -44 151 -45q96 0 149 39t53 90zM633 633q0 55 -42 96q-41 41 -105 41t-107 -41t-43 -96t43 -95t104 -40t106 40q44 40 44 95zM928 -162q0 -131 -120 -221t-312 -90t-314 96q-121 96 -121 244
q-1 106 59 174t140 86l-113 111q2 45 37 85t80 56q-63 37 -104 103t-41 149q0 143 100 233t266 90q70 0 129 -16t135 -16t138 32l43 -190q-47 -29 -115 -29q33 -45 33 -114q0 -125 -89 -214t-235 -94q-88 -4 -88 -43q0 -23 25 -30l196 -70q135 -49 203 -125t68 -207z" />
    <glyph glyph-name="h" unicode="h" horiz-adv-x="1060" 
d="M958 0h-243v584q0 68 -44 114t-131 45q-86 0 -136 -48t-50 -115v-580h-243v1458h241v-620h2q78 115 267 114q153 0 245 -86t92 -235v-631z" />
    <glyph glyph-name="i" unicode="i" horiz-adv-x="477" 
d="M362 0h-247v928h247v-928zM375 1219q0 -35 -50 -86t-85 -51t-86 50q-51 52 -52 87q0 35 52 86t86 51q35 0 85 -51t50 -86z" />
    <glyph glyph-name="j" unicode="j" horiz-adv-x="477" 
d="M362 -74q0 -152 -86 -260t-206 -141l-150 145q195 51 195 273v985h247v-1002zM375 1219q0 -35 -50 -86t-85 -51t-86 50q-51 52 -52 87q0 35 52 86t86 51q35 0 85 -51t50 -86z" />
    <glyph glyph-name="k" unicode="k" horiz-adv-x="980" 
d="M352 406v-406h-241v1458h241v-940h2l336 410h275l-367 -455l383 -473h-297l-330 406h-2z" />
    <glyph glyph-name="l" unicode="l" horiz-adv-x="514" 
d="M111 1458h241v-1171q0 -57 36 -95t89 -45l-115 -184q-106 10 -179 82t-72 211v1202z" />
    <glyph glyph-name="m" unicode="m" horiz-adv-x="1613" 
d="M1513 0h-243v584q0 160 -166 159q-90 0 -132 -46t-42 -117v-580h-244v584q0 160 -166 159q-90 0 -132 -46t-42 -117v-580h-244v928h220l4 -125h2q66 150 274 149q94 0 168 -38t107 -105q35 63 115 103t179 40q160 0 251 -86t91 -237v-629z" />
    <glyph glyph-name="n" unicode="n" horiz-adv-x="1052" 
d="M950 0h-243v584q0 68 -44 114q-43 46 -131 45q-88 0 -137 -48t-49 -115v-580h-244v928h222v-123h2q63 147 286 147q154 0 246 -86t92 -235v-631z" />
    <glyph glyph-name="o" unicode="o" horiz-adv-x="1124" 
d="M819 459q0 121 -76 201t-180 79q-104 0 -180 -80q-76 -81 -76 -201t76 -199t180 -79t180 79t76 200zM562 954q212 0 356 -137t143 -353q0 -216 -143 -353q-144 -137 -356 -137t-355 136q-143 138 -143 354t142 353q144 137 356 137z" />
    <glyph glyph-name="p" unicode="p" horiz-adv-x="1118" 
d="M811 459q0 121 -75 199q-74 78 -200 79q-126 0 -196 -106v-363q72 -88 196 -88t200 79t75 200zM595 952q189 0 325 -131t135 -352q0 -221 -135 -357t-336 -137q-72 0 -144 22t-100 48v-518h-238v1401h220v-109h2q82 133 271 133z" />
    <glyph glyph-name="q" unicode="q" horiz-adv-x="1114" 
d="M594 737q-127 0 -207 -79q-80 -80 -80 -200t79 -199q80 -79 198 -79t190 82v412q-25 23 -79 43t-101 20zM1014 -473h-240v518q-30 -27 -98 -49t-137 -21q-205 1 -340 137t-135 349t140 352t369 139q156 0 277 -73l96 71h68v-1423z" />
    <glyph glyph-name="r" unicode="r" horiz-adv-x="714" 
d="M561 686q-94 0 -154 -54t-61 -181v-451h-244v928h242v-199h2q25 102 95 158q71 55 149 55t110 -12l-61 -258q-39 14 -78 14z" />
    <glyph glyph-name="s" unicode="s" horiz-adv-x="786" 
d="M725 265q0 -121 -91 -201t-254 -80t-280 65l-26 232q131 -102 288 -103q51 0 84 24t33 60q0 68 -106 103q-141 47 -213 117t-72 189q0 117 91 195t245 78t250 -57l-43 -189q-90 55 -201 56q-47 0 -75 -23q-27 -23 -27 -57t24 -54q24 -22 82 -38q147 -47 219 -122t72 -195
z" />
    <glyph glyph-name="t" unicode="t" horiz-adv-x="757" 
d="M428 311q0 -127 128 -127q58 0 91 13l-20 -189q-45 -20 -121 -20q-143 0 -231 74q-87 75 -87 210v459h-170v197h170v192l240 105v-297h313l-43 -197h-270v-420z" />
    <glyph glyph-name="u" unicode="u" horiz-adv-x="1052" 
d="M950 0h-223v123h-2q-63 -147 -285 -148q-154 0 -246 87t-92 237v629h244v-582q0 -68 44 -115t131 -47t136 48t50 116v580h243v-928z" />
    <glyph glyph-name="v" unicode="v" horiz-adv-x="956" 
d="M926 928l-373 -940h-150l-372 940h239l150 -385q37 -98 63 -195h4q27 96 64 195l149 385h226z" />
    <glyph glyph-name="w" unicode="w" horiz-adv-x="1435" 
d="M1405 928l-338 -940h-137l-148 409q-31 88 -65 215h-4q-27 -111 -62 -211l-147 -413h-133l-338 940h225l131 -375q25 -72 53 -191h4q27 111 56 191l133 375h180l133 -375q16 -47 53 -191h5q39 150 53 191l133 375h213z" />
    <glyph glyph-name="x" unicode="x" horiz-adv-x="956" 
d="M893 0h-254l-111 193q-29 49 -51 98h-4q-8 -20 -28 -55q-21 -35 -25 -43l-111 -193h-246l277 467l-264 461h252l102 -180q25 -43 47 -89h4q12 29 49 89l105 180h246l-265 -449z" />
    <glyph glyph-name="y" unicode="y" horiz-adv-x="978" 
d="M948 928l-327 -838q-100 -254 -213 -384t-256 -189l-152 151q125 48 215 144t156 262l-340 854h241l152 -389q53 -141 68 -199h4q33 96 71 197l154 391h227z" />
    <glyph glyph-name="z" unicode="z" horiz-adv-x="886" 
d="M823 0h-760v47l261 453q80 141 137 227l-2 4h-363v197h692v-47l-262 -455q-61 -104 -137 -225l2 -2h432v-199z" />
    <glyph glyph-name="braceleft" unicode="{" horiz-adv-x="679" 
d="M432 924q0 -289 -158 -432q158 -137 158 -433q0 -321 236 -321l-35 -193q-215 -1 -327 143t-111 384q0 305 -183 420q182 117 183 421q0 240 111 382q112 142 327 143l35 -193q-236 0 -236 -321z" />
    <glyph glyph-name="bar" unicode="|" horiz-adv-x="434" 
d="M313 -473h-194v1931h194v-1931z" />
    <glyph glyph-name="braceright" unicode="}" horiz-adv-x="679" 
d="M248 59q0 295 158 433q-158 143 -158 432q0 322 -236 321l35 193q215 0 327 -142t111 -383q1 -304 183 -421q-182 -117 -183 -420q1 -240 -111 -383t-327 -144l-35 193q236 0 236 321z" />
    <glyph glyph-name="asciitilde" unicode="~" horiz-adv-x="796" 
d="M504 428q-36 0 -107 41q-70 41 -86 41q-35 0 -118 -109l-119 52q42 75 112 153t107 78t107 -40t85 -40q35 0 119 109l119 -51q-43 -76 -113 -155t-106 -79z" />
    <glyph glyph-name="exclamdown" unicode="&#xa1;" horiz-adv-x="548" 
d="M412 0h-279l37 924l205 -43zM265 1333q37 0 93 -55t56 -91t-56 -91q-56 -56 -91 -56q-36 0 -92 56t-56 90q0 35 55 91t91 56z" />
    <glyph glyph-name="cent" unicode="&#xa2;" horiz-adv-x="921" 
d="M633 0h-137v172q-182 23 -308 151q-125 129 -125 325t126 325t307 151v183h137v-183q127 -12 225 -65l-45 -209q-96 63 -216 63q-120 1 -202 -75t-82 -195t83 -195t199 -75q116 0 224 53l-24 -213q-66 -31 -162 -41v-172z" />
    <glyph glyph-name="sterling" unicode="&#xa3;" horiz-adv-x="911" 
d="M168 510v80h-150v133h150v184q0 203 113 313t303 109q127 0 204 -33l-45 -196q-63 29 -133 28q-201 0 -200 -233v-172h239l-31 -133h-208v-88q0 -207 -72 -301q78 25 218 25t282 -50l-43 -203q-133 55 -311 55t-310 -55l-106 142q100 152 100 395z" />
    <glyph glyph-name="currency" unicode="&#xa4;" horiz-adv-x="1017" 
d="M730 182q110 0 183 45l-24 -209q-72 -41 -205 -41q-182 0 -323 128q-140 128 -183 364h-160v133h146l-2 51l2 60h-146v133h162q44 231 184 357t309 126t271 -61l-43 -195q-78 51 -184 51t-185 -69q-78 -70 -110 -209h334l-27 -133h-326q-2 -20 -2 -62l2 -49h334l-28 -133
h-289q33 -143 116 -215q84 -72 194 -72z" />
    <glyph glyph-name="yen" unicode="&#xa5;" horiz-adv-x="1081" 
d="M958 629v-135h-294v-494h-246v494h-295v135h250l-342 678h256l182 -365q45 -94 80 -182h4q55 129 82 182l182 365h234l-342 -678h249z" />
    <glyph glyph-name="brokenbar" unicode="&#xa6;" horiz-adv-x="479" 
d="M338 -473h-195v844h195v-844zM338 614h-195v844h195v-844z" />
    <glyph glyph-name="section" unicode="&#xa7;" horiz-adv-x="1009" 
d="M731 287l-424 426l-28 -129l421 -426zM891 -98q0 -154 -114 -259t-300 -105t-321 71l47 213q117 -70 258 -70q90 0 137 41t47 99t-39 96l-477 485l64 277q-74 102 -74 219q0 154 113 259q114 105 300 105t322 -71l-47 -213q-117 70 -258 69q-90 0 -137 -41t-47 -98
t38 -96l478 -484l-64 -278q74 -100 74 -219z" />
    <glyph glyph-name="dieresis" unicode="&#xa8;" 
d="M463 1160q0 -30 -45 -76t-74 -46t-76 46t-47 76t46 76t76 46t75 -46t45 -76zM803 1160q0 -30 -45 -76t-76 -46t-76 46t-45 76t45 76t76 46t76 -46t45 -76z" />
    <glyph glyph-name="copyright" unicode="&#xa9;" horiz-adv-x="1239" 
d="M668 653q-66 0 -107 -39t-41 -99t42 -99t106 -39t127 33l-17 -150q-57 -31 -133 -31q-121 0 -210 79t-89 208t90 209t206 80t179 -45l-33 -148q-54 41 -120 41zM1034 512q0 182 -115 302q-116 120 -299 120t-299 -120t-116 -301t116 -302t299 -121t299 120
q115 120 115 302zM620 1055q232 -1 388 -153t157 -389t-155 -389t-388 -153q-232 0 -391 153q-157 154 -157 390t158 388q156 152 388 153z" />
    <glyph glyph-name="ordfeminine" unicode="&#xaa;" horiz-adv-x="788" 
d="M518 302q0 -30 -47 -77t-77 -47t-77 47t-47 77t47 77t77 47t77 -47t47 -77zM471 844v59l-123 -12q-44 -4 -68 -34t-24 -67q0 -38 24 -60t66 -22t83 39q42 38 42 97zM311 553q-106 0 -178 69t-72 170t74 164t182 76l154 17v30q0 90 -120 90t-214 -61l-37 162
q106 68 254 68t234 -70t86 -201v-268q0 -102 92 -127l-139 -123q-88 18 -121 94q-53 -90 -195 -90z" />
    <glyph glyph-name="guillemotleft" unicode="&#xab;" horiz-adv-x="860" 
d="M31 462q0 36 39 64q154 113 270 267l33 -74q-53 -141 -121 -256q58 -96 121 -256l-33 -74q-123 160 -270 266q-39 27 -39 63zM793 207l-33 -74q-123 160 -271 266q-39 27 -39 63t39 64q154 113 271 267l33 -74q-53 -141 -121 -256q58 -96 121 -256z" />
    <glyph glyph-name="logicalnot" unicode="&#xac;" horiz-adv-x="1042" 
d="M940 258h-201v211h-669v195h870v-406z" />
    <glyph glyph-name="registered" unicode="&#xae;" horiz-adv-x="964" 
d="M545 1015q0 62 -74 62h-39v-125h39q74 1 74 63zM432 860v-188h-106v495h157q68 0 119 -42q51 -41 51 -117t-71 -119l114 -162l-90 -57l-127 190h-47zM805 921q0 142 -93 234q-92 92 -232 92t-232 -92t-92 -235q0 -142 92 -234t231 -92t233 92q93 93 93 235zM901 920
q0 -180 -122 -298t-300 -118t-298 118t-120 298t120 298t298 118t300 -118t122 -298z" />
    <glyph glyph-name="macron" unicode="&#xaf;" 
d="M717 1065h-404v166h404v-166z" />
    <glyph glyph-name="macron" unicode="&#x2c9;" 
d="M717 1065h-404v166h404v-166z" />
    <glyph glyph-name="degree" unicode="&#xb0;" horiz-adv-x="624" 
d="M406 1094q0 46 -26 74t-67 28t-69 -29t-27 -73q0 -44 28 -74q29 -29 69 -29t66 29t26 74zM557 1094q0 -100 -72 -172t-172 -72t-173 72t-72 172q0 100 72 171q73 71 173 71t172 -72q72 -70 72 -170z" />
    <glyph glyph-name="plusminus" unicode="&#xb1;" horiz-adv-x="1728" 
d="M408 1032v-104h340v119q0 88 20 151q-78 63 -174 64q-186 0 -186 -230zM1325 256v954q-61 51 -154 52q-186 0 -186 -230v-104h172v-197h-172v-731h-237v731h-340v-731h-240v731h-150v197h150v119q0 199 110 305t286 106t315 -88q104 88 270 88q246 0 418 -160v-1011
q0 -57 36 -95t89 -45l-115 -184q-106 10 -179 82t-73 211z" />
    <glyph glyph-name="twosuperior" unicode="&#xb2;" horiz-adv-x="720" 
d="M627 506h-570v43q365 317 365 495q0 68 -43 108t-123 40t-168 -49l-29 135q88 53 225 53q136 0 218 -75t82 -205q0 -182 -238 -410h281v-135z" />
    <glyph glyph-name="threesuperior" unicode="&#xb3;" horiz-adv-x="628" 
d="M557 738q0 -104 -85 -174q-85 -71 -230 -70q-86 0 -154 28l-16 150q72 -41 144 -41t121 35q48 35 48 93t-44 96t-103 38q-12 0 -29 -2l-27 123q63 12 104 41q40 29 40 63t-26 56q-26 20 -77 20t-119 -37l-30 133q78 41 180 41t170 -53t68 -137q0 -106 -109 -154
q74 -23 124 -84t50 -165z" />
    <glyph glyph-name="acute" unicode="&#xb4;" 
d="M840 1332q0 -20 -35 -60q-121 -127 -299 -234l-127 56q178 139 291 299q28 41 58 41t71 -41t41 -61z" />
    <glyph glyph-name="mu" unicode="&#xb5;" horiz-adv-x="1210" 
d="M977 59v164l-778 367q-39 18 -70 55v-586h848zM446 786h-317q0 -66 46 -112t112 -45q67 -1 113 45t46 112zM977 786h-303l303 -303v303zM1036 0h-966v928h966v-500l115 -115q0 -53 -35 -84t-80 -30v-199z" />
    <glyph glyph-name="mu" unicode="&#x3bc;" horiz-adv-x="1210" 
d="M977 59v164l-778 367q-39 18 -70 55v-586h848zM446 786h-317q0 -66 46 -112t112 -45q67 -1 113 45t46 112zM977 786h-303l303 -303v303zM1036 0h-966v928h966v-500l115 -115q0 -53 -35 -84t-80 -30v-199z" />
    <glyph glyph-name="paragraph" unicode="&#xb6;" horiz-adv-x="940" 
d="M928 1116h-152v-1190q0 -154 -86 -262t-205 -141l-153 151q199 49 198 267v555h-16q-184 0 -317 110t-134 297q1 188 135 301t318 113h412v-201z" />
    <glyph glyph-name="periodcentered" unicode="&#xb7;" horiz-adv-x="430" 
d="M362 555q0 -35 -55 -91t-91 -56t-92 55t-56 91t55 91t91 55t92 -55t56 -90z" />
    <glyph glyph-name="periodcentered" unicode="&#x2219;" horiz-adv-x="430" 
d="M362 555q0 -35 -55 -91t-91 -56t-92 55t-56 91t55 91t91 55t92 -55t56 -90z" />
    <glyph glyph-name="cedilla" unicode="&#xb8;" 
d="M688 -270q0 -94 -70 -152t-162 -57q-92 0 -159 47l25 117q58 -41 114 -41t82 24t25 62q0 38 -25 62q-24 24 -60 24t-57 23q-20 24 -10 61l25 100h86l-13 -55q75 -5 137 -63t62 -152z" />
    <glyph glyph-name="onesuperior" unicode="&#xb9;" horiz-adv-x="528" 
d="M381 506h-162v663l-158 -16l33 150l287 28v-825z" />
    <glyph glyph-name="ordmasculine" unicode="&#xba;" horiz-adv-x="929" 
d="M588 302q0 -30 -46 -77t-76 -47t-76 47t-46 77t46 77t76 47t76 -47t46 -77zM657 944q0 92 -56 152t-136 61q-80 0 -136 -59q-57 -58 -57 -152t56 -155t136 -61q79 0 136 60q57 62 57 154zM868 944q0 -172 -116 -282t-287 -109q-172 0 -288 110q-116 109 -116 281t116 283
t288 111t288 -111q115 -111 115 -283z" />
    <glyph glyph-name="guillemotright" unicode="&#xbb;" horiz-adv-x="860" 
d="M410 462q0 -36 -39 -63q-156 -111 -271 -266l-32 74q57 154 120 256q-63 102 -120 256l32 74q109 -147 271 -267q39 -28 39 -64zM829 461q0 -35 -41 -62q-156 -111 -270 -266l-31 74q61 164 119 256q-57 92 -119 256l31 74q109 -147 270 -267q41 -30 41 -65z" />
    <glyph glyph-name="onequarter" unicode="&#xbc;" horiz-adv-x="1511" 
d="M381 506h-162v663l-158 -16l33 150l287 28v-825zM1280 1262l-1044 -1293l-97 76l1049 1292zM1161 358v177q0 39 6 86l-4 2q-29 -53 -63 -93l-139 -172h200zM1425 227h-102v-227h-162v227h-342l-28 129l376 457h156v-455h102v-131z" />
    <glyph glyph-name="onehalf" unicode="&#xbd;" horiz-adv-x="1632" 
d="M381 506h-162v663l-158 -16l33 150l287 28v-825zM1280 1262l-1044 -1293l-97 76l1049 1292zM1550 0h-571v43q365 317 364 496q1 67 -41 107t-122 40t-168 -49l-31 135q88 53 226 53q138 -1 219 -75t81 -205q0 -182 -237 -410h280v-135z" />
    <glyph glyph-name="threequarters" unicode="&#xbe;" horiz-adv-x="1568" 
d="M557 738q0 -104 -85 -174q-85 -71 -230 -70q-86 0 -154 28l-16 150q72 -41 144 -41t121 35q48 35 48 93t-44 96t-103 38q-12 0 -29 -2l-27 123q63 12 104 41q40 29 40 63t-26 56q-26 20 -77 20t-119 -37l-30 133q78 41 180 41t170 -53t68 -137q0 -106 -109 -154
q74 -23 124 -84t50 -165zM1358 1262l-1047 -1293l-96 76l1049 1292zM1233 356v168q0 41 6 84l-4 2q-27 -45 -61 -88l-136 -166h195zM1491 221h-100v-221h-160v221h-330l-33 129l375 463h148v-457h100v-135z" />
    <glyph glyph-name="questiondown" unicode="&#xbf;" horiz-adv-x="778" 
d="M448 -27q-164 1 -272 93q-106 92 -106 245q0 86 43 161t126 165t83 170t-9 121l213 -43q14 -55 15 -105q0 -166 -119 -288q-51 -54 -74 -94q-22 -40 -22 -88t36 -85t120 -37q83 0 198 70l49 -209q-117 -76 -281 -76zM561 1189q0 -36 -55 -91q-55 -56 -92 -56t-92 56
t-56 90q0 35 56 91t91 56q36 0 92 -55t56 -91z" />
    <glyph glyph-name="Agrave" unicode="&#xc0;" horiz-adv-x="1277" 
d="M371 1735q0 25 42 67q41 42 73 41q32 0 63 -43q119 -166 291 -293l-140 -59q-178 106 -294 227q-35 35 -35 60zM791 516l-109 283q-29 76 -47 141h-4q-14 -59 -45 -141l-111 -283h316zM1247 0h-258l-125 315h-461l-124 -315h-248l536 1321h146z" />
    <glyph glyph-name="Aacute" unicode="&#xc1;" horiz-adv-x="1277" 
d="M802 1843q30 -1 70 -41t41 -60q0 -20 -34 -61q-121 -127 -299 -233l-127 55q178 139 290 299q29 41 59 41zM791 516l-109 283q-29 76 -47 141h-4q-14 -59 -45 -141l-111 -283h316zM1247 0h-258l-125 315h-461l-124 -315h-248l536 1321h146z" />
    <glyph glyph-name="Acircumflex" unicode="&#xc2;" horiz-adv-x="1277" 
d="M640 1843q36 0 67 -43q118 -166 290 -293l-139 -59q-145 86 -229 160q-119 -100 -219 -160l-129 57q174 131 290 295q33 43 69 43zM791 516l-109 283q-29 76 -47 141h-4q-14 -59 -45 -141l-111 -283h316zM1247 0h-258l-125 315h-461l-124 -315h-248l536 1321h146z" />
    <glyph glyph-name="Atilde" unicode="&#xc3;" horiz-adv-x="1277" 
d="M782 1485q-43 0 -124 48t-101 48q-45 0 -139 -129l-139 61q49 89 132 181t126 92t123 -48t100 -48q45 0 139 129l139 -62q-49 -88 -131 -180t-125 -92zM791 516l-109 283q-29 76 -47 141h-4q-14 -59 -45 -141l-111 -283h316zM1247 0h-258l-125 315h-461l-124 -315h-248
l536 1321h146z" />
    <glyph glyph-name="Adieresis" unicode="&#xc4;" horiz-adv-x="1277" 
d="M590 1570q0 -30 -45 -76t-74 -46t-76 46t-47 76t46 76t76 46t75 -46t45 -76zM930 1570q0 -30 -45 -76t-76 -46t-76 46t-45 76t45 76t76 46t76 -46t45 -76zM791 516l-109 283q-29 76 -47 141h-4q-14 -59 -45 -141l-111 -283h316zM1247 0h-258l-125 315h-461l-124 -315
h-248l536 1321h146z" />
    <glyph glyph-name="Aring" unicode="&#xc5;" horiz-adv-x="1277" 
d="M735 1665q0 45 -26 74q-27 29 -68 29t-68 -30q-27 -28 -27 -73t28 -74q26 -29 67 -29t68 29q26 29 26 74zM887 1665q0 -100 -73 -172t-173 -72t-173 72t-73 172t73 172t173 72t173 -72t73 -172zM791 516l-109 283q-29 76 -47 141h-4q-14 -59 -45 -141l-111 -283h316z
M1247 0h-258l-125 315h-461l-124 -315h-248l536 1321h146z" />
    <glyph glyph-name="AE" unicode="&#xc6;" horiz-adv-x="1662" 
d="M872 518v381q1 50 5 193l-5 2q-31 -76 -94 -197l-209 -379h303zM1651 0h-779v315h-401l-184 -315h-256l757 1307h797v-215h-473v-328h393v-217h-393v-332h539v-215z" />
    <glyph glyph-name="Ccedilla" unicode="&#xc7;" horiz-adv-x="1218" 
d="M788 1096q-182 0 -318 -121t-136 -326t137 -325t329 -121q192 0 310 65l-23 -227q-104 -53 -301 -55l-10 -41q76 -5 137 -63t61 -152t-69 -152q-70 -58 -162 -57q-92 0 -159 47l24 117q58 -41 114 -41t82 24t25 62t-25 62t-60 24t-56 23q-20 24 -10 61l22 90
q-254 22 -440 198t-186 465q0 211 107 368q208 302 619 302q200 0 345 -82l-47 -223q-128 78 -310 78z" />
    <glyph glyph-name="Egrave" unicode="&#xc8;" horiz-adv-x="925" 
d="M223 1735q0 25 42 67t74 41q32 0 62 -43q119 -166 291 -293l-139 -59q-178 106 -295 227q-35 35 -35 60zM913 0h-794v1307h729v-215h-473v-328h393v-217h-393v-332h538v-215z" />
    <glyph glyph-name="Eacute" unicode="&#xc9;" horiz-adv-x="925" 
d="M686 1843q30 -1 70 -41q41 -40 41 -60t-35 -61q-121 -127 -299 -233l-127 55q178 139 291 299q29 41 59 41zM913 0h-794v1307h729v-215h-473v-328h393v-217h-393v-332h538v-215z" />
    <glyph glyph-name="Ecircumflex" unicode="&#xca;" horiz-adv-x="925" 
d="M509 1843q36 0 66 -43q119 -166 291 -293l-139 -59q-145 86 -229 160q-119 -100 -219 -160l-129 57q174 131 290 295q33 43 69 43zM913 0h-794v1307h729v-215h-473v-328h393v-217h-393v-332h538v-215z" />
    <glyph glyph-name="Edieresis" unicode="&#xcb;" horiz-adv-x="925" 
d="M451 1570q0 -30 -45 -76t-74 -46t-76 46t-47 76t46 76t76 46t75 -46t45 -76zM670 1692q31 0 76 -46t45 -76q1 -30 -45 -76t-76 -46t-76 46q-45 46 -45 76t45 76t76 46zM913 0h-794v1307h729v-215h-473v-328h393v-217h-393v-332h538v-215z" />
    <glyph glyph-name="Igrave" unicode="&#xcc;" horiz-adv-x="538" 
d="M-8 1735q0 25 42 67t74 41q32 0 62 -43q119 -166 291 -293l-139 -59q-178 106 -295 227q-35 35 -35 60zM397 0h-258v1307h258v-1307z" />
    <glyph glyph-name="Iacute" unicode="&#xcd;" horiz-adv-x="538" 
d="M434 1843q30 -1 70 -41q41 -40 41 -60t-35 -61q-121 -127 -299 -233l-127 55q178 139 291 299q29 41 59 41zM397 0h-258v1307h258v-1307z" />
    <glyph glyph-name="Icircumflex" unicode="&#xce;" horiz-adv-x="538" 
d="M278 1843q36 0 66 -43q119 -166 291 -293l-139 -59q-145 86 -230 160q-119 -100 -219 -160l-129 57q174 131 291 295q33 43 69 43zM397 0h-258v1307h258v-1307z" />
    <glyph glyph-name="Idieresis" unicode="&#xcf;" horiz-adv-x="538" 
d="M221 1570q0 -30 -45 -76t-74 -46q-30 0 -76 46t-46 76t46 76t76 46t74 -46q45 -46 45 -76zM561 1570q0 -30 -45 -76t-76 -46q-32 0 -76 46t-44 76t44 76q46 46 76 46t76 -46q45 -46 45 -76zM397 0h-258v1307h258v-1307z" />
    <glyph glyph-name="Eth" unicode="&#xd0;" horiz-adv-x="1372" 
d="M1044 651q0 215 -136 329t-345 114h-135v-344h229l-32 -187h-197v-354h135q209 -1 345 113t136 329zM1298 653q0 -299 -206 -476t-496 -177h-422v563h-156v187h156v557h422q290 1 496 -177t206 -477z" />
    <glyph glyph-name="Ntilde" unicode="&#xd1;" horiz-adv-x="1437" 
d="M854 1485q-43 0 -124 48t-101 48q-45 0 -140 -129l-139 61q49 89 132 181t126 92t123 -48t100 -48q45 0 140 129l139 -62q-49 -88 -131 -180t-125 -92zM1319 -20h-111l-563 614q-82 90 -274 315l-4 -2q4 -106 4 -301v-606h-252v1307h198l504 -551q160 -174 246 -283l4 2
q-4 90 -4 277v555h252v-1327z" />
    <glyph glyph-name="Ograve" unicode="&#xd2;" horiz-adv-x="1544" 
d="M608 1843q32 0 62 -43q119 -166 291 -293l-140 -59q-178 106 -295 227q-35 35 -34 60q0 25 42 67t74 41zM1208 651q0 203 -132 329t-305 126t-304 -125t-131 -329t131 -330t304 -127q173 1 305 127t132 329zM1470 655q0 -303 -208 -492t-490 -189t-490 188
q-208 190 -208 493q0 203 101 361t259 238t338 81q180 0 338 -81q158 -80 259 -238t101 -361z" />
    <glyph glyph-name="Oacute" unicode="&#xd3;" horiz-adv-x="1544" 
d="M927 1843q31 -1 71 -41t40 -60t-34 -61q-121 -127 -299 -233l-127 55q178 139 290 299q29 41 59 41zM1208 651q0 203 -132 329t-305 126t-304 -125t-131 -329t131 -330t304 -127q173 1 305 127t132 329zM1470 655q0 -303 -208 -492t-490 -189t-490 188q-208 190 -208 493
q0 203 101 361t259 238t338 81q180 0 338 -81q158 -80 259 -238t101 -361z" />
    <glyph glyph-name="Ocircumflex" unicode="&#xd4;" horiz-adv-x="1544" 
d="M769 1843q36 0 67 -43q118 -166 290 -293l-139 -59q-145 86 -229 160q-119 -100 -219 -160l-129 57q174 131 290 295q33 43 69 43zM1208 651q0 203 -132 329t-305 126t-304 -125t-131 -329t131 -330t304 -127q173 1 305 127t132 329zM1470 655q0 -303 -208 -492
t-490 -189t-490 188q-208 190 -208 493q0 203 101 361t259 238t338 81q180 0 338 -81q158 -80 259 -238t101 -361z" />
    <glyph glyph-name="Otilde" unicode="&#xd5;" horiz-adv-x="1544" 
d="M911 1485q-43 0 -124 48t-101 48q-45 0 -139 -129l-139 61q49 89 132 181t126 92q42 0 122 -48t101 -48q45 0 139 129l139 -62q-49 -88 -131 -180t-125 -92zM1208 651q0 203 -132 329t-305 126t-304 -125t-131 -329t131 -330t304 -127q173 1 305 127t132 329zM1470 655
q0 -303 -208 -492t-490 -189t-490 188q-208 190 -208 493q0 203 101 361t259 238t338 81q180 0 338 -81q158 -80 259 -238t101 -361z" />
    <glyph glyph-name="Odieresis" unicode="&#xd6;" horiz-adv-x="1544" 
d="M721 1570q0 -30 -45 -76t-74 -46t-76 46t-47 76t46 76t76 46t75 -46t45 -76zM1061 1570q0 -30 -45 -76t-76 -46t-76 46t-45 76t45 76t76 46t76 -46t45 -76zM1208 651q0 203 -132 329t-305 126t-304 -125t-131 -329t131 -330t304 -127q173 1 305 127t132 329zM1470 655
q0 -303 -208 -492t-490 -189t-490 188q-208 190 -208 493q0 203 101 361t259 238t338 81q180 0 338 -81q158 -80 259 -238t101 -361z" />
    <glyph glyph-name="multiply" unicode="&#xd7;" horiz-adv-x="929" 
d="M813 334l-121 -121l-225 223l-223 -225l-123 123l225 225l-223 223l121 123l223 -225l223 223l121 -121l-221 -223z" />
    <glyph glyph-name="Oslash" unicode="&#xd8;" horiz-adv-x="1544" 
d="M324 664q0 -196 106 -324l576 711q-111 70 -234 69q-178 0 -313 -130t-135 -326zM772 182q178 0 314 130t135 326q0 196 -111 325l-575 -713q106 -68 237 -68zM1470 652q0 -300 -208 -489t-490 -190q-203 0 -377 105l-114 -144l-107 89l111 137q-211 195 -211 495
q0 203 101 361t259 238t352 81q194 0 363 -104l117 141l104 -88l-110 -137q210 -195 210 -495z" />
    <glyph glyph-name="Ugrave" unicode="&#xd9;" horiz-adv-x="1337" 
d="M403 1735q0 25 42 67t74 41q32 0 63 -43q118 -166 290 -293l-139 -59q-178 106 -295 227q-35 35 -35 60zM1219 465q0 -227 -156 -359q-157 -132 -395 -133q-238 0 -394 133t-155 359v842h258v-820q0 -133 78 -211t217 -78t217 78q78 76 78 209v822h252v-842z" />
    <glyph glyph-name="Uacute" unicode="&#xda;" horiz-adv-x="1337" 
d="M835 1843q31 -1 71 -41t40 -60t-35 -61q-121 -127 -299 -233l-127 55q178 139 291 299q29 41 59 41zM1219 465q0 -227 -156 -359q-157 -132 -395 -133q-238 0 -394 133t-155 359v842h258v-820q0 -133 78 -211t217 -78t217 78q78 76 78 209v822h252v-842z" />
    <glyph glyph-name="Ucircumflex" unicode="&#xdb;" horiz-adv-x="1337" 
d="M679 1843q36 0 66 -43q119 -166 291 -293l-139 -59q-145 86 -229 160q-119 -100 -219 -160l-130 57q174 131 291 295q33 43 69 43zM1219 465q0 -227 -156 -359q-157 -132 -395 -133q-238 0 -394 133t-155 359v842h258v-820q0 -133 78 -211t217 -78t217 78q78 76 78 209
v822h252v-842z" />
    <glyph glyph-name="Udieresis" unicode="&#xdc;" horiz-adv-x="1337" 
d="M635 1570q0 -30 -45 -76t-74 -46t-76 46t-47 76t46 76t76 46t75 -46t45 -76zM975 1570q0 -30 -45 -76t-76 -46t-76 46t-45 76t45 76t76 46t76 -46t45 -76zM1219 465q0 -227 -156 -359q-157 -132 -395 -133q-238 0 -394 133t-155 359v842h258v-820q0 -133 78 -211t217 -78
t217 78q78 76 78 209v822h252v-842z" />
    <glyph glyph-name="Yacute" unicode="&#xdd;" horiz-adv-x="1300" 
d="M845 1843q31 -1 71 -41t40 -60t-34 -61q-121 -127 -299 -233l-127 55q178 139 290 299q29 41 59 41zM776 0h-252v590l-493 717h278l240 -342q47 -68 108 -170h5q57 96 110 170l238 342h260l-494 -713v-594z" />
    <glyph glyph-name="Thorn" unicode="&#xde;" horiz-adv-x="1028" 
d="M516 602q80 0 138 44t57 127t-57 128t-138 45h-145v-344h145zM965 774q0 -176 -122 -278t-286 -103h-186v-393h-252v1307h252v-152h186q164 -1 286 -103t122 -278z" />
    <glyph glyph-name="germandbls" unicode="&#xdf;" horiz-adv-x="1241" 
d="M1178 262q0 -121 -92 -205t-261 -84q-170 0 -284 72v209q129 -88 272 -88q55 0 89 26t34 64q0 72 -113 111q-143 47 -215 119t-72 185t78 189q76 76 187 86q8 39 8 80q0 94 -60 163q-59 69 -153 69q-188 -1 -188 -230v-1028h-240v731h-150v197h150v119q0 199 111 305
t312 106t329 -122t129 -351q0 -104 -27 -190q-116 0 -184 -30t-68 -83q0 -66 113 -100q151 -49 223 -124t72 -196z" />
    <glyph glyph-name="agrave" unicode="&#xe0;" horiz-adv-x="935" 
d="M180 1318q0 20 36 54t62 35q26 0 54 -37q98 -139 248 -250l-119 -49q-150 88 -252 193q-29 34 -29 54zM575 334v82l-145 -13q-70 -6 -104 -44t-35 -86q0 -47 32 -79q31 -32 93 -32t110 48t49 124zM367 -27q-131 0 -219 85q-87 85 -87 211q-1 126 89 207t223 93l202 19v45
q0 55 -40 89q-41 34 -123 34q-141 0 -258 -74l-45 192q125 80 308 80t289 -87t105 -249v-339q0 -135 111 -166l-164 -144q-47 10 -89 45t-57 88q-59 -129 -245 -129z" />
    <glyph glyph-name="aacute" unicode="&#xe1;" horiz-adv-x="935" 
d="M682 1320q0 -17 -29 -50q-100 -106 -256 -199l-106 47q150 115 246 254q25 35 50 35t60 -35t35 -52zM575 334v82l-145 -13q-70 -6 -104 -44t-35 -86q0 -47 32 -79q31 -32 93 -32t110 48t49 124zM367 -27q-131 0 -219 85q-87 85 -87 211q-1 126 89 207t223 93l202 19v45
q0 55 -40 89q-41 34 -123 34q-141 0 -258 -74l-45 192q125 80 308 80t289 -87t105 -249v-339q0 -135 111 -166l-164 -144q-47 10 -89 45t-57 88q-59 -129 -245 -129z" />
    <glyph glyph-name="acircumflex" unicode="&#xe2;" horiz-adv-x="935" 
d="M446 1407q32 0 56 -37q103 -144 248 -248l-119 -51q-125 76 -195 135q-88 -76 -186 -135l-111 49q150 111 248 250q27 37 59 37zM575 334v82l-145 -13q-70 -6 -104 -44t-35 -86q0 -47 32 -79q31 -32 93 -32t110 48t49 124zM367 -27q-131 0 -219 85q-87 85 -87 211
q-1 126 89 207t223 93l202 19v45q0 55 -40 89q-41 34 -123 34q-141 0 -258 -74l-45 192q125 80 308 80t289 -87t105 -249v-339q0 -135 111 -166l-164 -144q-47 10 -89 45t-57 88q-59 -129 -245 -129z" />
    <glyph glyph-name="atilde" unicode="&#xe3;" horiz-adv-x="935" 
d="M563 1102q-37 0 -105 41t-87 41q-33 0 -117 -109l-119 51q41 74 112 153t107 79t106 -41q69 -41 85 -41q37 0 117 110l118 -53q-44 -75 -112 -153t-105 -78zM575 334v82l-145 -13q-70 -6 -104 -44t-35 -86q0 -47 32 -79q31 -32 93 -32t110 48t49 124zM367 -27
q-131 0 -219 85q-87 85 -87 211q-1 126 89 207t223 93l202 19v45q0 55 -40 89q-41 34 -123 34q-141 0 -258 -74l-45 192q125 80 308 80t289 -87t105 -249v-339q0 -135 111 -166l-164 -144q-47 10 -89 45t-57 88q-59 -129 -245 -129z" />
    <glyph glyph-name="adieresis" unicode="&#xe4;" horiz-adv-x="935" 
d="M299 1278q25 0 63 -38t37 -65q0 -26 -39 -65q-38 -39 -62 -39t-64 40t-40 65q0 26 40 64t65 38zM586 1278q26 0 64 -38t38 -65q0 -26 -39 -65t-63 -39t-64 39q-39 39 -39 65q0 27 38 65t65 38zM575 334v82l-145 -13q-70 -6 -104 -44t-35 -86q0 -47 32 -79q31 -32 93 -32
t110 48t49 124zM367 -27q-131 0 -219 85q-87 85 -87 211q-1 126 89 207t223 93l202 19v45q0 55 -40 89q-41 34 -123 34q-141 0 -258 -74l-45 192q125 80 308 80t289 -87t105 -249v-339q0 -135 111 -166l-164 -144q-47 10 -89 45t-57 88q-59 -129 -245 -129z" />
    <glyph glyph-name="aring" unicode="&#xe5;" horiz-adv-x="935" 
d="M510 1255q0 39 -24 64t-58 25t-58 -26q-22 -24 -22 -63t23 -63t57 -23q34 -1 58 23t24 63zM637 1255q1 -84 -61 -145t-147 -61t-147 61t-63 145q1 83 63 145t147 62t147 -62t61 -145zM575 334v82l-145 -13q-70 -6 -104 -44t-35 -86q0 -47 32 -79q31 -32 93 -32t110 48
t49 124zM367 -27q-131 0 -219 85q-87 85 -87 211q-1 126 89 207t223 93l202 19v45q0 55 -40 89q-41 34 -123 34q-141 0 -258 -74l-45 192q125 80 308 80t289 -87t105 -249v-339q0 -135 111 -166l-164 -144q-47 10 -89 45t-57 88q-59 -129 -245 -129z" />
    <glyph glyph-name="ae" unicode="&#xe6;" horiz-adv-x="1484" 
d="M291 273q0 -47 33 -79t88 -32q54 0 102 35t66 94q-20 55 -27 123l-123 -11q-70 -6 -104 -44t-35 -86zM1188 598q0 60 -47 112t-123 52t-142 -53t-79 -134h389q2 9 2 23zM1423 592q0 -43 -6 -74l-121 -119h-505q8 -83 90 -151q81 -68 221 -68t254 74l-25 -221
q-115 -59 -284 -60q-238 0 -361 160q-102 -160 -319 -160q-131 0 -219 85q-87 85 -87 211q-1 126 89 207t223 93l188 19q6 33 21 65q-18 103 -164 103t-264 -74l-45 192q125 80 319 80t285 -120q121 120 303 120t295 -108q112 -109 112 -254z" />
    <glyph glyph-name="ccedilla" unicode="&#xe7;" horiz-adv-x="921" 
d="M597 729q-120 0 -202 -76q-82 -77 -82 -195t83 -194t199 -76t224 54l-24 -213q-94 -43 -213 -45l-7 -33q66 -4 117 -53t51 -130t-58 -129q-58 -49 -138 -49t-135 39l20 101q48 -35 96 -35q48 -1 70 21t23 53q0 31 -22 51q-21 20 -51 20t-47 20t-9 52l18 74
q-186 18 -316 148t-130 338t148 340t336 132t310 -70l-45 -208q-96 63 -216 63z" />
    <glyph glyph-name="egrave" unicode="&#xe8;" horiz-adv-x="1005" 
d="M297 1318q0 20 36 54q37 34 63 35q26 0 53 -37q97 -139 247 -250l-118 -49q-150 88 -252 193q-29 34 -29 54zM538 762q-74 0 -141 -53q-66 -53 -80 -134h390l2 23q-1 60 -49 112t-122 52zM942 592q0 -43 -6 -74l-119 -119h-506q6 -83 89 -151q84 -68 226 -68t251 74
l-25 -221q-119 -59 -285 -60q-211 -1 -358 137t-147 357t140 353t328 134t300 -108t112 -254z" />
    <glyph glyph-name="eacute" unicode="&#xe9;" horiz-adv-x="1005" 
d="M776 1319q0 -18 -31 -49q-98 -106 -253 -199l-107 47q141 109 246 254q25 35 50 35t60 -35t35 -53zM538 762q-74 0 -141 -53q-66 -53 -80 -134h390l2 23q-1 60 -49 112t-122 52zM942 592q0 -43 -6 -74l-119 -119h-506q6 -83 89 -151q84 -68 226 -68t251 74l-25 -221
q-119 -59 -285 -60q-211 -1 -358 137t-147 357t140 353t328 134t300 -108t112 -254z" />
    <glyph glyph-name="ecircumflex" unicode="&#xea;" horiz-adv-x="1005" 
d="M534 1407q32 0 58 -37q101 -139 246 -248l-119 -51q-135 86 -195 135q-88 -76 -186 -135l-109 49q150 113 246 250q27 37 59 37zM538 762q-74 0 -141 -53q-66 -53 -80 -134h390l2 23q-1 60 -49 112t-122 52zM942 592q0 -43 -6 -74l-119 -119h-506q6 -83 89 -151
q84 -68 226 -68t251 74l-25 -221q-119 -59 -285 -60q-211 -1 -358 137t-147 357t140 353t328 134t300 -108t112 -254z" />
    <glyph glyph-name="edieresis" unicode="&#xeb;" horiz-adv-x="1005" 
d="M272 1176q0 26 40 64t66 38t64 -38t37 -65q0 -26 -39 -65q-40 -39 -64 -39t-64 40t-40 65zM666 1278q26 0 64 -38t38 -65q0 -26 -39 -65t-63 -39t-64 39q-39 39 -39 65q0 27 38 65t65 38zM538 762q-74 0 -141 -53q-66 -53 -80 -134h390l2 23q-1 60 -49 112t-122 52z
M942 592q0 -43 -6 -74l-119 -119h-506q6 -83 89 -151q84 -68 226 -68t251 74l-25 -221q-119 -59 -285 -60q-211 -1 -358 137t-147 357t140 353t328 134t300 -108t112 -254z" />
    <glyph glyph-name="igrave" unicode="&#xec;" horiz-adv-x="477" 
d="M2 1316q0 19 36 55t62 36t52 -37q93 -133 247 -250l-118 -49q-145 86 -250 193q-29 33 -29 52zM362 0h-247v928h247v-928z" />
    <glyph glyph-name="iacute" unicode="&#xed;" horiz-adv-x="477" 
d="M479 1319q0 -18 -30 -49q-98 -106 -254 -199l-107 47q141 109 246 254q25 35 50 35t60 -35t35 -53zM362 0h-247v928h247v-928z" />
    <glyph glyph-name="icircumflex" unicode="&#xee;" horiz-adv-x="477" 
d="M242 1407q33 0 59 -37q103 -144 248 -248l-119 -51q-125 76 -194 135q-88 -76 -187 -135l-110 49q150 111 247 250q23 37 56 37zM362 0h-247v928h247v-928z" />
    <glyph glyph-name="idieresis" unicode="&#xef;" horiz-adv-x="477" 
d="M96 1071q-26 0 -64 40t-38 65q0 26 39 64t65 38t63 -38q38 -38 38 -65q0 -26 -39 -65t-64 -39zM385 1071q-25 0 -63 39t-39 65q0 27 38 65q39 38 65 38t64 -38t37 -65q-1 -26 -39 -65t-63 -39zM362 0h-247v928h247v-928z" />
    <glyph glyph-name="eth" unicode="&#xf0;" horiz-adv-x="1042" 
d="M301 412q0 -96 60 -160q59 -64 151 -64t154 66t61 160q0 92 -86 270q-74 -10 -164 -41q-176 -61 -176 -231zM969 434q0 -209 -128 -335t-326 -126t-325 125t-127 312q0 143 81 254q81 110 202 154t217 63l-84 198l-166 -67l-69 174l164 67l-86 205h256l49 -119l141 58
l70 -174l-140 -58l232 -549q39 -90 39 -182z" />
    <glyph glyph-name="ntilde" unicode="&#xf1;" horiz-adv-x="1052" 
d="M643 1102q-37 0 -107 41t-85 41q-35 0 -119 -109l-117 51q43 76 112 154t107 78t105 -41q68 -41 84 -41q33 0 118 110l119 -53q-44 -75 -112 -153t-105 -78zM950 0h-243v584q0 68 -44 114q-43 46 -131 45q-88 0 -137 -48t-49 -115v-580h-244v928h222v-123h2
q63 147 286 147q154 0 246 -86t92 -235v-631z" />
    <glyph glyph-name="ograve" unicode="&#xf2;" horiz-adv-x="1124" 
d="M420 1407q27 0 53 -37q98 -139 248 -250l-119 -49q-152 90 -250 193q-30 30 -30 52t36 56t62 35zM819 459q0 121 -76 201t-180 79q-104 0 -180 -80q-76 -81 -76 -201t76 -199t180 -79t180 79t76 200zM562 954q212 0 356 -137t143 -353q0 -216 -143 -353
q-144 -137 -356 -137t-355 136q-143 138 -143 354t142 353q144 137 356 137z" />
    <glyph glyph-name="oacute" unicode="&#xf3;" horiz-adv-x="1124" 
d="M801 1320q0 -17 -29 -50q-94 -100 -254 -199l-108 47q147 113 247 254q25 35 49 35t60 -35q35 -35 35 -52zM819 459q0 121 -76 201t-180 79q-104 0 -180 -80q-76 -81 -76 -201t76 -199t180 -79t180 79t76 200zM562 954q212 0 356 -137t143 -353q0 -216 -143 -353
q-144 -137 -356 -137t-355 136q-143 138 -143 354t142 353q144 137 356 137z" />
    <glyph glyph-name="ocircumflex" unicode="&#xf4;" horiz-adv-x="1124" 
d="M566 1407q30 0 57 -37q100 -139 245 -248l-116 -51q-125 76 -197 135q-86 -74 -184 -135l-111 49q150 111 248 250q28 37 58 37zM819 459q0 121 -76 201t-180 79q-104 0 -180 -80q-76 -81 -76 -201t76 -199t180 -79t180 79t76 200zM562 954q212 0 356 -137t143 -353
q0 -216 -143 -353q-144 -137 -356 -137t-355 136q-143 138 -143 354t142 353q144 137 356 137z" />
    <glyph glyph-name="otilde" unicode="&#xf5;" horiz-adv-x="1124" 
d="M678 1102q-36 0 -106 41q-69 41 -85 41q-35 0 -118 -109l-119 51q41 74 111 153q71 79 108 79t105 -41t85 -41q33 0 119 110l117 -53q-43 -75 -112 -153t-105 -78zM819 459q0 121 -76 201t-180 79q-104 0 -180 -80q-76 -81 -76 -201t76 -199t180 -79t180 79t76 200z
M562 954q212 0 356 -137t143 -353q0 -216 -143 -353q-144 -137 -356 -137t-355 136q-143 138 -143 354t142 353q144 137 356 137z" />
    <glyph glyph-name="odieresis" unicode="&#xf6;" horiz-adv-x="1124" 
d="M317 1176q0 26 40 64t65 38q24 0 62 -38t38 -65q0 -26 -39 -65t-63 -39t-63 40q-40 40 -40 65zM709 1278q27 0 65 -38t37 -65q0 -26 -39 -65q-40 -39 -64 -39t-63 39t-39 65q0 27 38 65t65 38zM819 459q0 121 -76 201t-180 79q-104 0 -180 -80q-76 -81 -76 -201t76 -199
t180 -79t180 79t76 200zM562 954q212 0 356 -137t143 -353q0 -216 -143 -353q-144 -137 -356 -137t-355 136q-143 138 -143 354t142 353q144 137 356 137z" />
    <glyph glyph-name="divide" unicode="&#xf7;" horiz-adv-x="919" 
d="M459 401q31 -1 78 -47t47 -76t-47 -76t-78 -46t-77 46t-46 76t46 76t77 47zM850 469h-780v195h780v-195zM584 855q0 -30 -47 -77t-78 -47t-77 47t-46 77t46 77t77 47t78 -47t47 -77z" />
    <glyph glyph-name="oslash" unicode="&#xf8;" horiz-adv-x="1124" 
d="M563 758q-113 0 -193 -85t-81 -199q0 -114 49 -189l352 440q-57 33 -127 33zM838 448q0 118 -56 195l-356 -442q66 -39 137 -39q113 0 194 84t81 202zM1061 463q0 -215 -143 -352t-355 -138q-141 0 -264 70l-86 -109l-94 78l84 105q-139 139 -139 351t142 349
q144 137 357 137q143 0 258 -65l86 104l94 -78l-81 -100q141 -137 141 -352z" />
    <glyph glyph-name="ugrave" unicode="&#xf9;" horiz-adv-x="1052" 
d="M383 1407q29 0 51 -37q98 -139 248 -250l-119 -49q-152 90 -250 193q-31 34 -31 54t36 54t65 35zM950 0h-223v123h-2q-63 -147 -285 -148q-154 0 -246 87t-92 237v629h244v-582q0 -68 44 -115t131 -47t136 48t50 116v580h243v-928z" />
    <glyph glyph-name="uacute" unicode="&#xfa;" horiz-adv-x="1052" 
d="M770 1320q0 -17 -29 -50q-98 -104 -254 -199l-108 47q145 113 248 254q23 35 48 35t60 -35t35 -52zM950 0h-223v123h-2q-63 -147 -285 -148q-154 0 -246 87t-92 237v629h244v-582q0 -68 44 -115t131 -47t136 48t50 116v580h243v-928z" />
    <glyph glyph-name="ucircumflex" unicode="&#xfb;" horiz-adv-x="1052" 
d="M526 1407q32 0 60 -37q103 -144 248 -248l-119 -51q-125 76 -195 135q-88 -76 -186 -135l-111 49q150 111 248 250q23 37 55 37zM950 0h-223v123h-2q-63 -147 -285 -148q-154 0 -246 87t-92 237v629h244v-582q0 -68 44 -115t131 -47t136 48t50 116v580h243v-928z" />
    <glyph glyph-name="udieresis" unicode="&#xfc;" horiz-adv-x="1052" 
d="M487 1175q-1 -26 -39 -65t-62 -39t-64 40t-39 65q0 26 39 64q38 38 64 38t64 -38t37 -65zM674 1278q26 0 64 -38t38 -65q0 -26 -39 -65t-63 -39t-64 39q-39 39 -39 65q0 27 38 65t65 38zM950 0h-223v123h-2q-63 -147 -285 -148q-154 0 -246 87t-92 237v629h244v-582
q0 -68 44 -115t131 -47t136 48t50 116v580h243v-928z" />
    <glyph glyph-name="yacute" unicode="&#xfd;" horiz-adv-x="978" 
d="M754 1319q0 -18 -31 -49q-98 -106 -254 -199l-107 47q141 109 246 254q24 35 50 35t61 -35t35 -53zM948 928l-327 -838q-100 -254 -213 -384t-256 -189l-152 151q125 48 215 144t156 262l-340 854h241l152 -389q53 -141 68 -199h4q33 96 71 197l154 391h227z" />
    <glyph glyph-name="thorn" unicode="&#xfe;" horiz-adv-x="1112" 
d="M807 459q0 121 -75 199q-74 78 -192 77q-118 0 -190 -96v-379q72 -78 190 -78t192 78t75 199zM1047 471q1 -219 -137 -358t-345 -140q-63 -1 -125 19t-90 45v-510h-239v1931h239v-596q82 90 249 90t307 -131t141 -350z" />
    <glyph glyph-name="ydieresis" unicode="&#xff;" horiz-adv-x="978" 
d="M465 1168q0 -26 -38 -64t-63 -39q-24 0 -64 39q-40 40 -40 64t40 64t64 40t63 -39q38 -39 38 -65zM754 1168q0 -26 -38 -64t-65 -39q-27 0 -65 39q-38 38 -37 64q0 26 38 65q39 39 65 39t64 -39t38 -65zM948 928l-327 -838q-100 -254 -213 -384t-256 -189l-152 151
q125 48 215 144t156 262l-340 854h241l152 -389q53 -141 68 -199h4q33 96 71 197l154 391h227z" />
    <glyph glyph-name="dotlessi" unicode="&#x131;" horiz-adv-x="477" 
d="M362 0h-247v928h247v-928z" />
    <glyph glyph-name="Lslash" unicode="&#x141;" horiz-adv-x="921" 
d="M909 0h-790v463l-101 -57v217l101 57v627h258v-480l285 166v-219l-285 -164v-395h532v-215z" />
    <glyph glyph-name="lslash" unicode="&#x142;" horiz-adv-x="532" 
d="M360 287q0 -57 36 -95t89 -45l-116 -184q-106 10 -179 82q-72 72 -71 211v299l-101 -57v217l101 57v686h241v-545l136 80v-219l-136 -78v-409z" />
    <glyph glyph-name="OE" unicode="&#x152;" horiz-adv-x="1716" 
d="M334 650q0 -206 137 -328t336 -121q58 0 111 6v880q-61 10 -119 11q-189 0 -327 -121t-138 -327zM1706 0h-750q-90 -14 -186 -14q-172 0 -328 72t-262 230q-106 156 -106 366t107 367t263 229t326 73q94 0 180 -16h688v-215h-471v-328h392v-217h-392v-332h539v-215z" />
    <glyph glyph-name="oe" unicode="&#x153;" horiz-adv-x="1757" 
d="M821 461q0 121 -75 199t-181 79q-106 0 -182 -79q-76 -80 -76 -200t76 -199t181 -79t181 79t76 200zM1460 598q0 60 -47 112t-123 52t-142 -53t-79 -134h389q2 9 2 23zM1696 592q0 -33 -8 -74l-119 -119h-506q8 -83 90 -151q81 -68 221 -68t254 74l-24 -221
q-116 -59 -258 -59t-250 48q-108 50 -156 142q-115 -190 -381 -191q-211 -1 -353 137t-143 353q1 215 143 353t353 138q119 0 224 -49t151 -135q39 84 143 134t211 50q184 0 296 -108t112 -254z" />
    <glyph glyph-name="Scaron" unicode="&#x160;" horiz-adv-x="999" 
d="M821 1769q-166 -121 -282 -303q-12 -22 -39 -22t-41 22q-111 174 -283 303l141 62q113 -74 183 -150q66 70 182 150zM926 375q0 -174 -120 -282q-120 -107 -339 -107t-352 88l-27 252q168 -123 369 -123q96 0 153 44t58 118q0 73 -45 117t-150 75q-362 106 -362 395
q0 158 112 265q113 106 309 106t310 -74l-49 -211q-115 72 -225 72t-160 -41t-50 -100t44 -97t137 -67q191 -59 289 -157t98 -273z" />
    <glyph glyph-name="scaron" unicode="&#x161;" horiz-adv-x="784" 
d="M383 1067q-21 0 -33 20q-98 152 -241 256l120 54q102 -68 156 -127q51 57 154 127l118 -54q-145 -106 -239 -256q-14 -20 -35 -20zM725 265q0 -121 -91 -201t-254 -80t-280 65l-26 232q131 -102 288 -103q51 0 84 24t33 60q0 68 -106 103q-141 47 -213 117t-72 189
q0 117 91 195t245 78t250 -57l-43 -189q-90 55 -201 56q-47 0 -75 -23q-27 -23 -27 -57t24 -54q24 -22 82 -38q147 -47 219 -122t72 -195z" />
    <glyph glyph-name="Ydieresis" unicode="&#x178;" horiz-adv-x="1300" 
d="M594 1568q0 -30 -45 -76t-74 -46t-76 47t-47 76t46 75t76 46t75 -46t45 -76zM934 1568q0 -30 -45 -76t-76 -46t-76 46t-45 76t45 76t76 46t76 -46t45 -76zM776 0h-252v590l-493 717h278l240 -342q47 -68 108 -170h5q57 96 110 170l238 342h260l-494 -713v-594z" />
    <glyph glyph-name="Zcaron" unicode="&#x17d;" horiz-adv-x="1103" 
d="M877 1769q-166 -121 -283 -303q-12 -22 -39 -22t-41 22q-111 174 -283 303l142 62q113 -74 182 -150q66 70 182 150zM1030 0h-956v61l391 695q76 133 201 334l-2 2h-558v215h902v-62l-396 -696q-68 -119 -198 -332l2 -2h614v-215z" />
    <glyph glyph-name="zcaron" unicode="&#x17e;" horiz-adv-x="886" 
d="M444 1067q-23 0 -34 20q-94 150 -240 256l121 54q102 -70 153 -127q55 57 156 127l119 -54q-143 -104 -242 -256q-10 -20 -33 -20zM823 0h-760v47l261 453q80 141 137 227l-2 4h-363v197h692v-47l-262 -455q-61 -104 -137 -225l2 -2h432v-199z" />
    <glyph glyph-name="florin" unicode="&#x192;" horiz-adv-x="907" 
d="M788 1130q-190 0 -231 -223l-49 -278h217l-31 -135h-211l-100 -568q-29 -164 -129 -268t-223 -133l-150 147q100 25 174 96t92 179l95 547h-150v135h174l51 295q35 199 165 305t317 106q64 0 125 -10l-47 -205q-45 10 -89 10z" />
    <glyph glyph-name="circumflex" unicode="&#x2c6;" 
d="M513 1434q36 0 67 -43q118 -166 290 -293l-139 -60q-145 86 -229 160q-119 -100 -219 -160l-129 58q174 131 290 295q33 43 69 43z" />
    <glyph glyph-name="caron" unicode="&#x2c7;" 
d="M514 1034q-27 0 -41 23q-111 174 -283 303l142 61q113 -74 182 -149q66 70 182 149l140 -61q-166 -121 -283 -303q-12 -23 -39 -23z" />
    <glyph glyph-name="breve" unicode="&#x2d8;" 
d="M512 1038q-68 0 -136 26t-102 50l-32 27l110 116q76 -49 156 -49t141 37l21 12l112 -116q-44 -37 -123 -70t-147 -33z" />
    <glyph glyph-name="dotaccent" unicode="&#x2d9;" 
d="M633 1160q0 -30 -45 -76t-75 -46t-76 46t-46 76t46 76t76 46t75 -46t45 -76z" />
    <glyph glyph-name="ring" unicode="&#x2da;" 
d="M606 1255q0 45 -26 74q-27 29 -68 29t-68 -29q-26 -29 -26 -74t26 -73t68 -29q42 1 68 29t26 73zM758 1255q0 -100 -73 -172q-73 -71 -173 -71t-173 72t-73 171q0 100 73 172t173 72t173 -72t73 -172z" />
    <glyph glyph-name="ogonek" unicode="&#x2db;" 
d="M326 -284q0 89 61 165t150 119h172q-238 -117 -238 -264q0 -41 30 -66q31 -24 95 -24t115 35l-23 -130q-45 -31 -140 -31t-159 54q-63 53 -63 142z" />
    <glyph glyph-name="tilde" unicode="&#x2dc;" 
d="M647 1075q-43 0 -124 48t-101 48q-45 0 -139 -129l-140 62q49 88 132 180t127 92t122 -48q80 -48 101 -48q45 0 139 129l139 -61q-49 -88 -131 -180t-125 -93z" />
    <glyph glyph-name="hungarumlaut" unicode="&#x2dd;" 
d="M586 1329q0 -25 -35 -59q-117 -123 -297 -230l-135 60q174 129 291 295q32 43 62 43t72 -42t42 -67zM948 1329q0 -25 -35 -59q-121 -125 -295 -230l-135 60q170 125 289 295q31 43 63 43q33 0 73 -42t40 -67z" />
    <glyph glyph-name="Delta" unicode="&#x394;" horiz-adv-x="1210" 
d="M977 59v164l-778 367q-39 18 -70 55v-586h848zM446 786h-317q0 -66 46 -112t112 -45q67 -1 113 45t46 112zM977 786h-303l303 -303v303zM1036 0h-966v928h966v-500l115 -115q0 -53 -35 -84t-80 -30v-199z" />
    <glyph glyph-name="Delta" unicode="&#x2206;" horiz-adv-x="1210" 
d="M977 59v164l-778 367q-39 18 -70 55v-586h848zM446 786h-317q0 -66 46 -112t112 -45q67 -1 113 45t46 112zM977 786h-303l303 -303v303zM1036 0h-966v928h966v-500l115 -115q0 -53 -35 -84t-80 -30v-199z" />
    <glyph glyph-name="Omega" unicode="&#x3a9;" horiz-adv-x="1210" 
d="M977 59v164l-778 367q-39 18 -70 55v-586h848zM446 786h-317q0 -66 46 -112t112 -45q67 -1 113 45t46 112zM977 786h-303l303 -303v303zM1036 0h-966v928h966v-500l115 -115q0 -53 -35 -84t-80 -30v-199z" />
    <glyph glyph-name="Omega" unicode="&#x2126;" horiz-adv-x="1210" 
d="M977 59v164l-778 367q-39 18 -70 55v-586h848zM446 786h-317q0 -66 46 -112t112 -45q67 -1 113 45t46 112zM977 786h-303l303 -303v303zM1036 0h-966v928h966v-500l115 -115q0 -53 -35 -84t-80 -30v-199z" />
    <glyph glyph-name="pi" unicode="&#x3c0;" horiz-adv-x="1210" 
d="M977 59v164l-778 367q-39 18 -70 55v-586h848zM446 786h-317q0 -66 46 -112t112 -45q67 -1 113 45t46 112zM977 786h-303l303 -303v303zM1036 0h-966v928h966v-500l115 -115q0 -53 -35 -84t-80 -30v-199z" />
    <glyph glyph-name="endash" unicode="&#x2013;" 
d="M1028 385h-1028v156h1028v-156z" />
    <glyph glyph-name="emdash" unicode="&#x2014;" horiz-adv-x="2048" 
d="M2052 385h-2052v156h2052v-156z" />
    <glyph glyph-name="quoteleft" unicode="&#x2018;" horiz-adv-x="430" 
d="M362 919q0 -33 -55 -87t-90 -54t-92 53t-57 93q0 88 66 211q67 123 149 198l79 -14q-48 -57 -82 -133t-38 -139q36 -6 78 -50t42 -78z" />
    <glyph glyph-name="quoteright" unicode="&#x2019;" horiz-adv-x="430" 
d="M362 1192q0 -88 -66 -211t-149 -199l-79 15q49 57 83 132t37 138q-36 6 -78 51t-42 79t55 86t90 52t92 -52t57 -91z" />
    <glyph glyph-name="quotesinglbase" unicode="&#x201a;" horiz-adv-x="430" 
d="M362 123q0 -88 -66 -211t-149 -199l-79 15q49 57 83 132t37 138q-36 6 -78 51t-42 79t55 86t90 52t92 -52t57 -91z" />
    <glyph glyph-name="quotedblleft" unicode="&#x201c;" horiz-adv-x="815" 
d="M362 919q0 -33 -55 -87t-90 -54t-92 53t-57 93q0 88 66 211q67 123 149 198l79 -14q-48 -57 -82 -133t-38 -139q36 -6 78 -50t42 -78zM750 919q0 -33 -56 -87t-90 -54q-35 0 -92 53t-57 93q0 88 66 211q67 123 149 198l80 -14q-49 -57 -83 -133t-38 -139q35 -6 78 -50
t43 -78z" />
    <glyph glyph-name="quotedblright" unicode="&#x201d;" horiz-adv-x="815" 
d="M362 1192q0 -88 -66 -211t-149 -199l-79 15q49 57 83 132t37 138q-36 6 -78 51t-42 79t55 86t90 52t92 -52t57 -91zM750 1192q0 -88 -67 -211t-148 -199l-80 15q49 55 82 131t36 139q-35 6 -77 51t-41 79q0 34 55 86t90 52q34 0 92 -52t58 -91z" />
    <glyph glyph-name="quotedblbase" unicode="&#x201e;" horiz-adv-x="817" 
d="M362 123q0 -88 -66 -211t-149 -199l-79 15q49 57 83 132t37 138q-36 6 -78 51t-42 79t55 86t90 52t92 -52t57 -91zM750 123q0 -88 -67 -211t-148 -199l-80 15q49 55 82 131t36 139q-35 6 -77 51t-41 79q0 34 55 86t90 52q34 0 92 -52t58 -91z" />
    <glyph glyph-name="dagger" unicode="&#x2020;" horiz-adv-x="847" 
d="M774 713l-239 37l-35 -1223h-150l-35 1223l-241 -37v233l235 -37l-6 232h244l-4 -232l231 37v-233z" />
    <glyph glyph-name="daggerdbl" unicode="&#x2021;" horiz-adv-x="847" 
d="M774 -279l-233 37l6 -231h-244l6 231l-235 -37v234l241 -37l11 416l-11 416l-241 -37v233l235 -37l-6 232h244l-6 -232l233 37v-233l-239 37l-11 -416l11 -416l239 37v-234z" />
    <glyph glyph-name="bullet" unicode="&#x2022;" horiz-adv-x="804" 
d="M731 567q0 -141 -94 -231q-93 -90 -233 -90t-235 90t-95 231t95 231t234 91q139 0 234 -90q94 -91 94 -232z" />
    <glyph glyph-name="ellipsis" unicode="&#x2026;" horiz-adv-x="1284" 
d="M362 121q0 -35 -55 -91t-91 -56t-92 54q-56 56 -56 92t55 91t91 55t92 -55t56 -90zM788 121q0 -35 -55 -91t-92 -56t-92 54q-55 56 -55 92t55 91t91 55t92 -55t56 -90zM1217 121q-1 -35 -57 -91t-92 -56t-92 54q-56 56 -56 92t55 91t92 55t93 -55t57 -90z" />
    <glyph glyph-name="perthousand" unicode="&#x2030;" horiz-adv-x="2177" 
d="M489 1037q0 60 -35 98q-36 37 -89 37t-90 -37q-35 -37 -35 -97t36 -100q36 -39 88 -39t89 39q36 39 36 99zM666 1037q0 -132 -86 -216t-215 -84t-215 84t-86 216t86 215t215 83t215 -83t86 -215zM1300 1264l-1056 -1307l-107 88l1055 1307zM1198 273q0 59 -36 97t-89 38
t-89 -37t-36 -97t36 -100q36 -39 88 -39t89 39t37 99zM1374 272q0 -131 -86 -215t-215 -84t-215 84t-86 215t86 215t214 84t215 -84t87 -215zM1935 273q0 60 -35 98q-36 37 -90 37t-89 -37t-35 -97t36 -100q36 -39 87 -39q52 0 89 39t37 99zM2111 272q0 -131 -86 -215
t-215 -84t-215 84t-86 215t86 215t215 84t215 -84t86 -215z" />
    <glyph glyph-name="guilsinglleft" unicode="&#x2039;" horiz-adv-x="440" 
d="M31 462q0 36 39 64q154 113 270 267l33 -74q-53 -141 -121 -256q58 -96 121 -256l-33 -74q-123 160 -270 266q-39 27 -39 63z" />
    <glyph glyph-name="guilsinglright" unicode="&#x203a;" horiz-adv-x="440" 
d="M410 462q0 -36 -39 -63q-156 -111 -271 -266l-32 74q57 154 120 256q-63 102 -120 256l32 74q109 -147 271 -267q39 -28 39 -64z" />
    <glyph glyph-name="fraction" unicode="&#x2044;" horiz-adv-x="1292" 
d="M1227 1264l-1055 -1307l-109 88l1057 1307z" />
    <glyph glyph-name="fraction" unicode="&#x2215;" horiz-adv-x="1292" 
d="M1227 1264l-1055 -1307l-109 88l1057 1307z" />
    <glyph glyph-name="Euro" unicode="&#x20ac;" horiz-adv-x="1017" 
d="M730 182q110 0 183 45l-24 -209q-72 -41 -205 -41q-182 0 -323 128q-140 128 -183 364h-160v133h146l-2 51l2 60h-146v133h162q44 231 184 357t309 126t271 -61l-43 -195q-78 51 -184 51t-185 -69q-78 -70 -110 -209h334l-27 -133h-326q-2 -20 -2 -62l2 -49h334l-28 -133
h-289q33 -143 116 -215q84 -72 194 -72z" />
    <glyph glyph-name="trademark" unicode="&#x2122;" horiz-adv-x="872" 
d="M340 1225h-107v-297h-88v299h-104v80h299v-82zM805 928h-88l-17 194l-100 -194h-35l-96 190l-14 -190h-88l30 379h68l123 -238l119 238h67z" />
    <glyph glyph-name="partialdiff" unicode="&#x2202;" horiz-adv-x="1210" 
d="M977 59v164l-778 367q-39 18 -70 55v-586h848zM446 786h-317q0 -66 46 -112t112 -45q67 -1 113 45t46 112zM977 786h-303l303 -303v303zM1036 0h-966v928h966v-500l115 -115q0 -53 -35 -84t-80 -30v-199z" />
    <glyph glyph-name="product" unicode="&#x220f;" horiz-adv-x="964" 
d="M571 1014q0 63 -73 63h-39v-127h39q33 0 53 18t20 46zM678 1014q0 -70 -49 -112t-117 -42h-53v-188h-107v495h156q68 1 119 -41t51 -112zM805 921q0 142 -93 234q-92 92 -232 92t-232 -92t-92 -235q0 -142 92 -234t231 -92t233 92q93 93 93 235zM901 920
q0 -180 -122 -298t-300 -118t-298 118t-120 298t120 298t298 118t300 -118t122 -298z" />
    <glyph glyph-name="summation" unicode="&#x2211;" horiz-adv-x="1210" 
d="M977 59v164l-778 367q-39 18 -70 55v-586h848zM446 786h-317q0 -66 46 -112t112 -45q67 -1 113 45t46 112zM977 786h-303l303 -303v303zM1036 0h-966v928h966v-500l115 -115q0 -53 -35 -84t-80 -30v-199z" />
    <glyph glyph-name="minus" unicode="&#x2212;" horiz-adv-x="845" 
d="M745 473h-645v176h645v-176z" />
    <glyph glyph-name="radical" unicode="&#x221a;" horiz-adv-x="1196" 
d="M1174 1262h-179l-510 -1274h-147l-182 458h-131l36 207h240l80 -213q29 -80 35 -106h4q59 182 135 375l297 749h322v-196z" />
    <glyph glyph-name="infinity" unicode="&#x221e;" horiz-adv-x="1675" 
d="M408 1032v-104h340v119q0 88 20 151q-78 63 -174 64q-186 0 -186 -230zM1573 0h-244v731h-344v-731h-237v731h-340v-731h-240v731h-150v197h150v119q0 199 110 305t286 106t315 -88q103 88 251 88t222 -31l-47 -196q-68 29 -127 29q-193 0 -193 -230v-102h588v-928z" />
    <glyph glyph-name="integral" unicode="&#x222b;" horiz-adv-x="1210" 
d="M977 59v164l-778 367q-39 18 -70 55v-586h848zM446 786h-317q0 -66 46 -112t112 -45q67 -1 113 45t46 112zM977 786h-303l303 -303v303zM1036 0h-966v928h966v-500l115 -115q0 -53 -35 -84t-80 -30v-199z" />
    <glyph glyph-name="approxequal" unicode="&#x2248;" horiz-adv-x="923" 
d="M612 240q-70 0 -170 42t-143 42q-104 0 -193 -93l-36 183q92 102 243 102q72 0 168 -42t146 -42q106 0 192 92l35 -184q-90 -100 -242 -100zM299 700q-104 0 -193 -92l-36 183q94 104 243 104q72 0 168 -42t146 -42q106 0 192 92l35 -184q-92 -102 -242 -103
q-70 0 -170 42t-143 42z" />
    <glyph glyph-name="notequal" unicode="&#x2260;" horiz-adv-x="1286" 
d="M408 1032v-104h340v119q0 88 20 151q-78 63 -174 64q-186 0 -186 -230zM1178 1260q-193 0 -193 -230v-102h258l-43 -197h-215v-731h-237v731h-340v-731h-240v731h-150v197h150v119q0 199 110 305t286 106t315 -88q103 88 251 88t222 -31l-47 -196q-68 29 -127 29z" />
    <glyph glyph-name="lessequal" unicode="&#x2264;" horiz-adv-x="927" 
d="M854 -49h-780v170h780v-170zM854 176l-780 256v270l780 263v-203l-608 -195l608 -188v-203z" />
    <glyph glyph-name="greaterequal" unicode="&#x2265;" horiz-adv-x="927" 
d="M854 -49h-780v170h780v-170zM854 432l-780 -256v203l608 188l-608 195v203l780 -263v-270z" />
    <glyph glyph-name="lozenge" unicode="&#x25ca;" horiz-adv-x="1144" 
d="M815 567l-252 250l-250 -250l250 -252zM1020 567l-457 -454l-454 454l454 455z" />
    <glyph glyph-name="apple" unicode="&#xf8ff;" horiz-adv-x="1210" 
d="M977 59v164l-778 367q-39 18 -70 55v-586h848zM446 786h-317q0 -66 46 -112t112 -45q67 -1 113 45t46 112zM977 786h-303l303 -303v303zM1036 0h-966v928h966v-500l115 -115q0 -53 -35 -84t-80 -30v-199z" />
    </font>
</defs>
</svg>
