<svg version="1.1" xmlns="http://www.w3.org/2000/svg" x="0" y="0" viewBox="0 0 3545 1064" xml:space="preserve">
  <g>
    <path
      d="M185 .1h3158.9c5.3 1.2 10.6.2 15.9.5 23.9-.5 47.1 2.6 69.6 10.9 22.2 8.2 41.8 20.2 59.1 36.5 32.4 30.6 48.9 68.7 53.8 112.4 1.6 14.4 1.8 28.9 1.8 43.4.2 218.4.1 436.9.1 655.3 0 28-1.5 55.9-9.9 83-7.2 23.2-19 43.9-35.1 62.2-13.4 15.2-29 27.5-46.7 37.1-22.2 12.1-46.2 18.8-71.4 20.9-15.3 1.3-30.6 1.1-45.9 1H196c-26.9 0-53.7-1.6-79.2-11-60.1-22.2-97.1-64.7-111.1-127.2C2.2 909.6 1.1 893.9 1 878 0 659.4.9 440.9.6 222.3c.1-19.6-.7-39.3 1.2-58.8C7.2 105.3 33 58.9 82.8 27.1c25.6-16.3 54-24.5 84.4-26.1 6-.3 12 .4 17.8-.9z"
      fill="#bfc0c0" />
    <path d="M3360 .1v1c-5.3-.4-10.8 1.1-16-1h16z" fill="#dfe0e0" />
    <path
      d="M1772.2 23.1c523.5 0 1046.9 0 1570.4.1 29.1 0 58.3 2.2 85.4 14.1 47.2 20.7 76.1 56.5 86.8 106.9 4.1 19.2 5.4 38.8 5.4 58.4.1 220 .2 439.9-.1 659.9 0 26.4-1.9 52.8-11.2 77.9-18.4 49.8-54 80.6-105.2 93.5-18.9 4.8-38.3 6-57.8 6.1-1045.6 1.1-2091.2.2-3136.8.4-26.6 0-53.3-.7-78.9-9.2-55.4-18.5-89.4-56.6-101.2-114.3-3.9-19.1-4.8-38.5-4.9-57.9-1.1-212.9-.2-425.9-.4-638.8 0-24.7.6-49.5 5.2-74 11.2-60.3 56.8-106.5 117-118 15.2-2.9 30.5-4.2 46-4.6 40.8-1.1 81.6-.5 122.4-.5h1457.9z" />
    <path
      d="M233 543.3c0-65.9-.3-120.1.1-174.2.3-30 4-59.6 14.5-88 13.2-35.5 37.6-59.7 72.9-73 19.9-7.5 40.6-11 61.7-13.1 18.6-1.8 37.2-1.6 55.8-1.6 99 0 197.9-.3 296.9.2 29 .1 57.7 4 85.2 13.9 39.2 14.2 64.5 41.5 77.1 81 7.4 23.1 11.1 46.9 11.4 71.1 1.7 111.8.7 223.6.5 335.3 0 32-4.4 63.6-17.1 93.5-14.1 33.2-38.5 55.3-72.1 67.4-22.4 8.1-45.6 11.9-69.3 13.1-47.3 2.3-94.6.8-141.8 1-64.6.3-129.3.2-193.9 0-29.1-.1-58-3-86-11.8-38.8-12.2-66.2-36.5-80.9-74.6-8.7-22.7-12.9-46.4-14-70.6-2.5-60.4-.1-120.9-1-169.6z"
      fill="#d70028" />
    <path
      d="M2143.8 552c-18.7-8.9-37.9-15.6-58.2-18.4-28.5-4-56-1.3-80.9 14.5-23.4 14.8-36.8 37-42.7 63.5-6.8 30.3-6.2 60.7 4 90.2 12.1 35.1 37 55.4 74 60 24.2 3 47.9-.2 71.1-7.6 2.7-.9 4.1-1.8 4-5.1-.2-17.8-.2-35.7 0-53.5 0-3.8-1.4-4.3-4.6-4.3-20.5.1-41 0-61.5.1-3.7 0-5.2-.7-5.1-4.8.3-11 .2-22 0-33-.1-3.2.9-3.8 3.9-3.8 38.3.1 76.6.1 114.9 0 3.2 0 3.8 1 3.8 3.9-.1 40.8-.1 81.6 0 122.4 0 2.9-1 4.1-3.4 5.1-28.9 12.7-59 20.7-90.6 23.1-24.7 1.9-49.1.7-72.8-6.7-40.7-12.7-69.3-38.8-85.1-78.5-10.4-26.2-13.2-53.6-11.8-81.6 1.2-23.1 5.5-45.4 15.6-66.4 14.2-29.5 35.6-52 65.5-65.4 56.5-25.1 112.9-20.8 168.8 2.9 4 1.7 4.8 3.5 3.2 7.7-4.2 11.5-7.9 23.2-11.7 34.8.1.4-.1.6-.4.9zM1402.8 801c-18.5 0-36.3-.1-54.1.1-3.5 0-4.1-1.8-4.9-4.2-9.3-24.8-18.6-49.6-27.8-74.5-1-2.7-2.2-3.5-4.9-3.5-38.3.1-76.6.1-114.9 0-3.3 0-4.4 1.2-5.5 4.1-9.1 25.1-18.4 50-27.5 75.1-.6 1.7-1 2.9-3.2 2.9-17.3-.1-34.6 0-52.5 0 4.2-10.6 8.2-20.8 12.1-30.9 28.1-71.7 56.1-143.4 84.2-215 7.5-19.1 15-38.2 22.5-57.4 1.1-2.9 2.5-4.3 6-4.2 14.3.3 28.6.2 43 0 3.1 0 4.6.7 5.8 3.7 27.1 68 54.4 135.9 81.6 203.8 13.2 33.1 26.5 66.2 40.1 100zM1718.8 600.6c11.3-12.4 23.6-22 38.6-27.3 32-11.2 61.7-7.2 87 16.3 14.5 13.4 22.5 31.1 26.2 50.4 6.6 34.4 6.2 68.5-7.1 101.4-15.8 38.8-45.1 59.8-86.8 63.6-17.9 1.6-35.5-.4-52.6-5.9-3.8-1.2-4.2-.1-4.2 3.4.1 28.3 0 56.7.1 85 0 3.7-.7 5-4.8 5.2-14.7.9-29.4 2.4-44 3.8-4.4.4-4.3-1.9-4.3-5 0-92.1.1-184.3 0-276.4 0-13.1-.8-26.2-1.5-39.3-.2-3.1.7-3.9 3.8-3.8 14 .2 28 .1 42 0 2.7 0 4 .3 4.5 3.6 1.3 7.9 2.4 15.9 3.1 25zM1478.5 599.7c11.4-11.3 23.1-20.8 37.5-26.1 29.7-10.8 57.9-8 83.1 11.8 15.4 12.1 24.5 28.8 29.3 47.5 8.6 34.2 8.5 68.6-3 102.1-14 40.8-42.9 64.5-85.9 69.7-20.3 2.5-40.4-.1-59.8-6.8-1.2 1.9-.6 3.8-.6 5.5 0 27.8-.1 55.6 0 83.5 0 3.7-.3 5.5-4.8 5.7-14.7.9-29.4 2.4-44 3.8-3.3.3-3.8-1-3.8-3.9.1-19.3.1-38.6.1-58 0-67.6.1-135.3-.1-202.9-.1-18.9-.8-37.9-1.6-56.8-.1-2.9.7-2.9 2.8-2.9 14.7 0 29.3.1 44-.1 3 0 3.1 1.5 3.4 3.5 1.1 8 2.2 15.8 3.4 24.4zM3089.3 572c18.3 0 36.2.1 54.2-.1 3.7 0 3.3 2.8 3.9 4.7 11 33.2 21.8 66.4 32.7 99.6 7.6 23.1 15.5 46.1 20.4 70 .2.8.6 1.5.9 2.3 15.7-57.8 36.6-113.9 54.6-170.9 1.4-4.3 3-5.9 7.8-5.8 15.6.4 31.3.1 47.6.1-4.1 11.4-7.9 22.4-11.9 33.4-20.8 57.1-41.5 114.2-62.3 171.3-7.7 21.1-14.6 42.6-25.1 62.6-7 13.5-15.2 26.1-26.6 36.3-14.8 13.2-32.6 19.5-52.2 20.6-16.8.9-33.5-.2-49.8-5.1-2.9-.9-3.8-1.5-3-4.6 2.8-10.4 5.4-20.8 7.8-31.3.8-3.6 2.2-3.8 5.4-3 6.4 1.7 12.9 2.7 19.6 3.2 22.5 1.6 37.9-9.3 48.8-27.8 1.1-1.9 2-3.8 3.1-5.7 7.2-11.7 7.4-22.7 2.3-36.2-26.5-70-51.8-140.4-77.4-210.7-.3-.7-.5-1.7-.8-2.9zM2350.4 772.1c-17.5 18.1-37.8 29.9-62.8 32.6-16.5 1.8-32.5.2-47.6-6.9-17-8.1-28.3-21.3-32.8-39.6-5.5-21.8-4.3-42.9 8.7-62.1 10.4-15.4 25.6-23.7 43.3-28.1 24-6 48.4-5.7 72.8-4.3 4.9.3 9.9 1 14.8 1.6 2.1.3 3.1-.2 3.1-2.5-.3-12-.9-24-6.6-34.8-7.7-14.7-21.3-19.8-36.7-20.9-25.1-1.8-48.6 4.9-71.4 14.4-4 1.6-5.1 1.3-5.9-3.1-1.8-10-4-19.8-6.4-29.7-.8-3.3-.1-4.6 3.1-5.8 22.6-8.6 45.9-13.8 70.2-14.9 14.8-.7 29.5 0 44.1 2.9 33.7 6.8 51.9 28.5 59 61 2.4 11.1 3.2 22.3 3.2 33.6 0 25.5.1 51 0 76.5-.1 17.9.3 35.9 1.6 53.8.3 3.9-.5 5.4-5 5.3-13.5-.3-27-.3-40.5 0-3.5.1-4.6-1.2-5-4.3-1.1-8.2-2.1-16.3-3.2-24.7zM2813.2 693.5h-68c-6.4 0-6.7 0-6.1 6.1 1.4 14.7 4.6 28.8 13.4 41.1 11.8 16.5 28.7 22.7 48.1 23.8 23.3 1.3 45.4-3.9 66.8-12.5 3.5-1.4 5.3-1.6 6.5 2.8 2.6 9.4 5.7 18.7 8.9 28 1 3 .3 4.4-2.5 5.6-23.3 10.3-47.7 15.7-73.2 16.7-17.7.7-35.2-.3-52.2-5.5-34.3-10.5-55.7-33.9-64.4-68.3-8-31.5-7.6-63.2 2.9-94.2 10.5-31.2 30.6-54 62.6-64.1 28.2-8.9 56.4-8.5 83.1 5.9 21.5 11.6 34.5 30.4 42.2 53.3 6.4 19.1 7.3 38.7 6.9 58.6-.1 3.9-2.7 2.6-4.5 2.6-23.5.1-47 .1-70.5.1zM2577.7 612V482.6c0-6.9 0-7 7-7.5 13.9-1.2 27.7-2.1 41.6-3.6 4-.4 4.5.8 4.5 4.3-.1 74.8-.1 149.6 0 224.4 0 14.8-.9 29.7.5 44.4 1.4 14.3 10.1 20.5 24.5 18.1 9.3-1.6 9.4-1.6 11 7.9 1.4 8.3 2.5 16.7 4.1 25 .5 2.5.2 3.7-2.3 4.4-17.4 5-35.1 7.5-53 3.7-20.4-4.4-33.2-18.9-36.3-40.3-1.1-7.4-1.5-14.8-1.5-22.3-.1-43.2-.1-86.2-.1-129.1zM2447.8 616.3c0-44.8.1-89.6-.1-134.5 0-4.8.7-6.8 6.4-7 14.4-.5 28.8-2 43.1-3.4 3.1-.3 3.3.7 3.1 3-.1 1 0 2 0 3v259.4c0 2.7.2 5.3.5 7.9 1.9 14 10.3 20.2 24.3 18 9.7-1.6 9.7-1.6 11.3 8 1.3 8.2 2.6 16.4 4.1 24.5.4 2.3.3 3.8-2.3 4.5-18.7 5.4-37.7 8.1-56.9 2.8-16.9-4.7-26.7-16.5-31-33.1-1.8-6.9-2.6-14-2.6-21.2.1-44 .1-88 .1-131.9zM2982.1 614.5c7.1-10.6 13.5-20.4 21.9-28.8 17.2-17.2 38-21.1 61-16.5 2 .4 3 1 2.6 3.5-2.1 13.4-4.1 26.9-6 40.3-.4 2.6-1.1 2.7-3.4 2.2-25.5-5.7-45.8 3.2-62.5 22.4-1.2 1.4-2.3 2.9-3.6 4.1-8.1 7.6-9.9 16.8-9.8 27.7.6 42.1.2 84.3.3 126.4 0 4.3-1.2 5.2-5.2 5.1-14.2-.3-28.3-.3-42.5 0-4.4.1-5-1.3-5-5.2.1-52.3 0-104.6.1-156.9 0-21.3-1-42.5-1.7-63.8-.1-3.1.8-3.1 3.1-3.1 14.3.1 28.7.1 43 0 2.8 0 3.5.9 3.7 3.6 1.2 12.8 2.6 25.4 4 39zM2616.7 232v22.6c0 32-.1 64 .1 96 0 4.3-1.3 5.4-5.3 5.1-5.3-.3-10.7-.4-16 0-4.1.3-4.9-1.1-4.9-5 .1-36.8.1-73.6.1-110.5 0-13.8.1-27.7-.1-41.5 0-3.3.8-4.3 4.2-4.2 8 .2 16 .2 24 0 3.1-.1 4.8 1.2 6.4 3.7 23.8 37.5 47.7 75 71.6 112.5 1.1 1.8 2.4 3.5 4 6 .8-5.1 0-9.4-.1-13.7-.1-34.8 0-69.6-.1-104.5 0-3.1.9-4 4-3.9 6.2.2 12.3.2 18.5 0 2.8-.1 3.7.8 3.7 3.7-.2 9.2-.1 18.3-.1 27.5 0 41.7 0 83.3.1 125 0 3.8-.8 5.2-4.9 5-7.3-.4-14.7-.3-22 0-3.3.1-5-1.1-6.7-3.7-22.6-35.6-45.2-71.1-67.9-106.6-2.8-4.6-5.7-9-8.6-13.5zM1766 271.4c.2 20.1-3.4 37.3-13.5 52.6-13.3 20.3-32.9 30.3-56.5 32.9-16.7 1.8-33.3.7-48.8-6.6-24.8-11.6-37-32.3-40.7-58.5-2.6-18.2-1.2-36.2 5.9-53.2 11.7-28 33.8-42.1 63.2-45.5 11.7-1.4 23.5-1.1 35.1 1.8 29 7.2 48.9 28.8 53.6 58.1 1.3 6.9 2 13.6 1.7 18.4zM2399.8 277.1c-.3-14.9 2-28.6 8-41.4 9.1-19.8 24.4-32.9 45.2-39.2 17.7-5.4 35.8-5.8 53.6-1.2 23.4 6 39.9 20.6 47.9 43.6 8.6 24.8 8.3 49.6-2 73.8-11.6 27.4-33.7 40.9-62.4 44.2-17.2 2-34.2.5-50.1-7.3-22.1-10.9-33.9-29.4-38.6-52.9-1.4-6.7-1.9-13.5-1.6-19.6zM1870.1 284.7c16.3 23.4 32.5 46.7 49.3 70.8h-31.6c-2.1 0-2.6-1.9-3.4-3.2-12.5-19-25-37.9-37.4-57-1.5-2.3-2.9-3.6-5.8-3.4-4.1.3-8.3.3-12.5 0-3.2-.2-3.8 1-3.8 3.9.1 18.3 0 36.6.1 54.9 0 3.6-.7 5-4.6 4.8-6.6-.3-13.3-.3-20 0-3.4.1-4.1-1-4.1-4.2.1-23.5.1-47 .1-70.4 0-27.3.1-54.6-.1-81.9 0-3.9 1-4.7 4.7-4.6 18.6.5 37.3-.5 55.9.6 8.2.5 16.1 2.2 23.6 5.6 15.8 7.1 24.2 22.9 22.3 41.2-2 19.2-12.2 32.5-29.1 41.1-1 .6-2.2 1.1-3.6 1.8zM1216.9 194.6c10.3 0 19.9.1 29.5-.1 2.4 0 3.1 1.3 4 2.9 10.5 17.9 21 35.7 31.9 54.3 3.5-5.5 6.7-10.6 9.9-15.7 7.9-12.8 15.8-25.7 23.7-38.5.8-1.4 1.3-3 3.5-3 9.6.1 19.2 0 29.6 0-7 11-13.6 21.3-20.1 31.6-9 14.1-17.9 28.3-27.1 42.3-2 3-1.7 5 .1 7.8 16.2 24.9 32.3 49.8 48.4 74.8.8 1.2 2 2.2 1.9 4.4-9.9 0-19.9-.1-29.8 0-3 0-3.4-2.5-4.4-4.1-10.9-17.8-21.6-35.8-32.4-53.6-.9-1.5-2-3-3.2-4.9-12.3 19.9-24.5 39.5-36.4 59.1-1.6 2.6-3.2 3.7-6.2 3.6-8.8-.2-17.6-.1-27.2-.1 4.3-6.6 8.2-12.6 12.1-18.6 13.2-20 26.3-40 39.6-59.8 2.1-3.1 1.6-5-.2-7.8-15.1-23.6-30.2-47.3-45.2-70.9-.7-.8-1.1-1.9-2-3.7zM1107.2 275.2c0-25.3.1-50.6-.1-75.9 0-3.7.8-4.8 4.6-4.8 28.6.2 57.3.2 85.9 0 3.4 0 4.7.6 4.1 4.3-.9 5.2-1.7 10.5-1.9 15.8-.1 3.3-1.4 3.6-4.1 3.6-18.6-.1-37.3 0-55.9-.1-3.5 0-4.8.5-4.7 4.5.3 11.6.2 23.3 0 35-.1 3.3 1 4.2 4.2 4.2 17.3-.1 34.6 0 51.9-.1 3.4 0 4.7.6 4.5 4.3-.3 4.6-.3 9.3 0 14 .2 3.1-.8 3.9-3.9 3.9-17.3-.2-34.6 0-51.9-.2-3.6 0-4.9.6-4.8 4.6.3 13.3.2 26.6 0 40 0 3.3.9 4.1 4.1 4.1 19.6-.2 39.3.1 58.9-.2 4.3-.1 5 1.3 4.4 5.1-.8 4.9-1.2 9.8-1.6 14.8-.2 2.7-.9 3.9-4.1 3.8-28.5-.2-56.9-.2-85.4 0-3.6 0-4.4-1.1-4.4-4.5.3-25.6.2-50.9.2-76.2zM1940.4 275c0-25.3.1-50.6-.1-75.9 0-3.9 1.1-4.6 4.7-4.6 28.6.1 57.3.2 85.9 0 4.2 0 4.6 1.4 4 4.7-.6 3.4-1 6.9-1.4 10.3-1.1 8.5-1 8.5-9.7 8.5-16.8 0-33.6.2-50.5-.1-4.4-.1-5.1 1.3-5 5.2.3 11.2.3 22.3 0 33.5-.1 4.4 1.3 5 5.3 5 17-.2 34 0 51-.2 3.4 0 4.7.8 4.5 4.4-.3 4.3-.4 8.7 0 13 .4 4.3-1.5 4.8-5.1 4.8-17.2-.2-34.3 0-51.5-.2-3.3 0-4.1.9-4.1 4.1.2 13.5.2 27 0 40.5 0 3.3.9 4.1 4.1 4.1 19.6-.2 39.3 0 58.9-.2 3.6 0 5.1.5 4.3 4.6-1 5.2-1.3 10.5-1.7 15.8-.1 2.3-.7 3.2-3.1 3.2-29.1-.1-58.3-.1-87.4 0-3.6 0-3-2.1-3-4.2-.1-25.3-.1-50.8-.1-76.3zM1372.6 275.1c0-25.3.1-50.6-.1-75.9 0-3.8.9-4.8 4.7-4.6 19.2.7 38.6-1.3 57.8 1.6 11.3 1.7 21.9 5.4 30.6 13.2 11.5 10.4 14.4 23.9 13.4 38.5-2.1 30.1-24.8 46.1-51.1 47.8-7.9.5-15.6 0-23.3-1.4-3.5-.6-4.1.5-4 3.7.1 17.7 0 35.3.1 53 0 3.6-.6 5-4.5 4.8-6.3-.4-12.7-.3-19 0-3.7.2-4.7-.8-4.7-4.6.2-25.5.1-50.8.1-76.1zM2266.3 287.1c0 21.3-.1 42.6.1 63.9 0 3.8-.9 4.8-4.7 4.6-6.3-.3-12.7-.4-19 0-3.9.2-4.6-1.2-4.5-4.8.1-42.6 0-85.3.2-127.9 0-4.3-1.1-5.1-5.2-5-13.6.3-27.3 0-41 .2-3.3.1-3.9-1-3.5-3.9.7-5.4 1.4-10.8 1.8-16.3.2-2.8 1.3-3.5 4-3.5 39.5.1 78.9.1 118.4 0 2.3 0 3.6.1 3 3.3-1 5.4-1.2 10.9-1.7 16.3-.2 2.9-1.2 4.1-4.6 4.1-13.1-.2-26.3 0-39.5-.2-3.3-.1-4.1 1-4 4.1.3 21.8.2 43.4.2 65.1z"
      fill="#fefefe" />
    <path
      d="M1506.1 275c0-25 .1-50-.1-75-.1-4.8 1.5-5.9 5.8-5.6 5.8.4 11.7.4 17.5 0 4.1-.3 4.9 1.2 4.9 5-.1 41.8 0 83.6-.2 125.4 0 4.8.8 6.4 6 6.3 18.8-.4 37.6-.1 56.5-.3 3.4 0 4 1 3.6 4-.7 5.4-1.1 10.9-1.5 16.3-.3 3-1.3 4.4-4.9 4.4-27.6-.2-55.3-.2-82.9 0-4.3 0-4.8-1.6-4.7-5.2V275z"
      fill="#fdfdfd" />
    <path
      d="M2137.4 274.5c0-25.2.1-50.3-.1-75.5 0-3.9 1.1-4.8 4.7-4.6 6.3.3 12.7.3 19 0 3.8-.2 5.1.8 5 4.9-.2 26.8-.1 53.6-.1 80.5 0 23.5-.2 47 .1 70.5.1 4.6-1.4 5.6-5.6 5.4-6.3-.4-12.7-.3-19 0-3.3.1-4.2-.8-4.1-4.1.1-25.8.1-51.4.1-77.1zM621.1 589.8c5.3-16 10.5-32.1 15.8-48.1 3.4-10.5 3.4-10.3 14.4-10.4 3.3 0 4.6 1.1 5.6 4.1 5.5 17 11.2 34 16.8 51 .5 1.4 1 2.8 1.7 4.7 5.8-18.1 11.7-35.5 17-53.1 1.5-4.8 3.2-7.8 8.7-6.6.8.2 1.7 0 2.5 0 10.3 0 10.3 0 6.9 10-8.8 25.2-17.6 50.3-26.3 75.5-.9 2.6-1.9 3.7-4.8 3.7-11.7.1-11.7.2-15.5-10.9-4.9-14.1-9.9-28.2-14.8-42.2-.4-1.1-.6-2.2-1.8-3.2-4.8 13.9-9.6 27.8-14.4 41.6-.5 1.4-.8 2.9-1.3 4.3-3.9 10.8-3.9 10.7-15.5 10.5-2.5 0-3.8-.7-4.7-3.2-9.5-27.6-19.1-55.1-28.8-82.6-.8-2.3-.7-3.5 2.1-3.3h.5c16.2-.7 16.1-.7 21 14.9 4.5 14.5 9.3 29 14 43.5.2-.1.5-.2.9-.2zM466.9 306.5c7.5 0 7.5 0 8.1 7.1 3.6 45.7 39.4 83.3 84.4 88.6 54.6 6.4 103-32.9 108-87.8.7-7.9.7-7.9 8.4-7.9 8.9 0 8.9 0 8 9-4.3 41.3-24.6 72.2-61.2 91.4-30 15.7-61.7 17.3-92.9 4.4-39.6-16.3-62.9-46.4-70.1-88.7-.4-2.3-.3-4.6-.6-7-1.2-9.1-1.2-9.1 7.9-9.1zM308.4 576c0-13.3.1-26.7-.1-40-.1-3.8 1.1-5 4.8-4.7 3.3.3 6.7.3 10 0 3.1-.2 4 .8 3.9 3.9-.2 9.3.1 18.7-.2 28-.1 3.2.9 3.9 3.9 3.8 10.8-.2 21.7-.2 32.5 0 3.3.1 3.8-1.1 3.7-4-.2-9.2.1-18.3-.1-27.5-.1-3.2.7-4.5 4.1-4.2 4.4.4 10.3-1.3 13 .9 2.9 2.4.9 8.4.9 12.8.1 23.6 0 47.3.1 71 0 3.3-.6 4.9-4.3 4.5-3.5-.3-7-.2-10.5 0-2.7.1-3.4-.8-3.4-3.4.1-9.7 0-19.3.1-29 0-2.7-.6-3.7-3.6-3.7-11 .2-22 .2-33 0-2.9 0-3.6 1-3.6 3.7.1 9.5-.1 19 .1 28.5.1 3-.7 4.2-3.9 3.9-3.5-.3-7-.3-10.5 0-3.7.3-4.4-1.3-4.3-4.6.5-13.2.4-26.6.4-39.9zM727.8 575.7c0-13.3.1-26.6-.1-40-.1-3.6 1-4.4 4.5-4.4 19 .2 38 .1 56.9 0 3.2 0 4.3.8 4.3 4.1.1 12.5.2 12.5-12.3 12.5-10.3 0-20.6.1-31-.1-3.3-.1-4.9.6-4.5 4.3.5 4.3-1.8 9.9.9 12.5 2.6 2.6 8.2.7 12.5.7 5.2.1 10.3.1 15.5 0 2.8-.1 3.7.7 3.8 3.6.4 13.5.5 13.5-12.8 13.5-5.5 0-11 .1-16.5-.1-2.6-.1-3.5.8-3.3 3.4.3 5.6-1.8 12.8 1 16.5 2.6 3.5 10.2.9 15.6 1 9.3.2 18.6.2 28 0 3.3-.1 4.9.6 4.5 4.3-.5 4.1 1.7 9.5-.8 12-2.5 2.6-7.9.8-12 .8-16.6.1-33.3-.1-49.9.1-3.6 0-4.4-1-4.4-4.5.3-13.2.1-26.7.1-40.2zM409.4 559.7c0-8.2.1-16.3-.1-24.5 0-2.8.7-4 3.6-3.8 4.8.4 10.9-1.9 14 .9 3 2.6.8 8.8.9 13.4.1 12.3-.1 24.7.1 37 .3 17.2 13.8 26.2 29.3 19.5 9.1-3.9 10.4-12.3 10.6-20.8.2-15.2.2-30.3 0-45.5 0-3.5.9-4.8 4.4-4.4 4.6.5 10.5-2 13.4 1.1 2.7 2.8.8 8.6.8 13-.1 13.8.3 27.6-.4 41.4-1.1 20.6-15.3 34.4-36.1 34.6-11.5.1-22.2-1.7-30.6-10.5-7.9-8.1-9.6-18.3-9.9-29-.2-7.4 0-14.9 0-22.4zM579 620.5c-9.5 0-9.5 0-13.1-8.6-4.2-9.9-4.2-9.9-14.6-9.9-8.7 0-17.3.1-26-.1-2.7-.1-4.2.7-5.2 3.4-1.5 4-3.4 7.9-5 11.9-1 2.6-2.5 3.5-5.3 3.4-3.7-.2-7.3-.2-11 0-3.6.3-4.2-.7-2.7-4.1 5.8-12.8 11.4-25.8 17.1-38.7 6.1-13.8 12.3-27.6 18.2-41.4 1.6-3.6 3.5-4.8 7.7-5.2 8.3-.8 12.3 2 15.6 10.1 10.4 25.5 21.9 50.5 33.1 75.6 1.2 2.7 1.2 4-2.2 3.7-2.3-.2-4.5-.1-6.6-.1zM833.8 575.9c0 13.5-.1 27 .1 40.5 0 3.3-.9 4.5-4.1 4.2-4.4-.4-10.2 1.8-13-.8-2.8-2.7-.8-8.5-.9-12.9-.1-23.7 0-47.3-.1-71 0-3.5.9-4.8 4.4-4.4 4.4.5 10.4-1.9 12.9 1 2.2 2.4.7 8.2.7 12.5v30.9z"
      fill="#fefefe" />
    <path
      d="M1253 550.4c11.3 36.9 25.8 72 38.7 107.6 1.7 4.8 3.5 9.7 5.4 14.4 1.2 2.8 1.2 4.1-2.5 4.1-27.6-.1-55.3-.1-82.9 0-4 0-3.4-1.7-2.4-4.2 9.9-26.9 20-53.7 29.7-80.6 4.5-12.4 8.4-25.1 12.6-37.7.3-1 .8-2 1.4-3.6zM1720 696.4c0-18.5.1-37-.1-55.5 0-3.9 1.1-6.6 3.9-9.1 12.3-10.9 25.3-20.2 42.4-22.1 22.2-2.4 40.8 9.1 48.4 30.5 6.3 17.8 6.5 36.2 5.5 54.6-.7 14.8-3.6 29.3-10.9 42.5-10.1 18.5-25.9 27.7-46.8 28.6-12.8.5-25.1-1.4-37.2-5.7-3.9-1.4-5.4-3.1-5.4-7.4.4-18.7.2-37.6.2-56.4zM1580.1 683.4c-.1 16.1-1.9 32.6-8.6 48.4-9.1 21.6-27.9 34.1-51.3 34.3-12.6.1-24.7-1.7-36.6-6.1-3.5-1.3-4.7-3.1-4.7-6.9.2-37.5.1-74.9 0-112.4 0-3.3 1-5.6 3.4-7.8 12.5-11.8 26.2-21.3 44-23.2 21.3-2.3 40.1 9.5 47.4 29.8 5.1 14 6.3 28.4 6.4 43.9zM2349.8 718.2c0 5-.2 10 .1 15 .3 4-.9 6.9-3.9 9.5-15.6 13.6-33 22.7-54.1 23.2-26.5.5-36.9-17.4-33.1-40.3 2.9-17.1 14.4-26.6 34.5-29.6 17.9-2.7 35.7-1.2 53.5.4 2.9.3 3.1 1.6 3.1 3.8-.2 6-.1 12-.1 18zM2788.5 659.5c-14.7 0-29.3-.1-44 .1-3.1 0-4.4-.3-3.6-4 3.1-14.6 7.6-28.5 19.3-38.8 25.2-22.1 63-11.4 72.8 20.7 1.7 5.4 2.3 11 3.3 16.5 1 5.2-1.1 5.7-5.4 5.6-14.1-.3-28.3-.1-42.4-.1zM1736.5 273.3c.3 16.7-2.9 30.9-11.7 43.5-17.9 25.5-66.7 25.8-81.7-6.2-11.8-25.4-12.2-50.9 3.1-75 12.1-19 31-23.2 52-19.6 19.4 3.3 30 16.1 35.3 34.3 2.3 8 3.4 16.2 3 23zM2481.2 215.1c23.7 0 39.3 11.4 45.9 34.1 5.5 19 5.2 37.9-2.1 56.5-6.9 17.5-23.9 28.6-42.4 29.5-27.8 1.3-46.3-15.5-51.5-41.2-3.2-15.9-3.1-31.7 3-47 8.5-21.4 24.2-31.9 47.1-31.9zM1825 243v-24c0-1.4-.5-3.1 2-3 9.9.3 19.9-1 29.8 1.5 16.4 4 22.7 20.4 14 36.3-6.6 12.1-17.6 16.5-30.6 16.7-4.9.1-11.3 2.2-14.3-1-2.8-2.9-.6-9.2-.8-14-.2-4.1-.1-8.3-.1-12.5zM1400.6 244.1c0-8.2.1-16.3-.1-24.5-.1-2.8.7-3.7 3.5-3.6 7.8.2 15.6-.2 23.3 1.1 15.4 2.6 22.8 10.8 23.4 26 .6 15.2-7.8 26.6-22.1 29.9-8.5 2-17.1 1.1-25.7.1-2.8-.3-2.4-2.2-2.4-4 .1-8.4.1-16.7.1-25z" />
    <path
      d="M541.6 554.9c4.3 9.9 8 18.9 11.9 27.8.9 2 .3 2.7-1.8 2.7-6.8 0-13.6-.1-20.4 0-3 0-2.2-1.4-1.5-3.1 3.9-8.7 7.6-17.5 11.8-27.4z"
      fill="#d70128" />
  </g>
</svg>
