<svg version="1.1" id="Layer_1" xmlns="http://www.w3.org/2000/svg" x="0" y="0" viewBox="0 0 521.7 170.7"
  xml:space="preserve">
  <path
    d="M521.7 147.6c0 12.7-10.3 23.1-23.1 23.1H23.1C10.3 170.7 0 160.3 0 147.6V23.1C0 10.3 10.3 0 23.1 0h475.6c12.7 0 23.1 10.3 23.1 23.1v124.5z" />
  <path
    d="M136 112.8c-2.8 6.1-4.1 8.9-7.6 14.3-5 7.6-12 17-20.6 17-7.7.1-9.7-5-20.1-5-10.4.1-12.6 5-20.3 5-8.7-.1-15.4-8.5-20.3-16.1-13.9-21.1-15.3-45.9-6.8-59.1C46.4 59.5 56 54.1 65 54.1c9.2 0 15 5 22.6 5 7.4 0 11.9-5 22.5-5 8 0 16.5 4.4 22.6 11.9-19.9 10.9-16.7 39.2 3.3 46.8z"
    fill="#fff" />
  <path d="M102 45.6c3.9-5 6.8-11.9 5.7-19.1-6.3.4-13.7 4.4-18 9.7-3.9 4.7-7.1 11.8-5.9 18.6 6.9.2 14-3.9 18.2-9.2z"
    fill="#fff" />
  <g fill="#fff">
    <path
      d="M178.3 68.6l-19.9 58.5h9.1l5.9-18h19.2l6.1 18h9.4l-20-58.5h-9.8zm4.7 9.6c.7 2.6 1.4 5.3 2.3 8.3l5.4 15.5h-15.2l5.3-15.6c.8-2.6 1.5-5.3 2.2-8.2zM233.9 83.8c-6 0-10.9 2.3-14.1 6.8l-.4-5.8h-8.1v.7c.2 3.6.3 7.6.3 13.3v45.1h8.9v-21c2.7 3.3 7.1 5.2 12.1 5.2 5.2 0 9.9-2 13.4-5.7 3.9-4.1 5.9-10 5.9-17 0-6.2-1.8-11.6-5.1-15.5-3.2-4-7.8-6.1-12.9-6.1zm-2.2 7.3c7.9 0 11.4 7.3 11.4 14.6 0 9.3-4.5 15.1-11.8 15.1-5 0-9.2-3.4-10.4-8.2-.2-.8-.3-1.7-.3-2.9v-7.1c0-.6.1-1.4.3-2.2 0-.2.1-.5.1-.7 1.3-5.1 5.7-8.6 10.7-8.6zM279.5 83.8c-6 0-10.9 2.3-14.1 6.8l-.4-5.8h-8v.7c.2 3.6.3 7.6.3 13.3v45.1h8.9v-21c2.7 3.3 7.1 5.2 12.1 5.2 5.2 0 9.9-2 13.4-5.7 3.9-4.1 5.9-10 5.9-17 0-6.2-1.8-11.6-5.1-15.5-3.3-4-7.9-6.1-13-6.1zm-2.2 7.3c7.9 0 11.4 7.3 11.4 14.6 0 9.3-4.5 15.1-11.8 15.1-4.9 0-9.2-3.4-10.4-8.2-.2-.8-.3-1.7-.3-2.9v-7.1c0-.6.1-1.4.3-2.2 0-.2.1-.5.1-.7 1.3-5.1 5.7-8.6 10.7-8.6zM336.6 93.4c-8.3-3.2-10.9-5.7-10.9-10.4 0-3.9 3.1-7.9 10.1-7.9 5.7 0 9.4 2 10.4 2.6l.8.5 2.5-7.4-.5-.3c-1.5-.9-5.7-2.9-12.9-2.9-11.3 0-19.2 6.7-19.2 16.2 0 7.7 4.9 13.1 15.5 16.9 7.5 2.8 10.3 5.7 10.3 10.6 0 5.6-4.3 9-11.3 9-4.5 0-9.2-1.3-12.8-3.6l-.8-.5-2.4 7.6.4.3c3.3 2.2 9.6 3.8 15 3.8 15.2 0 20.6-9.3 20.6-17.2.1-8.1-4.2-13.1-14.8-17.3zM367.4 74.6l-8.7 2.7v7.4h-6.4v7.1h6.4v21.7c0 5.2 1 8.9 3.1 11.2 2 2.2 5 3.4 8.6 3.4 3.3 0 5.7-.7 6.8-1.1l.5-.2-.4-7.1-.8.3c-1.1.3-2.3.5-4.1.5-3.4 0-4.9-2.2-4.9-7.3V91.8h10.7v-7.1h-10.7V74.6zM400.1 83.8c-12.4 0-21 9.2-21 22.5 0 12.8 8.4 21.8 20.4 21.8h.1c10.1 0 21-7.1 21-22.6 0-6.3-1.9-11.7-5.6-15.7-3.9-3.9-9-6-14.9-6zm-.3 6.9c8 0 11.6 7.8 11.6 15 0 8.9-4.9 15.3-11.8 15.3h-.1c-6.7 0-11.6-6.3-11.6-15.1.1-7.5 3.7-15.2 11.9-15.2zM447.6 84.2l-.5-.1c-.8-.2-1.4-.3-2.2-.3-4.6 0-8.8 2.7-11.1 7.1l-.3-6.2h-7.9l.1.7c.2 3.5.3 7.4.3 12.7l-.1 28.9h8.9v-22.6c0-1.2.1-2.4.2-3.4 1-5.4 4.7-8.9 9.3-8.9.9 0 1.6.1 2.4.1l.9.1v-8.1zM467.5 83.7c-11.8 0-20 9.4-20 22.9 0 13 8.2 21.4 20.9 21.4 6.7 0 11.3-1.5 14-2.7l.5-.2-1.7-6.6-.7.3c-2.4 1-5.6 2-11.1 2-3.8 0-12.7-1.3-13.3-12.8l28.6.1.1-.6c.2-.9.3-2.1.3-3.7 0-9.3-4.6-20.1-17.6-20.1zm-.6 6.7c2.7 0 4.9.8 6.5 2.5 2.5 2.6 3 6.4 3 8.2h-20.2c.9-5.1 4.1-10.7 10.7-10.7z" />
    <g>
      <path
        d="M158.4 28.6c2.5-.3 5.3-.6 8.5-.6 5.7 0 9.8 1.2 12.5 3.4 2.8 2.3 4.4 5.5 4.4 10s-1.6 8.2-4.4 10.8c-2.9 2.6-7.7 4-13.6 4-2.9 0-5.2-.1-7.3-.3V28.6zm4.1 24.6c1 .2 2.5.2 4 .2 8.5 0 13.1-4.3 13.1-11.7 0-6.6-4.1-10.7-12.5-10.7-2.1 0-3.6.2-4.7.4v21.8zM198 56.4c-5.9 0-10.6-3.9-10.6-10.2 0-6.7 4.9-10.6 11-10.6 6.3 0 10.6 4.1 10.6 10.2 0 7.4-5.7 10.6-11 10.6zm.1-2.7c3.8 0 6.7-3.2 6.7-7.8 0-3.4-1.9-7.6-6.6-7.6-4.7 0-6.8 3.9-6.8 7.7.1 4.4 2.8 7.7 6.7 7.7zM215.4 36.1l3 10.1c.6 2.2 1.2 4.3 1.6 6.4h.1c.5-2 1.2-4.1 2-6.3l3.6-10.1h3.4l3.4 9.9c.8 2.3 1.5 4.5 2 6.5h.1c.4-2 1-4.1 1.7-6.5l3.1-10h4L236.3 56h-3.7l-3.4-9.5c-.8-2.3-1.4-4.2-2-6.6h-.1c-.5 2.4-1.2 4.5-2 6.6l-3.6 9.4h-3.7L211.1 36h4.3zM247.4 41.4c0-2.1 0-3.7-.2-5.4h3.6l.2 3.2h.1c1.1-1.8 3.7-3.7 7.3-3.7 3.1 0 7.8 1.6 7.8 8.5v11.9h-4V44.5c0-3.2-1.3-5.9-5.1-5.9-2.6 0-4.7 1.7-5.4 3.7-.2.5-.3 1.1-.3 1.7v12h-4V41.4zM272.7 26.8h4V56h-4V26.8zM292.4 56.4c-5.9 0-10.6-3.9-10.6-10.2 0-6.7 4.9-10.6 11-10.6 6.3 0 10.6 4.1 10.6 10.2 0 7.4-5.7 10.6-11 10.6zm.1-2.7c3.8 0 6.7-3.2 6.7-7.8 0-3.4-1.9-7.6-6.6-7.6-4.7 0-6.8 3.9-6.8 7.7.1 4.4 2.8 7.7 6.7 7.7zM324 51.2c0 1.7.1 3.4.3 4.8h-3.6l-.4-2.5h-.1c-1.2 1.6-3.6 3-6.8 3-4.5 0-6.8-2.8-6.8-5.7 0-4.8 4.7-7.4 13.3-7.4V43c0-1.6-.5-4.6-5-4.6-2.1 0-4.2.5-5.8 1.5l-.9-2.4c1.8-1 4.5-1.7 7.3-1.7 6.8 0 8.4 4.1 8.4 8.1v7.3zm-3.9-5.4c-4.4-.1-9.4.6-9.4 4.5 0 2.4 1.7 3.5 3.7 3.5 2.9 0 4.8-1.6 5.4-3.3.1-.4.2-.8.2-1.2v-3.5zM349.5 26.8v24c0 1.8 0 3.8.2 5.1h-3.6l-.2-3.5h-.1c-1.2 2.2-3.9 3.9-7.5 3.9-5.3 0-9.5-4.1-9.5-10.1 0-6.7 4.6-10.7 9.9-10.7 3.4 0 5.7 1.4 6.7 3h.1V26.8h4zm-4 17.4c0-.5 0-1.1-.2-1.6-.6-2.3-2.8-4.1-5.8-4.1-4.2 0-6.6 3.3-6.6 7.6 0 4.1 2.2 7.4 6.5 7.4 2.7 0 5.2-1.6 5.9-4.3.1-.5.2-1 .2-1.6v-3.4zM374.9 56.4c-5.9 0-10.6-3.9-10.6-10.2 0-6.7 4.9-10.6 11-10.6 6.3 0 10.6 4.1 10.6 10.2 0 7.4-5.7 10.6-11 10.6zm.1-2.7c3.8 0 6.7-3.2 6.7-7.8 0-3.4-1.9-7.6-6.6-7.6-4.7 0-6.8 3.9-6.8 7.7 0 4.4 2.8 7.7 6.7 7.7zM390.9 41.4c0-2.1 0-3.7-.2-5.4h3.6l.2 3.2h.1c1.1-1.8 3.7-3.7 7.3-3.7 3.1 0 7.8 1.6 7.8 8.5v11.9h-4V44.5c0-3.2-1.3-5.9-5.1-5.9-2.6 0-4.7 1.7-5.4 3.7-.2.5-.3 1.1-.3 1.7v12h-4V41.4zM430.8 31.3v4.8h5.8v2.8h-5.8v10.7c0 2.5.8 3.9 3 3.9 1.1 0 1.7-.1 2.3-.2l.2 2.8c-.8.2-2 .5-3.6.5-1.9 0-3.4-.6-4.3-1.5-1.1-1.1-1.6-2.9-1.6-5.2V38.8h-3.4V36h3.4v-3.7l4-1zM441.1 26.8h4v12.4h.1c.6-1 1.6-2 2.9-2.5 1.2-.7 2.6-1 4.1-1 3 0 7.7 1.6 7.7 8.5V56h-4V44.5c0-3.2-1.3-5.9-5.1-5.9-2.6 0-4.6 1.6-5.4 3.6-.2.5-.3 1-.3 1.7v12h-4V26.8zM468.7 46.6c.1 4.9 3.5 6.9 7.5 6.9 2.9 0 4.7-.5 6.1-1l.7 2.5c-1.4.6-3.9 1.3-7.4 1.3-6.8 0-10.9-4.1-10.9-10 0-6 4-10.8 10.4-10.8 7.2 0 9.1 5.7 9.1 9.4 0 .7 0 1.3-.1 1.7h-15.4zm11.7-2.6c0-2.3-1.1-5.9-5.5-5.9-4.1 0-5.8 3.4-6.2 5.9h11.7z" />
    </g>
  </g>
</svg>
